{
.appVersion = "3208";
.formatVersion = 3;
axes = (
{
name = Weight;
tag = wght;
}
);
classes = (
{
code = "N' Ntilde";
name = _N;
},
{
code = "O' Oslash OE Oacute Ocircumflex Odieresis Ograve Otilde";
name = _O;
},
{
code = "i' iacute icircumflex idieresis igrave";
name = _i;
},
{
code = "l' lslash";
name = _l;
},
{
code = "S' Scaron";
name = _S;
},
{
code = "n' ntilde";
name = _n;
},
{
code = "s' germandbls scaron";
name = _s1;
},
{
code = "U' Uacute Ucircumflex Udieresis Ugrave";
name = _U;
},
{
code = "o' oslash oe oacute ocircumflex odieresis ograve otilde";
name = _o;
},
{
code = "Y' Yacute Ydieresis";
name = _Y;
},
{
code = "A' Aacute Acircumflex Adieresis Agrave Aring Atilde";
name = _A;
},
{
code = "u' uacute ucircumflex udieresis ugrave";
name = _u;
},
{
code = "C' Ccedilla";
name = _C;
},
{
code = "D' Eth";
name = _D;
},
{
code = "A' AE Aacute Acircumflex Adieresis Agrave Aring Atilde";
name = _A1;
},
{
code = "y' yacute ydieresis";
name = _y;
},
{
code = "a' ae aacute acircumflex adieresis agrave aring atilde";
name = _a;
},
{
code = "b' thorn";
name = _b;
},
{
code = "c' ccedilla";
name = _c;
},
{
code = "d' dotlessi";
name = _d;
},
{
code = "L' Lslash";
name = _L;
},
{
code = "e' eacute ecircumflex edieresis egrave";
name = _e;
},
{
code = "f' f_i f_l";
name = _f;
}
);
customParameters = (
{
name = fsType;
value = (
);
},
{
name = "Use Typo Metrics";
value = 1;
}
);
date = "2023-08-04 09:29:28 +0000";
familyName = Kameron;
features = (
{
code = "    # Class Kerning Data Generated by MetricsMachine 4.0.5
    # UFO: /Users/vern/GitHub/kameronFont/1.0/src/Kameron-Regular_Pre-Hint.ufo
    # Date: Friday July 27, 2012 08:53:59
    @MMK_L_A = [A Aacute Acircumflex Adieresis Agrave Aring Atilde uni0200 uni0202];
    @MMK_L_C = [C Ccedilla];
    @MMK_L_E = [E Eacute Ecircumflex Edieresis Egrave uni0204 uni0206];
    @MMK_L_I = [I Iacute Icircumflex Idieresis Igrave uni0208 uni020A];
    @MMK_L_N = [N Ntilde];

glyphs = (
{
glyphname = A;
kernLeft = A;
kernRight = A;
lastChange = "2023-08-04 09:34:56 +0000";
layers = (
{
background = {
shapes = (
{
closed = 1;
nodes = (
(97,2,o),
(156,2,o),
(237,2,cs),
(312,2,o),
(387,0,o),
(461,0,c),
(461,95,l),
(433,95,o),
(409,95,o),
(389,95,cs),
(325,95,o),
(300,97,o),
(300,122,cs),
(300,131,o),
(304,143,o),
(310,158,cs),
(311,162,o),
(418,467,o),
(420,473,c),
(943,473,l),
(1049,155,ls),
(1053,141,o),
(1054,130,o),
(1056,123,c),
(1056,103.5,o),
(1039.688,98.062,o),
(980.062,96.562,cs),
(960.188,96.062,o),
(935.5,96,o),
(905,96,cs),
(905,96,o),
(906,23,o),
(906,0,c),
(1025,2,o),
(1094,2,o),
(1179,2,cs),
(1257,2,o),
(1330,0,o),
(1404,0,c),
(1404,98,l),
(1260,98,o),
(1264,100,o),
(1216,225,cs),
(1210,241,o),
(809,1290,o),
(810,1290,c),
(579,1290,l),
(539,1174,ls),
(532,1154,o),
(163,191,o),
(155,171,cs),
(128,100,o),
(123,101,o),
(-11,99,c),
(-11,0,l)
);
},
{
closed = 1;
nodes = (
(682,1196,l),
(906,574,l),
(458,574,l)
);
}
);
};
layerId = m001;
shapes = (
{
closed = 1;
nodes = (
(97,2,o),
(156,2,o),
(237,2,cs),
(312,2,o),
(387,0,o),
(461,0,c),
(461,95,l),
(433,95,o),
(409,95,o),
(389,95,cs),
(325,95,o),
(300,97,o),
(300,122,cs),
(300,131,o),
(304,143,o),
(310,158,cs),
(311,162,o),
(418,467,o),
(420,473,c),
(943,473,l),
(1049,155,ls),
(1053,141,o),
(1054,130,o),
(1056,123,c),
(1056,103.5,o),
(1039.688,98.062,o),
(980.062,96.562,cs),
(960.188,96.062,o),
(935.5,96,o),
(905,96,cs),
(905,96,o),
(906,23,o),
(906,0,c),
(1025,2,o),
(1094,2,o),
(1179,2,cs),
(1257,2,o),
(1330,0,o),
(1404,0,c),
(1404,98,l),
(1260,98,o),
(1264,100,o),
(1216,225,cs),
(1210,241,o),
(809,1290,o),
(810,1290,c),
(579,1290,l),
(539,1174,ls),
(532,1154,o),
(163,191,o),
(155,171,cs),
(128,100,o),
(123,101,o),
(-11,99,c),
(-11,0,l)
);
},
{
closed = 1;
nodes = (
(682,1196,l),
(906,574,l),
(458,574,l)
);
}
);
userData = {
org.robofab.postScriptHintData = {
};
};
width = 1383;
},
{
background = {
shapes = (
{
closed = 1;
nodes = (
(92,1,o),
(155,2,o),
(249,2,cs),
(344,2,o),
(425,0,o),
(506,0,c),
(506,164,l),
(496,164,o),
(442,164,o),
(434,165,cs),
(392,166,o),
(375,174,o),
(375,203,cs),
(375,212,o),
(379,228,o),
(385,247,cs),
(390,269,o),
(448,435,o),
(457,463,c),
(918,463,l),
(982,274,ls),
(992,243,o),
(1000,220,o),
(1000,204,cs),
(1000,178,o),
(979,168,o),
(916,166,cs),
(908,165,o),
(874,165,o),
(864,165,c),
(864,0,l),
(991,1,o),
(1097,2,o),
(1211,2,cs),
(1309,2,o),
(1375,0,o),
(1454,0,c),
(1454,177,l),
(1319,180,o),
(1327,199,o),
(1261,382,cs),
(1229,470,o),
(918,1308,o),
(918,1308,c),
(531,1308,l),
(485,1130,l),
(442,1023,o),
(188,370,o),
(146,268,cs),
(113,187,o),
(97,188,o),
(1,178,c),
(1,0,l)
);
},
{
closed = 1;
nodes = (
(693,1119,l),
(872,593,l),
(503,593,l)
);
}
);
};
layerId = "B409784F-46BD-401C-982B-E70BC129B834";
shapes = (
{
closed = 1;
nodes = (
(92,1,o),
(155,2,o),
(249,2,cs),
(344,2,o),
(425,0,o),
(506,0,c),
(506,164,l),
(496,164,o),
(442,164,o),
(434,165,cs),
(392,166,o),
(375,174,o),
(375,203,cs),
(375,212,o),
(379,228,o),
(385,247,cs),
(390,269,o),
(448,435,o),
(457,463,c),
(918,463,l),
(982,274,ls),
(992,243,o),
(1000,220,o),
(1000,204,cs),
(1000,178,o),
(979,168,o),
(916,166,cs),
(908,165,o),
(874,165,o),
(864,165,c),
(864,0,l),
(991,1,o),
(1097,2,o),
(1211,2,cs),
(1309,2,o),
(1375,0,o),
(1454,0,c),
(1454,177,l),
(1319,180,o),
(1327,199,o),
(1261,382,cs),
(1229,470,o),
(918,1308,o),
(918,1308,c),
(531,1308,l),
(485,1130,l),
(442,1023,o),
(188,370,o),
(146,268,cs),
(113,187,o),
(97,188,o),
(1,178,c),
(1,0,l)
);
},
{
closed = 1;
nodes = (
(693,1119,l),
(872,593,l),
(503,593,l)
);
}
);
userData = {
com.typemytype.robofont.layerData = {
};
org.robofab.postScriptHintData = {
};
};
width = 1455;
}
);
unicode = 65;
},
{
glyphname = Aacute;
kernLeft = A;
kernRight = A;
lastChange = "2023-08-04 09:35:09 +0000";
layers = (
{
background = {
shapes = (
{
closed = 1;
nodes = (
(97,2,o),
(156,2,o),
(237,2,cs),
(312,2,o),
(387,0,o),
(461,0,c),
(461,95,l),
(433,95,o),
(409,95,o),
(389,95,cs),
(325,95,o),
(300,97,o),
(300,122,cs),
(300,131,o),
(304,143,o),
(310,158,cs),
(311,162,o),
(418,467,o),
(420,473,c),
(943,473,l),
(1049,155,ls),
(1053,141,o),
(1054,130,o),
(1056,123,c),
(1056,103.5,o),
(1039.688,98.062,o),
(980.062,96.562,cs),
(960.188,96.062,o),
(935.5,96,o),
(905,96,cs),
(905,96,o),
(906,23,o),
(906,0,c),
(1025,2,o),
(1094,2,o),
(1179,2,cs),
(1257,2,o),
(1330,0,o),
(1404,0,c),
(1404,98,l),
(1260,98,o),
(1264,100,o),
(1216,225,cs),
(1210,241,o),
(809,1290,o),
(810,1290,c),
(579,1290,l),
(539,1174,ls),
(532,1154,o),
(163,191,o),
(155,171,cs),
(128,100,o),
(123,101,o),
(-11,99,c),
(-11,0,l)
);
},
{
closed = 1;
nodes = (
(682,1196,l),
(906,574,l),
(458,574,l)
);
},
{
closed = 1;
nodes = (
(582,1424,l),
(865,1686,ls),
(876,1696,o),
(880,1705,o),
(880,1714,cs),
(880,1735,o),
(852,1749,o),
(818,1749,cs),
(769,1749,o),
(718,1709,o),
(685,1666,cs),
(498,1424,l)
);
}
);
};
layerId = m001;
shapes = (
{
alignment = -1;
ref = A;
},
{
alignment = -1;
pos = (228,395);
ref = acute;
}
);
userData = {
org.robofab.postScriptHintData = {
};
};
width = 1383;
},
{
background = {
shapes = (
{
closed = 1;
nodes = (
(92,1,o),
(155,2,o),
(249,2,cs),
(344,2,o),
(425,0,o),
(506,0,c),
(506,164,l),
(496,164,o),
(442,164,o),
(434,165,cs),
(392,166,o),
(375,174,o),
(375,203,cs),
(375,212,o),
(379,228,o),
(385,247,cs),
(390,269,o),
(448,435,o),
(457,463,c),
(918,463,l),
(982,274,ls),
(992,243,o),
(1000,220,o),
(1000,204,cs),
(1000,178,o),
(979,168,o),
(916,166,cs),
(908,165,o),
(874,165,o),
(864,165,c),
(864,0,l),
(991,1,o),
(1097,2,o),
(1211,2,cs),
(1309,2,o),
(1375,0,o),
(1454,0,c),
(1454,177,l),
(1319,180,o),
(1327,199,o),
(1261,382,cs),
(1229,470,o),
(918,1308,o),
(918,1308,c),
(531,1308,l),
(485,1130,l),
(442,1023,o),
(188,370,o),
(146,268,cs),
(113,187,o),
(97,188,o),
(1,178,c),
(1,0,l)
);
},
{
closed = 1;
nodes = (
(693,1119,l),
(872,593,l),
(503,593,l)
);
},
{
closed = 1;
nodes = (
(611,1448,l),
(973,1737,ls),
(990,1753,o),
(901,1805,o),
(819,1805,cs),
(768,1805,o),
(718,1779,o),
(688,1738,cs),
(472,1448,l)
);
}
);
};
layerId = "B409784F-46BD-401C-982B-E70BC129B834";
shapes = (
{
alignment = -1;
ref = A;
},
{
alignment = -1;
pos = (230,400);
ref = acute;
}
);
userData = {
com.typemytype.robofont.layerData = {
};
org.robofab.postScriptHintData = {
};
};
width = 1454;
}
);
unicode = 193;
},
{
glyphname = Acircumflex;
kernLeft = A;
kernRight = A;
lastChange = "2023-08-04 09:35:09 +0000";
layers = (
{
background = {
shapes = (
{
closed = 1;
nodes = (
(97,2,o),
(156,2,o),
(237,2,cs),
(312,2,o),
(387,0,o),
(461,0,c),
(461,95,l),
(433,95,o),
(409,95,o),
(389,95,cs),
(325,95,o),
(300,97,o),
(300,122,cs),
(300,131,o),
(304,143,o),
(310,158,cs),
(311,162,o),
(418,467,o),
(420,473,c),
(943,473,l),
(1049,155,ls),
(1053,141,o),
(1054,130,o),
(1056,123,c),
(1056,103.5,o),
(1039.688,98.062,o),
(980.062,96.562,cs),
(960.188,96.062,o),
(935.5,96,o),
(905,96,cs),
(905,96,o),
(906,23,o),
(906,0,c),
(1025,2,o),
(1094,2,o),
(1179,2,cs),
(1257,2,o),
(1330,0,o),
(1404,0,c),
(1404,98,l),
(1260,98,o),
(1264,100,o),
(1216,225,cs),
(1210,241,o),
(809,1290,o),
(810,1290,c),
(579,1290,l),
(539,1174,ls),
(532,1154,o),
(163,191,o),
(155,171,cs),
(128,100,o),
(123,101,o),
(-11,99,c),
(-11,0,l)
);
},
{
closed = 1;
nodes = (
(682,1196,l),
(906,574,l),
(458,574,l)
);
},
{
closed = 1;
nodes = (
(389,1428,l),
(472,1428,l),
(688,1623,l),
(908,1428,l),
(994,1428,l),
(755,1745,l),
(619,1745,l)
);
}
);
};
layerId = m001;
shapes = (
{
alignment = -1;
ref = A;
},
{
alignment = -1;
pos = (265,395);
ref = circumflex;
}
);
userData = {
org.robofab.postScriptHintData = {
};
};
width = 1383;
},
{
background = {
shapes = (
{
closed = 1;
nodes = (
(92,1,o),
(155,2,o),
(249,2,cs),
(344,2,o),
(425,0,o),
(506,0,c),
(506,164,l),
(496,164,o),
(442,164,o),
(434,165,cs),
(392,166,o),
(375,174,o),
(375,203,cs),
(375,212,o),
(379,228,o),
(385,247,cs),
(390,269,o),
(448,435,o),
(457,463,c),
(918,463,l),
(982,274,ls),
(992,243,o),
(1000,220,o),
(1000,204,cs),
(1000,178,o),
(979,168,o),
(916,166,cs),
(908,165,o),
(874,165,o),
(864,165,c),
(864,0,l),
(991,1,o),
(1097,2,o),
(1211,2,cs),
(1309,2,o),
(1375,0,o),
(1454,0,c),
(1454,177,l),
(1319,180,o),
(1327,199,o),
(1261,382,cs),
(1229,470,o),
(918,1308,o),
(918,1308,c),
(531,1308,l),
(485,1130,l),
(442,1023,o),
(188,370,o),
(146,268,cs),
(113,187,o),
(97,188,o),
(1,178,c),
(1,0,l)
);
},
{
closed = 1;
nodes = (
(693,1119,l),
(872,593,l),
(503,593,l)
);
},
{
closed = 1;
nodes = (
(379,1453,l),
(531,1453,l),
(727,1618,l),
(921,1453,l),
(1075,1453,l),
(854,1790,l),
(598,1790,l)
);
}
);
};
layerId = "B409784F-46BD-401C-982B-E70BC129B834";
shapes = (
{
alignment = -1;
ref = A;
},
{
alignment = -1;
pos = (301,400);
ref = circumflex;
}
);
userData = {
com.typemytype.robofont.layerData = {
};
org.robofab.postScriptHintData = {
};
};
width = 1454;
}
);
unicode = 194;
},
{
glyphname = Adblgrave;
kernLeft = A;
kernRight = A;
lastChange = "2023-08-04 09:36:57 +0000";
layers = (
{
background = {
shapes = (
{
closed = 1;
nodes = (
(97,2,o),
(156,2,o),
(237,2,cs),
(312,2,o),
(387,0,o),
(461,0,c),
(461,95,l),
(433,95,o),
(409,95,o),
(389,95,cs),
(325,95,o),
(300,97,o),
(300,122,cs),
(300,131,o),
(304,143,o),
(310,158,cs),
(311,162,o),
(418,467,o),
(420,473,c),
(943,473,l),
(1049,155,ls),
(1053,141,o),
(1054,130,o),
(1056,123,c),
(1056,103.5,o),
(1039.688,98.062,o),
(980.062,96.562,cs),
(960.188,96.062,o),
(935.5,96,o),
(905,96,cs),
(905,96,o),
(906,23,o),
(906,0,c),
(1025,2,o),
(1094,2,o),
(1179,2,cs),
(1257,2,o),
(1330,0,o),
(1404,0,c),
(1404,98,l),
(1260,98,o),
(1264,100,o),
(1216,225,cs),
(1210,241,o),
(809,1290,o),
(810,1290,c),
(579,1290,l),
(539,1174,ls),
(532,1154,o),
(163,191,o),
(155,171,cs),
(128,100,o),
(123,101,o),
(-11,99,c),
(-11,0,l)
);
},
{
closed = 1;
nodes = (
(682,1196,l),
(906,574,l),
(458,574,l)
);
},
{
closed = 1;
nodes = (
(650,1424,l),
(442,1671,l),
(417,1696,o),
(396,1724,o),
(396,1745,cs),
(396,1772,o),
(426,1787,o),
(454,1787,cs),
(491,1787,o),
(536,1769,o),
(562,1722,cs),
(729,1424,l)
);
},
{
closed = 1;
nodes = (
(908,1424,l),
(695,1672,l),
(670,1697,o),
(650,1723,o),
(650,1745,cs),
(650,1772,o),
(680,1787,o),
(708,1787,cs),
(743,1787,o),
(783,1771,o),
(813,1729,c),
(986,1424,l)
);
}
);
};
layerId = m001;
shapes = (
{
ref = A;
},
{
pos = (183,395);
ref = dblgravecomb;
}
);
width = 1383;
},
{
layerId = "B409784F-46BD-401C-982B-E70BC129B834";
width = 600;
}
);
unicode = 512;
},
{
glyphname = Adieresis;
kernLeft = A;
kernRight = A;
lastChange = "2023-08-04 09:35:09 +0000";
layers = (
{
background = {
shapes = (
{
closed = 1;
nodes = (
(97,2,o),
(156,2,o),
(237,2,cs),
(312,2,o),
(387,0,o),
(461,0,c),
(461,95,l),
(433,95,o),
(409,95,o),
(389,95,cs),
(325,95,o),
(300,97,o),
(300,122,cs),
(300,131,o),
(304,143,o),
(310,158,cs),
(311,162,o),
(418,467,o),
(420,473,c),
(943,473,l),
(1049,155,ls),
(1053,141,o),
(1054,130,o),
(1056,123,c),
(1056,103.5,o),
(1039.688,98.062,o),
(980.062,96.562,cs),
(960.188,96.062,o),
(935.5,96,o),
(905,96,cs),
(905,96,o),
(906,23,o),
(906,0,c),
(1025,2,o),
(1094,2,o),
(1179,2,cs),
(1257,2,o),
(1330,0,o),
(1404,0,c),
(1404,98,l),
(1260,98,o),
(1264,100,o),
(1216,225,cs),
(1210,241,o),
(809,1290,o),
(810,1290,c),
(579,1290,l),
(539,1174,ls),
(532,1154,o),
(163,191,o),
(155,171,cs),
(128,100,o),
(123,101,o),
(-11,99,c),
(-11,0,l)
);
},
{
closed = 1;
nodes = (
(682,1196,l),
(906,574,l),
(458,574,l)
);
},
{
closed = 1;
nodes = (
(449,1669,o),
(413,1634,o),
(413,1581,cs),
(413,1528,o),
(449,1491,o),
(504,1491,cs),
(561,1491,o),
(596,1527,o),
(596,1580,cs),
(596,1635,o),
(561,1669,o),
(505,1669,cs)
);
},
{
closed = 1;
nodes = (
(822,1669,o),
(786,1634,o),
(786,1581,cs),
(786,1528,o),
(822,1491,o),
(877,1491,cs),
(934,1491,o),
(970,1527,o),
(970,1580,cs),
(970,1634,o),
(934,1669,o),
(878,1669,cs)
);
}
);
};
layerId = m001;
shapes = (
{
alignment = -1;
ref = A;
},
{
alignment = -1;
pos = (265,395);
ref = dieresis;
}
);
userData = {
org.robofab.postScriptHintData = {
};
};
width = 1383;
},
{
background = {
shapes = (
{
closed = 1;
nodes = (
(92,1,o),
(155,2,o),
(249,2,cs),
(344,2,o),
(425,0,o),
(506,0,c),
(506,164,l),
(496,164,o),
(442,164,o),
(434,165,cs),
(392,166,o),
(375,174,o),
(375,203,cs),
(375,212,o),
(379,228,o),
(385,247,cs),
(390,269,o),
(448,435,o),
(457,463,c),
(918,463,l),
(982,274,ls),
(992,243,o),
(1000,220,o),
(1000,204,cs),
(1000,178,o),
(979,168,o),
(916,166,cs),
(908,165,o),
(874,165,o),
(864,165,c),
(864,0,l),
(991,1,o),
(1097,2,o),
(1211,2,cs),
(1309,2,o),
(1375,0,o),
(1454,0,c),
(1454,177,l),
(1319,180,o),
(1327,199,o),
(1261,382,cs),
(1229,470,o),
(918,1308,o),
(918,1308,c),
(531,1308,l),
(485,1130,l),
(442,1023,o),
(188,370,o),
(146,268,cs),
(113,187,o),
(97,188,o),
(1,178,c),
(1,0,l)
);
},
{
closed = 1;
nodes = (
(693,1119,l),
(872,593,l),
(503,593,l)
);
},
{
closed = 1;
nodes = (
(425,1759,o),
(368,1704,o),
(368,1631,cs),
(368,1557,o),
(423,1502,o),
(499,1502,cs),
(574,1502,o),
(629,1556,o),
(629,1631,cs),
(629,1705,o),
(573,1759,o),
(500,1759,cs)
);
},
{
closed = 1;
nodes = (
(882,1759,o),
(825,1703,o),
(825,1631,cs),
(825,1558,o),
(880,1502,o),
(956,1502,cs),
(1031,1502,o),
(1085,1557,o),
(1085,1631,cs),
(1085,1704,o),
(1030,1759,o),
(956,1759,cs)
);
}
);
};
layerId = "B409784F-46BD-401C-982B-E70BC129B834";
shapes = (
{
alignment = -1;
ref = A;
},
{
alignment = -1;
pos = (300,400);
ref = dieresis;
}
);
userData = {
com.typemytype.robofont.layerData = {
};
org.robofab.postScriptHintData = {
};
};
width = 1454;
}
);
unicode = 196;
},
{
glyphname = Agrave;
kernLeft = A;
kernRight = A;
lastChange = "2023-08-04 09:35:09 +0000";
layers = (
{
background = {
shapes = (
{
closed = 1;
nodes = (
(97,2,o),
(156,2,o),
(237,2,cs),
(312,2,o),
(387,0,o),
(461,0,c),
(461,95,l),
(433,95,o),
(409,95,o),
(389,95,cs),
(325,95,o),
(300,97,o),
(300,122,cs),
(300,131,o),
(304,143,o),
(310,158,cs),
(311,162,o),
(418,467,o),
(420,473,c),
(943,473,l),
(1049,155,ls),
(1053,141,o),
(1054,130,o),
(1056,123,c),
(1056,103.5,o),
(1039.688,98.062,o),
(980.062,96.562,cs),
(960.188,96.062,o),
(935.5,96,o),
(905,96,cs),
(905,96,o),
(906,23,o),
(906,0,c),
(1025,2,o),
(1094,2,o),
(1179,2,cs),
(1257,2,o),
(1330,0,o),
(1404,0,c),
(1404,98,l),
(1260,98,o),
(1264,100,o),
(1216,225,cs),
(1210,241,o),
(809,1290,o),
(810,1290,c),
(579,1290,l),
(539,1174,ls),
(532,1154,o),
(163,191,o),
(155,171,cs),
(128,100,o),
(123,101,o),
(-11,99,c),
(-11,0,l)
);
},
{
closed = 1;
nodes = (
(682,1196,l),
(906,574,l),
(458,574,l)
);
},
{
closed = 1;
nodes = (
(644,1744,o),
(604,1757,o),
(568,1757,cs),
(528,1757,o),
(494,1740,o),
(494,1719,c),
(501,1643,o),
(716,1504,o),
(806,1424,c),
(889,1424,l),
(659,1725,ls)
);
}
);
};
layerId = m001;
shapes = (
{
alignment = -1;
ref = A;
},
{
alignment = -1;
pos = (307,395);
ref = grave;
}
);
userData = {
org.robofab.postScriptHintData = {
};
};
width = 1383;
},
{
background = {
shapes = (
{
closed = 1;
nodes = (
(92,1,o),
(155,2,o),
(249,2,cs),
(344,2,o),
(425,0,o),
(506,0,c),
(506,164,l),
(496,164,o),
(442,164,o),
(434,165,cs),
(392,166,o),
(375,174,o),
(375,203,cs),
(375,212,o),
(379,228,o),
(385,247,cs),
(390,269,o),
(448,435,o),
(457,463,c),
(918,463,l),
(982,274,ls),
(992,243,o),
(1000,220,o),
(1000,204,cs),
(1000,178,o),
(979,168,o),
(916,166,cs),
(908,165,o),
(874,165,o),
(864,165,c),
(864,0,l),
(991,1,o),
(1097,2,o),
(1211,2,cs),
(1309,2,o),
(1375,0,o),
(1454,0,c),
(1454,177,l),
(1319,180,o),
(1327,199,o),
(1261,382,cs),
(1229,470,o),
(918,1308,o),
(918,1308,c),
(531,1308,l),
(485,1130,l),
(442,1023,o),
(188,370,o),
(146,268,cs),
(113,187,o),
(97,188,o),
(1,178,c),
(1,0,l)
);
},
{
closed = 1;
nodes = (
(693,1119,l),
(872,593,l),
(503,593,l)
);
},
{
closed = 1;
nodes = (
(726,1795,o),
(681,1808,o),
(636,1808,cs),
(557,1808,o),
(470,1762,o),
(470,1752,c),
(473,1717,o),
(804,1485,o),
(845,1448,c),
(984,1448,l),
(748,1765,l)
);
}
);
};
layerId = "B409784F-46BD-401C-982B-E70BC129B834";
shapes = (
{
alignment = -1;
ref = A;
},
{
alignment = -1;
pos = (373,400);
ref = grave;
}
);
userData = {
com.typemytype.robofont.layerData = {
};
org.robofab.postScriptHintData = {
};
};
width = 1454;
}
);
unicode = 192;
},
{
glyphname = Ainvertedbreve;
kernLeft = A;
kernRight = A;
lastChange = "2023-08-04 09:36:57 +0000";
layers = (
{
background = {
shapes = (
{
closed = 1;
nodes = (
(97,2,o),
(156,2,o),
(237,2,cs),
(312,2,o),
(387,0,o),
(461,0,c),
(461,95,l),
(433,95,o),
(409,95,o),
(389,95,cs),
(325,95,o),
(300,97,o),
(300,122,cs),
(300,131,o),
(304,143,o),
(310,158,cs),
(311,162,o),
(418,467,o),
(420,473,c),
(943,473,l),
(1049,155,ls),
(1053,141,o),
(1054,130,o),
(1056,123,c),
(1056,103.5,o),
(1039.688,98.062,o),
(980.062,96.562,cs),
(960.188,96.062,o),
(935.5,96,o),
(905,96,cs),
(905,96,o),
(906,23,o),
(906,0,c),
(1025,2,o),
(1094,2,o),
(1179,2,cs),
(1257,2,o),
(1330,0,o),
(1404,0,c),
(1404,98,l),
(1260,98,o),
(1264,100,o),
(1216,225,cs),
(1210,241,o),
(809,1290,o),
(810,1290,c),
(579,1290,l),
(539,1174,ls),
(532,1154,o),
(163,191,o),
(155,171,cs),
(128,100,o),
(123,101,o),
(-11,99,c),
(-11,0,l)
);
},
{
closed = 1;
nodes = (
(682,1196,l),
(906,574,l),
(458,574,l)
);
},
{
closed = 1;
nodes = (
(420,1615,o),
(537,1711,o),
(691,1711,cs),
(847,1711,o),
(962,1615,o),
(996,1455,c),
(916,1455,l),
(882,1549,o),
(811,1593,o),
(693,1593,cs),
(573,1593,o),
(499,1549,o),
(466,1455,c),
(386,1455,l)
);
}
);
};
layerId = m001;
shapes = (
{
ref = A;
},
{
pos = (265,395);
ref = breveinvertedcomb;
}
);
width = 1383;
},
{
layerId = "B409784F-46BD-401C-982B-E70BC129B834";
width = 600;
}
);
unicode = 514;
},
{
glyphname = Aring;
kernLeft = A;
kernRight = A;
lastChange = "2023-08-04 09:35:09 +0000";
layers = (
{
background = {
shapes = (
{
closed = 1;
nodes = (
(97,2,o),
(156,2,o),
(237,2,cs),
(312,2,o),
(387,0,o),
(461,0,c),
(461,95,l),
(433,95,o),
(409,95,o),
(389,95,cs),
(325,95,o),
(300,97,o),
(300,122,cs),
(300,131,o),
(304,143,o),
(310,158,cs),
(311,162,o),
(418,467,o),
(420,473,c),
(943,473,l),
(1049,155,ls),
(1053,141,o),
(1054,130,o),
(1056,123,c),
(1056,103.5,o),
(1039.688,98.062,o),
(980.062,96.562,cs),
(960.188,96.062,o),
(935.5,96,o),
(905,96,cs),
(905,96,o),
(906,23,o),
(906,0,c),
(1025,2,o),
(1094,2,o),
(1179,2,cs),
(1257,2,o),
(1330,0,o),
(1404,0,c),
(1404,98,l),
(1260,98,o),
(1264,100,o),
(1216,225,cs),
(1210,241,o),
(809,1290,o),
(810,1290,c),
(579,1290,l),
(539,1174,ls),
(532,1154,o),
(163,191,o),
(155,171,cs),
(128,100,o),
(123,101,o),
(-11,99,c),
(-11,0,l)
);
},
{
closed = 1;
nodes = (
(682,1196,l),
(906,574,l),
(458,574,l)
);
},
{
closed = 1;
nodes = (
(765,1740,o),
(825,1682,o),
(825,1611,cs),
(825,1537,o),
(765,1479,o),
(691,1479,cs),
(615,1479,o),
(558,1537,o),
(558,1611,cs),
(558,1682,o),
(616,1740,o),
(691,1740,cs)
);
},
{
closed = 1;
nodes = (
(570,1823,o),
(473,1730,o),
(473,1611,cs),
(473,1490,o),
(569,1396,o),
(691,1396,cs),
(812,1396,o),
(910,1490,o),
(910,1611,cs),
(910,1729,o),
(813,1823,o),
(691,1823,cs)
);
}
);
};
layerId = m001;
shapes = (
{
alignment = -1;
ref = A;
},
{
alignment = -1;
pos = (265,395);
ref = ring;
}
);
userData = {
org.robofab.postScriptHintData = {
};
};
width = 1383;
},
{
background = {
shapes = (
{
closed = 1;
nodes = (
(92,1,o),
(155,2,o),
(249,2,cs),
(344,2,o),
(425,0,o),
(506,0,c),
(506,164,l),
(496,164,o),
(442,164,o),
(434,165,cs),
(392,166,o),
(375,174,o),
(375,203,cs),
(375,212,o),
(379,228,o),
(385,247,cs),
(390,269,o),
(448,435,o),
(457,463,c),
(918,463,l),
(982,274,ls),
(992,243,o),
(1000,220,o),
(1000,204,cs),
(1000,178,o),
(979,168,o),
(916,166,cs),
(908,165,o),
(874,165,o),
(864,165,c),
(864,0,l),
(991,1,o),
(1097,2,o),
(1211,2,cs),
(1309,2,o),
(1375,0,o),
(1454,0,c),
(1454,177,l),
(1319,180,o),
(1327,199,o),
(1261,382,cs),
(1229,470,o),
(918,1308,o),
(918,1308,c),
(531,1308,l),
(485,1130,l),
(442,1023,o),
(188,370,o),
(146,268,cs),
(113,187,o),
(97,188,o),
(1,178,c),
(1,0,l)
);
},
{
closed = 1;
nodes = (
(693,1119,l),
(872,593,l),
(503,593,l)
);
},
{
closed = 1;
nodes = (
(794,1778,o),
(850,1723,o),
(850,1656,cs),
(850,1587,o),
(795,1532,o),
(726,1532,cs),
(656,1532,o),
(601,1586,o),
(601,1656,cs),
(601,1722,o),
(656,1778,o),
(726,1778,cs)
);
},
{
closed = 1;
nodes = (
(593,1880,o),
(488,1781,o),
(488,1656,cs),
(488,1531,o),
(592,1429,o),
(726,1429,cs),
(856,1429,o),
(964,1528,o),
(964,1656,cs),
(964,1778,o),
(859,1880,o),
(726,1880,cs)
);
}
);
};
layerId = "B409784F-46BD-401C-982B-E70BC129B834";
shapes = (
{
alignment = -1;
ref = A;
},
{
alignment = -1;
pos = (300,400);
ref = ring;
}
);
userData = {
com.typemytype.robofont.layerData = {
};
org.robofab.postScriptHintData = {
};
};
width = 1454;
}
);
unicode = 197;
},
{
glyphname = Atilde;
kernLeft = A;
kernRight = A;
lastChange = "2023-08-04 09:35:09 +0000";
layers = (
{
background = {
shapes = (
{
closed = 1;
nodes = (
(97,2,o),
(156,2,o),
(237,2,cs),
(312,2,o),
(387,0,o),
(461,0,c),
(461,95,l),
(433,95,o),
(409,95,o),
(389,95,cs),
(325,95,o),
(300,97,o),
(300,122,cs),
(300,131,o),
(304,143,o),
(310,158,cs),
(311,162,o),
(418,467,o),
(420,473,c),
(943,473,l),
(1049,155,ls),
(1053,141,o),
(1054,130,o),
(1056,123,c),
(1056,103.5,o),
(1039.688,98.062,o),
(980.062,96.562,cs),
(960.188,96.062,o),
(935.5,96,o),
(905,96,cs),
(905,96,o),
(906,23,o),
(906,0,c),
(1025,2,o),
(1094,2,o),
(1179,2,cs),
(1257,2,o),
(1330,0,o),
(1404,0,c),
(1404,98,l),
(1260,98,o),
(1264,100,o),
(1216,225,cs),
(1210,241,o),
(809,1290,o),
(810,1290,c),
(579,1290,l),
(539,1174,ls),
(532,1154,o),
(163,191,o),
(155,171,cs),
(128,100,o),
(123,101,o),
(-11,99,c),
(-11,0,l)
);
},
{
closed = 1;
nodes = (
(682,1196,l),
(906,574,l),
(458,574,l)
);
},
{
closed = 1;
nodes = (
(922,1630,o),
(889,1602,o),
(839,1602,cs),
(755,1602,o),
(656,1676,o),
(567,1676,cs),
(470,1676,o),
(406,1607,o),
(375,1474,c),
(441,1474,l),
(462,1536,o),
(494,1564,o),
(546,1564,cs),
(621,1564,o),
(726,1491,o),
(812,1491,cs),
(912,1491,o),
(984,1564,o),
(1009,1690,c),
(944,1690,l)
);
}
);
};
layerId = m001;
shapes = (
{
alignment = -1;
ref = A;
},
{
alignment = -1;
pos = (266,395);
ref = tilde;
}
);
userData = {
org.robofab.postScriptHintData = {
};
};
width = 1383;
},
{
background = {
shapes = (
{
closed = 1;
nodes = (
(92,1,o),
(155,2,o),
(249,2,cs),
(344,2,o),
(425,0,o),
(506,0,c),
(506,164,l),
(496,164,o),
(442,164,o),
(434,165,cs),
(392,166,o),
(375,174,o),
(375,203,cs),
(375,212,o),
(379,228,o),
(385,247,cs),
(390,269,o),
(448,435,o),
(457,463,c),
(918,463,l),
(982,274,ls),
(992,243,o),
(1000,220,o),
(1000,204,cs),
(1000,178,o),
(979,168,o),
(916,166,cs),
(908,165,o),
(874,165,o),
(864,165,c),
(864,0,l),
(991,1,o),
(1097,2,o),
(1211,2,cs),
(1309,2,o),
(1375,0,o),
(1454,0,c),
(1454,177,l),
(1319,180,o),
(1327,199,o),
(1261,382,cs),
(1229,470,o),
(918,1308,o),
(918,1308,c),
(531,1308,l),
(485,1130,l),
(442,1023,o),
(188,370,o),
(146,268,cs),
(113,187,o),
(97,188,o),
(1,178,c),
(1,0,l)
);
},
{
closed = 1;
nodes = (
(693,1119,l),
(872,593,l),
(503,593,l)
);
},
{
closed = 1;
nodes = (
(938,1699,o),
(912,1675,o),
(863,1675,cs),
(781,1675,o),
(698,1739,o),
(606,1739,cs),
(480,1739,o),
(404,1650,o),
(377,1481,c),
(495,1481,l),
(514,1534,o),
(544,1567,o),
(595,1567,cs),
(671,1567,o),
(754,1502,o),
(847,1502,cs),
(975,1502,o),
(1056,1599,o),
(1076,1759,c),
(959,1759,l)
);
}
);
};
layerId = "B409784F-46BD-401C-982B-E70BC129B834";
shapes = (
{
alignment = -1;
ref = A;
},
{
alignment = -1;
pos = (301,400);
ref = tilde;
}
);
userData = {
com.typemytype.robofont.layerData = {
};
org.robofab.postScriptHintData = {
};
};
width = 1454;
}
);
unicode = 195;
},
{
glyphname = AE;
lastChange = "2023-08-04 09:34:56 +0000";
layers = (
{
background = {
shapes = (
{
closed = 1;
nodes = (
(40,108,o),
(37,99,o),
(-78,99,c),
(-78,0,l),
(29,2,o),
(93,2,o),
(171,2,cs),
(234,2,o),
(286,2,o),
(378,0,c),
(378,99,l),
(321,99,ls),
(252,99,o),
(229,109,o),
(229,134,cs),
(229,154,o),
(246,181,o),
(269,221,cs),
(451,537,l),
(903,537,l),
(903,154,ls),
(903,124,o),
(902,99,o),
(763,99,cs),
(699,99,l),
(699,0,l),
(1807,0,l),
(1807,348,l),
(1695,348,l),
(1695,130,o),
(1691,114,o),
(1641,114,cs),
(1085,114,l),
(1085,611,l),
(1428,611,ls),
(1456,611,o),
(1478,611,o),
(1478,526,c),
(1558,526,l),
(1558,797,l),
(1478,797,l),
(1478,713,o),
(1457,713,o),
(1433,713,cs),
(1085,713,l),
(1085,1180,l),
(1619,1180,ls),
(1671,1180,o),
(1690,1180,o),
(1690,1011,cs),
(1690,962,l),
(1804,962,l),
(1804,1290,l),
(761,1290,l),
(623,1070,l),
(123,244,ls)
);
},
{
closed = 1;
nodes = (
(902,1183,l),
(902,642,l),
(511,642,l),
(835,1183,l)
);
}
);
};
layerId = m001;
shapes = (
{
closed = 1;
nodes = (
(40,108,o),
(37,99,o),
(-78,99,c),
(-78,0,l),
(29,2,o),
(93,2,o),
(171,2,cs),
(234,2,o),
(286,2,o),
(378,0,c),
(378,99,l),
(321,99,ls),
(252,99,o),
(229,109,o),
(229,134,cs),
(229,154,o),
(246,181,o),
(269,221,cs),
(451,537,l),
(903,537,l),
(903,154,ls),
(903,124,o),
(902,99,o),
(763,99,cs),
(699,99,l),
(699,0,l),
(1807,0,l),
(1807,348,l),
(1695,348,l),
(1695,130,o),
(1691,114,o),
(1641,114,cs),
(1085,114,l),
(1085,611,l),
(1428,611,ls),
(1456,611,o),
(1478,611,o),
(1478,526,c),
(1558,526,l),
(1558,797,l),
(1478,797,l),
(1478,713,o),
(1457,713,o),
(1433,713,cs),
(1085,713,l),
(1085,1180,l),
(1619,1180,ls),
(1671,1180,o),
(1690,1180,o),
(1690,1011,cs),
(1690,962,l),
(1804,962,l),
(1804,1290,l),
(761,1290,l),
(623,1070,l),
(123,244,ls)
);
},
{
closed = 1;
nodes = (
(902,1183,l),
(902,642,l),
(511,642,l),
(835,1183,l)
);
}
);
userData = {
org.robofab.postScriptHintData = {
};
};
width = 1897;
},
{
background = {
shapes = (
{
closed = 1;
nodes = (
(62,219,o),
(47,178,o),
(-61,178,c),
(-61,0,l),
(38,1,o),
(109,2,o),
(213,2,cs),
(300,2,o),
(371,1,o),
(457,0,c),
(457,178,l),
(400,178,ls),
(337,178,o),
(309,183,o),
(309,207,cs),
(309,227,o),
(327,260,o),
(359,314,cs),
(472,508,l),
(906,508,l),
(906,233,ls),
(906,203,o),
(904,178,o),
(791,178,cs),
(747,178,l),
(747,0,l),
(1912,0,l),
(1912,386,l),
(1718,386,l),
(1718,204,o),
(1708,197,o),
(1661,197,cs),
(1234,197,l),
(1234,583,l),
(1485,583,ls),
(1513,583,o),
(1531,583,o),
(1531,501,c),
(1613,501,l),
(1613,832,l),
(1531,832,l),
(1531,749,o),
(1509,749,o),
(1484,749,cs),
(1234,749,l),
(1234,1112,l),
(1651,1112,ls),
(1691,1112,o),
(1712,1111,o),
(1712,987,cs),
(1712,942,l),
(1908,942,l),
(1908,1308,l),
(714,1308,l),
(598,1117,l),
(133,339,l)
);
},
{
closed = 1;
nodes = (
(902,1130,l),
(902,673,l),
(559,673,l),
(826,1130,l)
);
}
);
};
layerId = "B409784F-46BD-401C-982B-E70BC129B834";
shapes = (
{
closed = 1;
nodes = (
(62,219,o),
(47,178,o),
(-61,178,c),
(-61,0,l),
(38,1,o),
(109,2,o),
(213,2,cs),
(300,2,o),
(371,1,o),
(457,0,c),
(457,178,l),
(400,178,ls),
(337,178,o),
(309,183,o),
(309,207,cs),
(309,227,o),
(327,260,o),
(359,314,cs),
(472,508,l),
(906,508,l),
(906,233,ls),
(906,203,o),
(904,178,o),
(791,178,cs),
(747,178,l),
(747,0,l),
(1912,0,l),
(1912,386,l),
(1718,386,l),
(1718,204,o),
(1708,197,o),
(1661,197,cs),
(1234,197,l),
(1234,583,l),
(1485,583,ls),
(1513,583,o),
(1531,583,o),
(1531,501,c),
(1613,501,l),
(1613,832,l),
(1531,832,l),
(1531,749,o),
(1509,749,o),
(1484,749,cs),
(1234,749,l),
(1234,1112,l),
(1651,1112,ls),
(1691,1112,o),
(1712,1111,o),
(1712,987,cs),
(1712,942,l),
(1908,942,l),
(1908,1308,l),
(714,1308,l),
(598,1117,l),
(133,339,l)
);
},
{
closed = 1;
nodes = (
(902,1130,l),
(902,673,l),
(559,673,l),
(826,1130,l)
);
}
);
userData = {
org.robofab.postScriptHintData = {
};
};
width = 2010;
}
);
unicode = 198;
},
{
glyphname = B;
lastChange = "2023-08-04 09:34:56 +0000";
layers = (
{
background = {
shapes = (
{
closed = 1;
nodes = (
(58,1191,l),
(83.614,1191,o),
(105.431,1190.671,o),
(124.011,1189.9,cs),
(222.222,1185.826,o),
(230,1169.409,o),
(230,1124,cs),
(230,173,ls),
(230,130,o),
(230,99,o),
(121,99,cs),
(58,99,l),
(58,0,l),
(654,0,ls),
(1026,0,o),
(1143,160,o),
(1143,355,cs),
(1143,525,o),
(1045,635,o),
(856,677,c),
(1009,725,o),
(1086,822,o),
(1086,965,cs),
(1086,1175,o),
(960,1290,o),
(578,1290,cs),
(58,1290,l)
);
},
{
closed = 1;
nodes = (
(553,619,ls),
(839,619,o),
(957,540,o),
(957,356,cs),
(957,203,o),
(852,109,o),
(624,109,cs),
(412,109,l),
(412,619,l)
);
},
{
closed = 1;
nodes = (
(602,1182,ls),
(827,1182,o),
(907,1082,o),
(907,954,cs),
(907,810,o),
(804,718,o),
(614,718,cs),
(412,718,l),
(412,1182,l)
);
}
);
};
layerId = m001;
shapes = (
{
closed = 1;
nodes = (
(58,1191,l),
(83.614,1191,o),
(105.431,1190.671,o),
(124.011,1189.9,cs),
(222.222,1185.826,o),
(230,1169.409,o),
(230,1124,cs),
(230,173,ls),
(230,130,o),
(230,99,o),
(121,99,cs),
(58,99,l),
(58,0,l),
(654,0,ls),
(1026,0,o),
(1143,160,o),
(1143,355,cs),
(1143,525,o),
(1045,635,o),
(856,677,c),
(1009,725,o),
(1086,822,o),
(1086,965,cs),
(1086,1175,o),
(960,1290,o),
(578,1290,cs),
(58,1290,l)
);
},
{
closed = 1;
nodes = (
(553,619,ls),
(839,619,o),
(957,540,o),
(957,356,cs),
(957,203,o),
(852,109,o),
(624,109,cs),
(412,109,l),
(412,619,l)
);
},
{
closed = 1;
nodes = (
(602,1182,ls),
(827,1182,o),
(907,1082,o),
(907,954,cs),
(907,810,o),
(804,718,o),
(614,718,cs),
(412,718,l),
(412,1182,l)
);
}
);
userData = {
org.robofab.postScriptHintData = {
};
};
width = 1238;
},
{
background = {
shapes = (
{
closed = 1;
nodes = (
(73,1130,l),
(86,1130,o),
(122,1130,o),
(131,1129,cs),
(219,1128,o),
(220,1061,o),
(220,1011,cs),
(220,274,ls),
(220,213,o),
(216,178,o),
(125,178,cs),
(73,178,l),
(73,0,l),
(781,0,ls),
(1203,0,o),
(1337,151,o),
(1337,362,cs),
(1337,534,o),
(1227,651,o),
(1041,689,c),
(1198,721,o),
(1285,841,o),
(1285,975,cs),
(1285,1188,o),
(1153,1308,o),
(711,1308,cs),
(73,1308,l)
);
},
{
closed = 1;
nodes = (
(656,595,ls),
(900,595,o),
(992,531,o),
(992,382,cs),
(992,247,o),
(895,182,o),
(711,182,cs),
(546,182,l),
(546,595,l)
);
},
{
closed = 1;
nodes = (
(696,1125,ls),
(882,1125,o),
(955,1057,o),
(955,938,cs),
(955,810,o),
(872,745,o),
(706,745,cs),
(546,745,l),
(546,1125,l)
);
}
);
};
layerId = "B409784F-46BD-401C-982B-E70BC129B834";
shapes = (
{
closed = 1;
nodes = (
(73,1130,l),
(86,1130,o),
(122,1130,o),
(131,1129,cs),
(219,1128,o),
(220,1061,o),
(220,1011,cs),
(220,274,ls),
(220,213,o),
(216,178,o),
(125,178,cs),
(73,178,l),
(73,0,l),
(781,0,ls),
(1203,0,o),
(1337,151,o),
(1337,362,cs),
(1337,534,o),
(1227,651,o),
(1041,689,c),
(1198,721,o),
(1285,841,o),
(1285,975,cs),
(1285,1188,o),
(1153,1308,o),
(711,1308,cs),
(73,1308,l)
);
},
{
closed = 1;
nodes = (
(656,595,ls),
(900,595,o),
(992,531,o),
(992,382,cs),
(992,247,o),
(895,182,o),
(711,182,cs),
(546,182,l),
(546,595,l)
);
},
{
closed = 1;
nodes = (
(696,1125,ls),
(882,1125,o),
(955,1057,o),
(955,938,cs),
(955,810,o),
(872,745,o),
(706,745,cs),
(546,745,l),
(546,1125,l)
);
}
);
userData = {
org.robofab.postScriptHintData = {
};
};
width = 1421;
}
);
unicode = 66;
},
{
glyphname = C;
kernLeft = C;
kernRight = C;
lastChange = "2023-08-04 09:34:56 +0000";
layers = (
{
background = {
shapes = (
{
closed = 1;
nodes = (
(499,91,o),
(312,302,o),
(312,647,cs),
(312,987,o),
(500,1201,o),
(792,1201,cs),
(1018,1201,o),
(1167,1081,o),
(1184,896,c),
(1300,896,l),
(1300,1289,l),
(1185,1289,l),
(1164,1145,l),
(1063,1262,o),
(927,1314,o),
(777,1314,cs),
(383,1314,o),
(116,1050,o),
(116,643,cs),
(116,242,o),
(366,-24,o),
(797,-24,cs),
(984,-24,o),
(1157,14,o),
(1318,152,c),
(1328,411,l),
(1212,431,l),
(1209,170,o),
(1067,91,o),
(792,91,cs)
);
}
);
};
layerId = m001;
shapes = (
{
closed = 1;
nodes = (
(499,91,o),
(312,302,o),
(312,647,cs),
(312,987,o),
(500,1201,o),
(792,1201,cs),
(1018,1201,o),
(1167,1081,o),
(1184,896,c),
(1300,896,l),
(1300,1289,l),
(1185,1289,l),
(1164,1145,l),
(1063,1262,o),
(927,1314,o),
(777,1314,cs),
(383,1314,o),
(116,1050,o),
(116,643,cs),
(116,242,o),
(366,-24,o),
(797,-24,cs),
(984,-24,o),
(1157,14,o),
(1318,152,c),
(1328,411,l),
(1212,431,l),
(1209,170,o),
(1067,91,o),
(792,91,cs)
);
}
);
userData = {
com.typemytype.robofont.layerData = {
b = {
anchors = (
);
components = (
);
contours = (
);
lib = {
};
name = C;
unicodes = (
);
width = 1413;
};
};
org.robofab.postScriptHintData = {
};
};
width = 1413;
},
{
background = {
shapes = (
{
closed = 1;
nodes = (
(606,168,o),
(470,348,o),
(470,657,cs),
(470,973,o),
(606,1139,o),
(832,1139,cs),
(1017,1139,o),
(1118,1047,o),
(1128,896,c),
(1333,895,l),
(1333,1305,l),
(1111,1305,l),
(1106,1219,l),
(1035,1289,o),
(892,1333,o),
(768,1333,cs),
(358,1333,o),
(109,1052,o),
(109,654,cs),
(109,275,o),
(315,-26,o),
(801,-26,cs),
(1006,-26,o),
(1184,19,o),
(1340,124,c),
(1355,428,l),
(1151,472,l),
(1140,248,o),
(1039,168,o),
(835,168,cs)
);
}
);
};
layerId = "B409784F-46BD-401C-982B-E70BC129B834";
shapes = (
{
closed = 1;
nodes = (
(606,168,o),
(470,348,o),
(470,657,cs),
(470,973,o),
(606,1139,o),
(832,1139,cs),
(1017,1139,o),
(1118,1047,o),
(1128,896,c),
(1333,895,l),
(1333,1305,l),
(1111,1305,l),
(1106,1219,l),
(1035,1289,o),
(892,1333,o),
(768,1333,cs),
(358,1333,o),
(109,1052,o),
(109,654,cs),
(109,275,o),
(315,-26,o),
(801,-26,cs),
(1006,-26,o),
(1184,19,o),
(1340,124,c),
(1355,428,l),
(1151,472,l),
(1140,248,o),
(1039,168,o),
(835,168,cs)
);
}
);
userData = {
org.robofab.postScriptHintData = {
};
};
width = 1446;
}
);
unicode = 67;
},
{
glyphname = Ccedilla;
kernLeft = C;
kernRight = C;
lastChange = "2023-08-04 09:35:09 +0000";
layers = (
{
background = {
shapes = (
{
closed = 1;
nodes = (
(499,91,o),
(312,302,o),
(312,647,cs),
(312,987,o),
(500,1201,o),
(792,1201,cs),
(1018,1201,o),
(1167,1081,o),
(1184,896,c),
(1300,896,l),
(1300,1289,l),
(1185,1289,l),
(1164,1145,l),
(1063,1262,o),
(927,1314,o),
(777,1314,cs),
(383,1314,o),
(116,1050,o),
(116,643,cs),
(116,242,o),
(366,-24,o),
(797,-24,cs),
(984,-24,o),
(1157,14,o),
(1318,152,c),
(1328,411,l),
(1212,431,l),
(1209,170,o),
(1067,91,o),
(792,91,cs)
);
},
{
closed = 1;
nodes = (
(648,-175,l),
(654,-174,o),
(661,-174,o),
(667,-174,cs),
(748,-176,o),
(793,-201,o),
(793,-256,cs),
(793,-320,o),
(745,-350,o),
(657,-350,cs),
(614,-350,o),
(564,-341,o),
(509,-320,c),
(490,-391,l),
(565,-417,o),
(621,-424,o),
(675,-424,cs),
(826,-424,o),
(923,-368,o),
(923,-255,cs),
(923,-161,o),
(854,-95,o),
(745,-95,cs),
(738,-95,o),
(725,-96,o),
(724,-96,c),
(730,-6,l),
(662,-6,l)
);
}
);
};
layerId = m001;
shapes = (
{
alignment = -1;
ref = C;
},
{
alignment = -1;
pos = (279,0);
ref = cedilla;
}
);
userData = {
com.typemytype.robofont.layerData = {
b = {
anchors = (
);
components = (
);
contours = (
);
lib = {
};
name = Ccedilla;
unicodes = (
);
width = 1413;
};
};
org.robofab.postScriptHintData = {
};
};
width = 1413;
},
{
background = {
shapes = (
{
closed = 1;
nodes = (
(606,168,o),
(470,348,o),
(470,657,cs),
(470,973,o),
(606,1139,o),
(832,1139,cs),
(1017,1139,o),
(1118,1047,o),
(1128,896,c),
(1333,895,l),
(1333,1305,l),
(1111,1305,l),
(1106,1219,l),
(1035,1289,o),
(892,1333,o),
(768,1333,cs),
(358,1333,o),
(109,1052,o),
(109,654,cs),
(109,275,o),
(315,-26,o),
(801,-26,cs),
(1006,-26,o),
(1184,19,o),
(1340,124,c),
(1355,428,l),
(1151,472,l),
(1140,248,o),
(1039,168,o),
(835,168,cs)
);
},
{
closed = 1;
nodes = (
(637,-181,l),
(647,-178,o),
(658,-177,o),
(668,-177,cs),
(725,-178,o),
(762,-199,o),
(762,-247,cs),
(762,-300,o),
(726,-326,o),
(658,-326,cs),
(615,-326,o),
(560,-314,o),
(509,-293,c),
(483,-384,l),
(572,-423,o),
(650,-434,o),
(709,-434,cs),
(862,-432,o),
(962,-368,o),
(962,-253,cs),
(962,-148,o),
(883,-76,o),
(764,-76,cs),
(756,-76,o),
(745,-76,o),
(740,-77,c),
(743,-3,l),
(647,-3,l)
);
}
);
};
layerId = "B409784F-46BD-401C-982B-E70BC129B834";
shapes = (
{
alignment = -1;
ref = C;
},
{
alignment = -1;
pos = (273,0);
ref = cedilla;
}
);
userData = {
org.robofab.postScriptHintData = {
};
};
width = 1446;
}
);
unicode = 199;
},
{
glyphname = D;
lastChange = "2023-08-04 09:34:56 +0000";
layers = (
{
background = {
shapes = (
{
closed = 1;
nodes = (
(50,1192,l),
(70.671,1192,o),
(89.026,1191.898,o),
(105.304,1191.495,cs),
(203.209,1189.07,o),
(226,1175.738,o),
(226,1108,cs),
(226,1108,o),
(227,195,o),
(227,192,cs),
(227,131,o),
(226,99,o),
(115,99,cs),
(50,99,l),
(50,0,l),
(577,0,ls),
(1128,0,o),
(1370,217,o),
(1370,659,cs),
(1370,1086,o),
(1099,1290,o),
(566,1290,cs),
(50,1290,l)
);
},
{
closed = 1;
nodes = (
(615,1181,ls),
(977,1181,o),
(1175,1012,o),
(1175,655,cs),
(1175,270,o),
(974,111,o),
(614,111,cs),
(409,111,l),
(409,1181,l)
);
}
);
};
layerId = m001;
shapes = (
{
closed = 1;
nodes = (
(50,1192,l),
(70.671,1192,o),
(89.026,1191.898,o),
(105.304,1191.495,cs),
(203.209,1189.07,o),
(226,1175.738,o),
(226,1108,cs),
(226,1108,o),
(227,195,o),
(227,192,cs),
(227,131,o),
(226,99,o),
(115,99,cs),
(50,99,l),
(50,0,l),
(577,0,ls),
(1128,0,o),
(1370,217,o),
(1370,659,cs),
(1370,1086,o),
(1099,1290,o),
(566,1290,cs),
(50,1290,l)
);
},
{
closed = 1;
nodes = (
(615,1181,ls),
(977,1181,o),
(1175,1012,o),
(1175,655,cs),
(1175,270,o),
(974,111,o),
(614,111,cs),
(409,111,l),
(409,1181,l)
);
}
);
userData = {
org.robofab.postScriptHintData = {
};
};
width = 1477;
},
{
background = {
shapes = (
{
closed = 1;
nodes = (
(65,1131,l),
(76,1131,o),
(106,1131,o),
(114,1131,cs),
(189,1130,o),
(203,1090,o),
(203,1035,cs),
(203,1035,o),
(204,304,o),
(204,288,cs),
(204,225,o),
(198,178,o),
(114,178,cs),
(65,178,l),
(65,0,l),
(647,0,ls),
(1145,0,o),
(1469,162,o),
(1469,661,cs),
(1469,1093,o),
(1193,1308,o),
(625,1308,cs),
(65,1308,l)
);
},
{
closed = 1;
nodes = (
(674,1114,ls),
(971,1114,o),
(1114,977,o),
(1114,665,cs),
(1114,334,o),
(968,194,o),
(675,194,cs),
(531,194,l),
(531,1114,l)
);
}
);
};
layerId = "B409784F-46BD-401C-982B-E70BC129B834";
shapes = (
{
closed = 1;
nodes = (
(65,1131,l),
(76,1131,o),
(106,1131,o),
(114,1131,cs),
(189,1130,o),
(203,1090,o),
(203,1035,cs),
(203,1035,o),
(204,304,o),
(204,288,cs),
(204,225,o),
(198,178,o),
(114,178,cs),
(65,178,l),
(65,0,l),
(647,0,ls),
(1145,0,o),
(1469,162,o),
(1469,661,cs),
(1469,1093,o),
(1193,1308,o),
(625,1308,cs),
(65,1308,l)
);
},
{
closed = 1;
nodes = (
(674,1114,ls),
(971,1114,o),
(1114,977,o),
(1114,665,cs),
(1114,334,o),
(968,194,o),
(675,194,cs),
(531,194,l),
(531,1114,l)
);
}
);
userData = {
org.robofab.postScriptHintData = {
};
};
width = 1584;
}
);
unicode = 68;
},
{
glyphname = Eth;
lastChange = "2023-08-04 09:35:09 +0000";
layers = (
{
background = {
shapes = (
{
closed = 1;
nodes = (
(50,1192,l),
(195,1192,o),
(226,1187,o),
(226,1108,cs),
(226,1108,o),
(226,195,o),
(226,192,cs),
(226,131,o),
(226,99,o),
(115,99,cs),
(50,99,l),
(50,0,l),
(577,0,ls),
(1128,0,o),
(1370,217,o),
(1370,659,cs),
(1370,1086,o),
(1099,1290,o),
(566,1290,cs),
(50,1290,l)
);
},
{
closed = 1;
nodes = (
(615,1181,ls),
(977,1181,o),
(1175,1012,o),
(1175,655,cs),
(1175,270,o),
(974,111,o),
(614,111,cs),
(409,111,l),
(409,1181,l)
);
},
{
closed = 1;
nodes = (
(50,585,l),
(656,585,l),
(656,731,l),
(50,731,l)
);
}
);
};
layerId = m001;
shapes = (
{
closed = 1;
nodes = (
(50,1192,l),
(195,1192,o),
(226,1187,o),
(226,1108,cs),
(226,1108,o),
(226,195,o),
(226,192,cs),
(226,131,o),
(226,99,o),
(115,99,cs),
(50,99,l),
(50,0,l),
(577,0,ls),
(1128,0,o),
(1370,217,o),
(1370,659,cs),
(1370,1086,o),
(1099,1290,o),
(566,1290,cs),
(50,1290,l)
);
},
{
closed = 1;
nodes = (
(615,1181,ls),
(977,1181,o),
(1175,1012,o),
(1175,655,cs),
(1175,270,o),
(974,111,o),
(614,111,cs),
(409,111,l),
(409,1181,l)
);
},
{
closed = 1;
nodes = (
(50,585,l),
(656,585,l),
(656,731,l),
(50,731,l)
);
}
);
width = 1477;
},
{
background = {
shapes = (
{
closed = 1;
nodes = (
(66,527,l),
(727,527,l),
(727,792,l),
(66,792,l)
);
},
{
closed = 1;
nodes = (
(65,1131,l),
(76,1131,o),
(106,1131,o),
(114,1131,cs),
(189,1130,o),
(203,1090,o),
(203,1035,cs),
(203,1035,o),
(204,304,o),
(204,288,cs),
(204,225,o),
(198,178,o),
(114,178,cs),
(65,178,l),
(65,0,l),
(647,0,ls),
(1145,0,o),
(1469,162,o),
(1469,661,cs),
(1469,1093,o),
(1193,1308,o),
(625,1308,cs),
(65,1308,l)
);
},
{
closed = 1;
nodes = (
(674,1114,ls),
(971,1114,o),
(1114,977,o),
(1114,665,cs),
(1114,334,o),
(968,194,o),
(675,194,cs),
(531,194,l),
(531,1114,l)
);
}
);
};
layerId = "B409784F-46BD-401C-982B-E70BC129B834";
shapes = (
{
closed = 1;
nodes = (
(66,527,l),
(727,527,l),
(727,792,l),
(66,792,l)
);
},
{
ref = D;
}
);
width = 1584;
}
);
unicode = 208;
},
{
glyphname = E;
kernLeft = E;
kernRight = E;
lastChange = "2023-08-04 09:34:56 +0000";
layers = (
{
background = {
shapes = (
{
closed = 1;
nodes = (
(55,1191,l),
(162,1191,ls),
(230,1191,o),
(226,1159,o),
(226,1096,cs),
(226,181,ls),
(226,141,o),
(225,99,o),
(162,99,cs),
(47,99,l),
(47,0,l),
(1128,0,l),
(1128,348,l),
(1016,348,l),
(1016,325.955,o),
(1015.923,305.872,o),
(1015.696,287.591,cs),
(1013.926,144.997,o),
(1003.068,112,o),
(949,112,cs),
(409,112,l),
(409,610,l),
(748,610,ls),
(777,610,o),
(790,608,o),
(798,499,c),
(878,499,l),
(878,821,l),
(798,821,l),
(791,710,o),
(780,713,o),
(754,713,cs),
(409,713,l),
(409,1175,l),
(940,1175,ls),
(988,1175,o),
(1012,1175,o),
(1012,1010,cs),
(1012,962,l),
(1125,962,l),
(1125,1288,l),
(55,1288,l)
);
}
);
};
layerId = m001;
shapes = (
{
closed = 1;
nodes = (
(55,1191,l),
(162,1191,ls),
(230,1191,o),
(226,1159,o),
(226,1096,cs),
(226,181,ls),
(226,141,o),
(225,99,o),
(162,99,cs),
(47,99,l),
(47,0,l),
(1128,0,l),
(1128,348,l),
(1016,348,l),
(1016,325.955,o),
(1015.923,305.872,o),
(1015.696,287.591,cs),
(1013.926,144.997,o),
(1003.068,112,o),
(949,112,cs),
(409,112,l),
(409,610,l),
(748,610,ls),
(777,610,o),
(790,608,o),
(798,499,c),
(878,499,l),
(878,821,l),
(798,821,l),
(791,710,o),
(780,713,o),
(754,713,cs),
(409,713,l),
(409,1175,l),
(940,1175,ls),
(988,1175,o),
(1012,1175,o),
(1012,1010,cs),
(1012,962,l),
(1125,962,l),
(1125,1288,l),
(55,1288,l)
);
}
);
userData = {
org.robofab.postScriptHintData = {
};
};
width = 1219;
},
{
background = {
shapes = (
{
closed = 1;
nodes = (
(72,1132,l),
(142,1132,ls),
(216,1132,o),
(215,1071,o),
(215,1011,cs),
(215,291,ls),
(215,231,o),
(211,178,o),
(142,178,cs),
(68,178,l),
(68,0,l),
(1215,0,l),
(1215,386,l),
(1022,386,l),
(1022,381,o),
(1022,359,o),
(1022,354,cs),
(1021,213,o),
(988,194,o),
(890,194,cs),
(541,194,l),
(541,583,l),
(738,583,ls),
(796,583,o),
(817,575,o),
(832,489,c),
(918,489,l),
(918,843,l),
(833,843,l),
(819,755,o),
(797,749,o),
(738,749,cs),
(541,749,l),
(541,1112,l),
(876,1112,ls),
(961,1112,o),
(1016,1113,o),
(1016,985,cs),
(1016,944,l),
(1211,944,l),
(1211,1308,l),
(72,1308,l)
);
}
);
};
layerId = "B409784F-46BD-401C-982B-E70BC129B834";
shapes = (
{
closed = 1;
nodes = (
(72,1132,l),
(142,1132,ls),
(216,1132,o),
(215,1071,o),
(215,1011,cs),
(215,291,ls),
(215,231,o),
(211,178,o),
(142,178,cs),
(68,178,l),
(68,0,l),
(1215,0,l),
(1215,386,l),
(1022,386,l),
(1022,381,o),
(1022,359,o),
(1022,354,cs),
(1021,213,o),
(988,194,o),
(890,194,cs),
(541,194,l),
(541,583,l),
(738,583,ls),
(796,583,o),
(817,575,o),
(832,489,c),
(918,489,l),
(918,843,l),
(833,843,l),
(819,755,o),
(797,749,o),
(738,749,cs),
(541,749,l),
(541,1112,l),
(876,1112,ls),
(961,1112,o),
(1016,1113,o),
(1016,985,cs),
(1016,944,l),
(1211,944,l),
(1211,1308,l),
(72,1308,l)
);
}
);
userData = {
org.robofab.postScriptHintData = {
};
};
width = 1316;
}
);
unicode = 69;
},
{
glyphname = Eacute;
kernLeft = E;
kernRight = E;
lastChange = "2023-08-04 09:35:09 +0000";
layers = (
{
background = {
shapes = (
{
closed = 1;
nodes = (
(501,1424,l),
(784,1686,ls),
(795,1696,o),
(799,1705,o),
(799,1714,cs),
(799,1735,o),
(771,1749,o),
(737,1749,cs),
(688,1749,o),
(637,1709,o),
(604,1666,cs),
(417,1424,l)
);
},
{
closed = 1;
nodes = (
(55,1191,l),
(162,1191,ls),
(230,1191,o),
(226,1159,o),
(226,1096,cs),
(226,181,ls),
(226,141,o),
(225,99,o),
(162,99,cs),
(47,99,l),
(47,0,l),
(1128,0,l),
(1128,348,l),
(1016,348,l),
(1016,325.955,o),
(1015.923,305.872,o),
(1015.696,287.591,cs),
(1013.926,144.997,o),
(1003.068,112,o),
(949,112,cs),
(409,112,l),
(409,610,l),
(748,610,ls),
(777,610,o),
(790,608,o),
(798,499,c),
(878,499,l),
(878,821,l),
(798,821,l),
(791,710,o),
(780,713,o),
(754,713,cs),
(409,713,l),
(409,1175,l),
(940,1175,ls),
(988,1175,o),
(1012,1175,o),
(1012,1010,cs),
(1012,962,l),
(1125,962,l),
(1125,1288,l),
(55,1288,l)
);
}
);
};
layerId = m001;
shapes = (
{
alignment = -1;
pos = (147,395);
ref = acute;
},
{
alignment = -1;
ref = E;
}
);
userData = {
org.robofab.postScriptHintData = {
};
};
width = 1219;
},
{
background = {
shapes = (
{
closed = 1;
nodes = (
(542,1448,l),
(904,1737,ls),
(921,1753,o),
(832,1805,o),
(750,1805,cs),
(699,1805,o),
(649,1779,o),
(619,1738,cs),
(403,1448,l)
);
},
{
closed = 1;
nodes = (
(72,1132,l),
(142,1132,ls),
(216,1132,o),
(215,1071,o),
(215,1011,cs),
(215,291,ls),
(215,231,o),
(211,178,o),
(142,178,cs),
(68,178,l),
(68,0,l),
(1215,0,l),
(1215,386,l),
(1022,386,l),
(1022,381,o),
(1022,359,o),
(1022,354,cs),
(1021,213,o),
(988,194,o),
(890,194,cs),
(541,194,l),
(541,583,l),
(738,583,ls),
(796,583,o),
(817,575,o),
(832,489,c),
(918,489,l),
(918,843,l),
(833,843,l),
(819,755,o),
(797,749,o),
(738,749,cs),
(541,749,l),
(541,1112,l),
(876,1112,ls),
(961,1112,o),
(1016,1113,o),
(1016,985,cs),
(1016,944,l),
(1211,944,l),
(1211,1308,l),
(72,1308,l)
);
}
);
};
layerId = "B409784F-46BD-401C-982B-E70BC129B834";
shapes = (
{
alignment = -1;
pos = (161,400);
ref = acute;
},
{
alignment = -1;
ref = E;
}
);
userData = {
org.robofab.postScriptHintData = {
};
};
width = 1316;
}
);
unicode = 201;
},
{
glyphname = Ecircumflex;
kernLeft = E;
kernRight = E;
lastChange = "2023-08-04 09:35:09 +0000";
layers = (
{
background = {
shapes = (
{
closed = 1;
nodes = (
(307,1428,l),
(390,1428,l),
(606,1623,l),
(826,1428,l),
(912,1428,l),
(673,1745,l),
(537,1745,l)
);
},
{
closed = 1;
nodes = (
(55,1191,l),
(162,1191,ls),
(230,1191,o),
(226,1159,o),
(226,1096,cs),
(226,181,ls),
(226,141,o),
(225,99,o),
(162,99,cs),
(47,99,l),
(47,0,l),
(1128,0,l),
(1128,348,l),
(1016,348,l),
(1016,325.955,o),
(1015.923,305.872,o),
(1015.696,287.591,cs),
(1013.926,144.997,o),
(1003.068,112,o),
(949,112,cs),
(409,112,l),
(409,610,l),
(748,610,ls),
(777,610,o),
(790,608,o),
(798,499,c),
(878,499,l),
(878,821,l),
(798,821,l),
(791,710,o),
(780,713,o),
(754,713,cs),
(409,713,l),
(409,1175,l),
(940,1175,ls),
(988,1175,o),
(1012,1175,o),
(1012,1010,cs),
(1012,962,l),
(1125,962,l),
(1125,1288,l),
(55,1288,l)
);
}
);
};
layerId = m001;
shapes = (
{
alignment = -1;
pos = (183,395);
ref = circumflex;
},
{
alignment = -1;
ref = E;
}
);
userData = {
org.robofab.postScriptHintData = {
};
};
width = 1219;
},
{
background = {
shapes = (
{
closed = 1;
nodes = (
(310,1453,l),
(462,1453,l),
(658,1618,l),
(852,1453,l),
(1006,1453,l),
(785,1790,l),
(529,1790,l)
);
},
{
closed = 1;
nodes = (
(72,1132,l),
(142,1132,ls),
(216,1132,o),
(215,1071,o),
(215,1011,cs),
(215,291,ls),
(215,231,o),
(211,178,o),
(142,178,cs),
(68,178,l),
(68,0,l),
(1215,0,l),
(1215,386,l),
(1022,386,l),
(1022,381,o),
(1022,359,o),
(1022,354,cs),
(1021,213,o),
(988,194,o),
(890,194,cs),
(541,194,l),
(541,583,l),
(738,583,ls),
(796,583,o),
(817,575,o),
(832,489,c),
(918,489,l),
(918,843,l),
(833,843,l),
(819,755,o),
(797,749,o),
(738,749,cs),
(541,749,l),
(541,1112,l),
(876,1112,ls),
(961,1112,o),
(1016,1113,o),
(1016,985,cs),
(1016,944,l),
(1211,944,l),
(1211,1308,l),
(72,1308,l)
);
}
);
};
layerId = "B409784F-46BD-401C-982B-E70BC129B834";
shapes = (
{
alignment = -1;
pos = (232,400);
ref = circumflex;
},
{
alignment = -1;
ref = E;
}
);
userData = {
org.robofab.postScriptHintData = {
};
};
width = 1316;
}
);
unicode = 202;
},
{
glyphname = Edblgrave;
kernLeft = E;
kernRight = E;
lastChange = "2023-08-04 09:36:57 +0000";
layers = (
{
background = {
shapes = (
{
closed = 1;
nodes = (
(55,1191,l),
(162,1191,ls),
(230,1191,o),
(226,1159,o),
(226,1096,cs),
(226,181,ls),
(226,141,o),
(225,99,o),
(162,99,cs),
(47,99,l),
(47,0,l),
(1128,0,l),
(1128,348,l),
(1016,348,l),
(1016,325.955,o),
(1015.923,305.872,o),
(1015.696,287.591,cs),
(1013.926,144.997,o),
(1003.068,112,o),
(949,112,cs),
(409,112,l),
(409,610,l),
(748,610,ls),
(777,610,o),
(790,608,o),
(798,499,c),
(878,499,l),
(878,821,l),
(798,821,l),
(791,710,o),
(780,713,o),
(754,713,cs),
(409,713,l),
(409,1175,l),
(940,1175,ls),
(988,1175,o),
(1012,1175,o),
(1012,1010,cs),
(1012,962,l),
(1125,962,l),
(1125,1288,l),
(55,1288,l)
);
},
{
closed = 1;
nodes = (
(568,1424,l),
(360,1671,l),
(335,1696,o),
(314,1724,o),
(314,1745,cs),
(314,1772,o),
(344,1787,o),
(372,1787,cs),
(409,1787,o),
(454,1769,o),
(480,1722,cs),
(647,1424,l)
);
},
{
closed = 1;
nodes = (
(826,1424,l),
(613,1672,l),
(588,1697,o),
(568,1723,o),
(568,1745,cs),
(568,1772,o),
(598,1787,o),
(626,1787,cs),
(661,1787,o),
(701,1771,o),
(731,1729,c),
(904,1424,l)
);
}
);
};
layerId = m001;
shapes = (
{
ref = E;
},
{
pos = (101,395);
ref = dblgravecomb;
}
);
width = 1219;
},
{
layerId = "B409784F-46BD-401C-982B-E70BC129B834";
width = 600;
}
);
unicode = 516;
},
{
glyphname = Edieresis;
kernLeft = E;
kernRight = E;
lastChange = "2023-08-04 09:35:09 +0000";
layers = (
{
background = {
shapes = (
{
closed = 1;
nodes = (
(367,1669,o),
(331,1634,o),
(331,1581,cs),
(331,1528,o),
(367,1491,o),
(422,1491,cs),
(479,1491,o),
(514,1527,o),
(514,1580,cs),
(514,1635,o),
(479,1669,o),
(423,1669,cs)
);
},
{
closed = 1;
nodes = (
(740,1669,o),
(704,1634,o),
(704,1581,cs),
(704,1528,o),
(740,1491,o),
(795,1491,cs),
(852,1491,o),
(888,1527,o),
(888,1580,cs),
(888,1634,o),
(852,1669,o),
(796,1669,cs)
);
},
{
closed = 1;
nodes = (
(55,1191,l),
(162,1191,ls),
(230,1191,o),
(226,1159,o),
(226,1096,cs),
(226,181,ls),
(226,141,o),
(225,99,o),
(162,99,cs),
(47,99,l),
(47,0,l),
(1128,0,l),
(1128,348,l),
(1016,348,l),
(1016,325.955,o),
(1015.923,305.872,o),
(1015.696,287.591,cs),
(1013.926,144.997,o),
(1003.068,112,o),
(949,112,cs),
(409,112,l),
(409,610,l),
(748,610,ls),
(777,610,o),
(790,608,o),
(798,499,c),
(878,499,l),
(878,821,l),
(798,821,l),
(791,710,o),
(780,713,o),
(754,713,cs),
(409,713,l),
(409,1175,l),
(940,1175,ls),
(988,1175,o),
(1012,1175,o),
(1012,1010,cs),
(1012,962,l),
(1125,962,l),
(1125,1288,l),
(55,1288,l)
);
}
);
};
layerId = m001;
shapes = (
{
alignment = -1;
pos = (183,395);
ref = dieresis;
},
{
alignment = -1;
ref = E;
}
);
userData = {
org.robofab.postScriptHintData = {
};
};
width = 1219;
},
{
background = {
shapes = (
{
closed = 1;
nodes = (
(356,1759,o),
(299,1704,o),
(299,1631,cs),
(299,1557,o),
(354,1502,o),
(430,1502,cs),
(505,1502,o),
(560,1556,o),
(560,1631,cs),
(560,1705,o),
(504,1759,o),
(431,1759,cs)
);
},
{
closed = 1;
nodes = (
(813,1759,o),
(756,1703,o),
(756,1631,cs),
(756,1558,o),
(811,1502,o),
(887,1502,cs),
(962,1502,o),
(1016,1557,o),
(1016,1631,cs),
(1016,1704,o),
(961,1759,o),
(887,1759,cs)
);
},
{
closed = 1;
nodes = (
(72,1132,l),
(142,1132,ls),
(216,1132,o),
(215,1071,o),
(215,1011,cs),
(215,291,ls),
(215,231,o),
(211,178,o),
(142,178,cs),
(68,178,l),
(68,0,l),
(1215,0,l),
(1215,386,l),
(1022,386,l),
(1022,381,o),
(1022,359,o),
(1022,354,cs),
(1021,213,o),
(988,194,o),
(890,194,cs),
(541,194,l),
(541,583,l),
(738,583,ls),
(796,583,o),
(817,575,o),
(832,489,c),
(918,489,l),
(918,843,l),
(833,843,l),
(819,755,o),
(797,749,o),
(738,749,cs),
(541,749,l),
(541,1112,l),
(876,1112,ls),
(961,1112,o),
(1016,1113,o),
(1016,985,cs),
(1016,944,l),
(1211,944,l),
(1211,1308,l),
(72,1308,l)
);
}
);
};
layerId = "B409784F-46BD-401C-982B-E70BC129B834";
shapes = (
{
alignment = -1;
pos = (231,400);
ref = dieresis;
},
{
alignment = -1;
ref = E;
}
);
userData = {
org.robofab.postScriptHintData = {
};
};
width = 1316;
}
);
unicode = 203;
},
{
glyphname = Egrave;
kernLeft = E;
kernRight = E;
lastChange = "2023-08-04 09:35:09 +0000";
layers = (
{
background = {
shapes = (
{
closed = 1;
nodes = (
(55,1191,l),
(162,1191,ls),
(230,1191,o),
(226,1159,o),
(226,1096,cs),
(226,181,ls),
(226,141,o),
(225,99,o),
(162,99,cs),
(47,99,l),
(47,0,l),
(1128,0,l),
(1128,348,l),
(1016,348,l),
(1016,325.955,o),
(1015.923,305.872,o),
(1015.696,287.591,cs),
(1013.926,144.997,o),
(1003.068,112,o),
(949,112,cs),
(409,112,l),
(409,610,l),
(748,610,ls),
(777,610,o),
(790,608,o),
(798,499,c),
(878,499,l),
(878,821,l),
(798,821,l),
(791,710,o),
(780,713,o),
(754,713,cs),
(409,713,l),
(409,1175,l),
(940,1175,ls),
(988,1175,o),
(1012,1175,o),
(1012,1010,cs),
(1012,962,l),
(1125,962,l),
(1125,1288,l),
(55,1288,l)
);
},
{
closed = 1;
nodes = (
(562,1744,o),
(522,1757,o),
(486,1757,cs),
(446,1757,o),
(412,1740,o),
(412,1719,c),
(419,1643,o),
(634,1504,o),
(724,1424,c),
(807,1424,l),
(577,1725,ls)
);
}
);
};
layerId = m001;
shapes = (
{
alignment = -1;
ref = E;
},
{
alignment = -1;
pos = (225,395);
ref = grave;
}
);
userData = {
org.robofab.postScriptHintData = {
};
};
width = 1219;
},
{
background = {
shapes = (
{
closed = 1;
nodes = (
(72,1132,l),
(142,1132,ls),
(216,1132,o),
(215,1071,o),
(215,1011,cs),
(215,291,ls),
(215,231,o),
(211,178,o),
(142,178,cs),
(68,178,l),
(68,0,l),
(1215,0,l),
(1215,386,l),
(1022,386,l),
(1022,381,o),
(1022,359,o),
(1022,354,cs),
(1021,213,o),
(988,194,o),
(890,194,cs),
(541,194,l),
(541,583,l),
(738,583,ls),
(796,583,o),
(817,575,o),
(832,489,c),
(918,489,l),
(918,843,l),
(833,843,l),
(819,755,o),
(797,749,o),
(738,749,cs),
(541,749,l),
(541,1112,l),
(876,1112,ls),
(961,1112,o),
(1016,1113,o),
(1016,985,cs),
(1016,944,l),
(1211,944,l),
(1211,1308,l),
(72,1308,l)
);
},
{
closed = 1;
nodes = (
(657,1795,o),
(612,1808,o),
(567,1808,cs),
(488,1808,o),
(401,1762,o),
(401,1752,c),
(404,1717,o),
(735,1485,o),
(776,1448,c),
(915,1448,l),
(679,1765,l)
);
}
);
};
layerId = "B409784F-46BD-401C-982B-E70BC129B834";
shapes = (
{
alignment = -1;
ref = E;
},
{
alignment = -1;
pos = (304,400);
ref = grave;
}
);
userData = {
org.robofab.postScriptHintData = {
};
};
width = 1316;
}
);
unicode = 200;
},
{
glyphname = Einvertedbreve;
kernLeft = E;
kernRight = E;
lastChange = "2023-08-04 09:36:57 +0000";
layers = (
{
background = {
shapes = (
{
closed = 1;
nodes = (
(55,1191,l),
(162,1191,ls),
(230,1191,o),
(226,1159,o),
(226,1096,cs),
(226,181,ls),
(226,141,o),
(225,99,o),
(162,99,cs),
(47,99,l),
(47,0,l),
(1128,0,l),
(1128,348,l),
(1016,348,l),
(1016,325.955,o),
(1015.923,305.872,o),
(1015.696,287.591,cs),
(1013.926,144.997,o),
(1003.068,112,o),
(949,112,cs),
(409,112,l),
(409,610,l),
(748,610,ls),
(777,610,o),
(790,608,o),
(798,499,c),
(878,499,l),
(878,821,l),
(798,821,l),
(791,710,o),
(780,713,o),
(754,713,cs),
(409,713,l),
(409,1175,l),
(940,1175,ls),
(988,1175,o),
(1012,1175,o),
(1012,1010,cs),
(1012,962,l),
(1125,962,l),
(1125,1288,l),
(55,1288,l)
);
},
{
closed = 1;
nodes = (
(338,1615,o),
(455,1711,o),
(609,1711,cs),
(765,1711,o),
(880,1615,o),
(914,1455,c),
(834,1455,l),
(800,1549,o),
(729,1593,o),
(611,1593,cs),
(491,1593,o),
(417,1549,o),
(384,1455,c),
(304,1455,l)
);
}
);
};
layerId = m001;
shapes = (
{
ref = E;
},
{
pos = (183,395);
ref = breveinvertedcomb;
}
);
width = 1219;
},
{
layerId = "B409784F-46BD-401C-982B-E70BC129B834";
width = 600;
}
);
unicode = 518;
},
{
glyphname = F;
lastChange = "2023-08-04 09:34:56 +0000";
layers = (
{
background = {
shapes = (
{
closed = 1;
nodes = (
(52,1191,l),
(163,1191,ls),
(228,1191,o),
(226,1169,o),
(226,1101,cs),
(226,179,ls),
(226,126,o),
(223,99,o),
(163,99,cs),
(46,99,l),
(46,0,l),
(135,0,o),
(203,2,o),
(325,2,c),
(441,0,o),
(510,0,o),
(593,0,c),
(593,99,l),
(539,99,ls),
(443,99,o),
(409,99,o),
(409,166,cs),
(409,611,l),
(698,611,ls),
(748,611,o),
(774,609,o),
(776,527,c),
(847,527,l),
(847,798,l),
(776,798,l),
(773.419,699.935,o),
(744.889,714,o),
(696,714,cs),
(409,714,l),
(409,1176,l),
(903,1176,ls),
(963,1176,o),
(983,1176,o),
(983,1001,cs),
(983,960,l),
(1094,960,l),
(1094,1290,l),
(52,1290,l)
);
}
);
};
layerId = m001;
shapes = (
{
closed = 1;
nodes = (
(52,1191,l),
(163,1191,ls),
(228,1191,o),
(226,1169,o),
(226,1101,cs),
(226,179,ls),
(226,126,o),
(223,99,o),
(163,99,cs),
(46,99,l),
(46,0,l),
(135,0,o),
(203,2,o),
(325,2,c),
(441,0,o),
(510,0,o),
(593,0,c),
(593,99,l),
(539,99,ls),
(443,99,o),
(409,99,o),
(409,166,cs),
(409,611,l),
(698,611,ls),
(748,611,o),
(774,609,o),
(776,527,c),
(847,527,l),
(847,798,l),
(776,798,l),
(773.419,699.935,o),
(744.889,714,o),
(696,714,cs),
(409,714,l),
(409,1176,l),
(903,1176,ls),
(963,1176,o),
(983,1176,o),
(983,1001,cs),
(983,960,l),
(1094,960,l),
(1094,1290,l),
(52,1290,l)
);
}
);
userData = {
org.robofab.postScriptHintData = {
};
};
width = 1106;
},
{
background = {
shapes = (
{
closed = 1;
nodes = (
(55,1131,l),
(120,1131,ls),
(209,1131,o),
(212,1103,o),
(212,1016,cs),
(212,294,ls),
(212,190,o),
(193,178,o),
(120,178,cs),
(53,178,l),
(53,0,l),
(146,0,o),
(214,2,o),
(344,2,c),
(493,1,o),
(588,0,o),
(702,0,c),
(702,178,l),
(641,178,ls),
(563,178,o),
(539,189,o),
(539,261,cs),
(539,582,l),
(718,582,ls),
(783,582,o),
(807,574,o),
(816,500,c),
(891,500,l),
(891,831,l),
(816,831,l),
(808,748,o),
(781,748,o),
(715,748,cs),
(539,748,l),
(539,1112,l),
(878,1112,ls),
(944,1112,o),
(1002,1109,o),
(1002,982,cs),
(1002,934,l),
(1196,934,l),
(1196,1308,l),
(55,1308,l)
);
}
);
};
layerId = "B409784F-46BD-401C-982B-E70BC129B834";
shapes = (
{
closed = 1;
nodes = (
(55,1131,l),
(120,1131,ls),
(209,1131,o),
(212,1103,o),
(212,1016,cs),
(212,294,ls),
(212,190,o),
(193,178,o),
(120,178,cs),
(53,178,l),
(53,0,l),
(146,0,o),
(214,2,o),
(344,2,c),
(493,1,o),
(588,0,o),
(702,0,c),
(702,178,l),
(641,178,ls),
(563,178,o),
(539,189,o),
(539,261,cs),
(539,582,l),
(718,582,ls),
(783,582,o),
(807,574,o),
(816,500,c),
(891,500,l),
(891,831,l),
(816,831,l),
(808,748,o),
(781,748,o),
(715,748,cs),
(539,748,l),
(539,1112,l),
(878,1112,ls),
(944,1112,o),
(1002,1109,o),
(1002,982,cs),
(1002,934,l),
(1196,934,l),
(1196,1308,l),
(55,1308,l)
);
}
);
userData = {
org.robofab.postScriptHintData = {
};
};
width = 1213;
}
);
unicode = 70;
},
{
glyphname = G;
lastChange = "2023-08-04 09:34:56 +0000";
layers = (
{
background = {
shapes = (
{
closed = 1;
nodes = (
(1194,1290,l),
(1164,1141,l),
(1080,1263,o),
(916,1315,o),
(758,1315,cs),
(380,1315,o),
(104,1041,o),
(104,645,cs),
(104,239,o),
(347,-24,o),
(811,-24,cs),
(970,-24,o),
(1158,10,o),
(1304,160,c),
(1320,174,o),
(1320,237,o),
(1320,443,cs),
(1320,485,o),
(1325,493,o),
(1444,496,c),
(1444,502,o),
(1449,598,o),
(1449,604,c),
(1393,604,o),
(1295,602,o),
(1243,602,cs),
(1099,602,o),
(1015,604,o),
(928,604,c),
(928,494,l),
(1054,494,ls),
(1175,494,o),
(1182,495,o),
(1182,442,cs),
(1182,315,ls),
(1182,165,o),
(1052,93,o),
(806,93,cs),
(489,93,o),
(301,302,o),
(301,648,cs),
(301,989,o),
(488,1200,o),
(795,1200,cs),
(1017,1200,o),
(1158,1075,o),
(1181,895,c),
(1299,895,l),
(1299,1290,l)
);
}
);
};
layerId = m001;
shapes = (
{
closed = 1;
nodes = (
(1194,1290,l),
(1164,1141,l),
(1080,1263,o),
(916,1315,o),
(758,1315,cs),
(380,1315,o),
(104,1041,o),
(104,645,cs),
(104,239,o),
(347,-24,o),
(811,-24,cs),
(970,-24,o),
(1158,10,o),
(1304,160,c),
(1320,174,o),
(1320,237,o),
(1320,443,cs),
(1320,485,o),
(1325,493,o),
(1444,496,c),
(1444,502,o),
(1449,598,o),
(1449,604,c),
(1393,604,o),
(1295,602,o),
(1243,602,cs),
(1099,602,o),
(1015,604,o),
(928,604,c),
(928,494,l),
(1054,494,ls),
(1175,494,o),
(1182,495,o),
(1182,442,cs),
(1182,315,ls),
(1182,165,o),
(1052,93,o),
(806,93,cs),
(489,93,o),
(301,302,o),
(301,648,cs),
(301,989,o),
(488,1200,o),
(795,1200,cs),
(1017,1200,o),
(1158,1075,o),
(1181,895,c),
(1299,895,l),
(1299,1290,l)
);
}
);
userData = {
com.typemytype.robofont.layerData = {
b = {
anchors = (
);
components = (
);
contours = (
);
lib = {
};
name = G;
unicodes = (
);
width = 1509;
};
};
org.robofab.postScriptHintData = {
};
};
width = 1509;
},
{
background = {
shapes = (
{
closed = 1;
nodes = (
(1145,1304,l),
(1141,1211,l),
(1054,1293,o),
(910,1333,o),
(772,1333,cs),
(392,1333,o),
(100,1069,o),
(100,656,cs),
(100,305,o),
(297,-26,o),
(851,-26,cs),
(1009,-26,o),
(1178,5,o),
(1326,102,c),
(1334,211,o),
(1349,406,o),
(1349,439,cs),
(1350,489,o),
(1375,499,o),
(1477,512,c),
(1477,547,o),
(1479,622,o),
(1479,657,c),
(1383,655,o),
(1295,655,o),
(1224,655,cs),
(1106,655,o),
(1009,657,o),
(899,657,c),
(899,504,l),
(962,504,ls),
(1068,504,o),
(1097,509,o),
(1097,436,cs),
(1097,275,l),
(1097,206,o),
(1004,168,o),
(876,168,cs),
(606,168,o),
(463,339,o),
(463,650,cs),
(463,951,o),
(595,1139,o),
(848,1139,cs),
(1018,1139,o),
(1128,1058,o),
(1164,906,c),
(1368,906,l),
(1368,1304,l)
);
}
);
};
layerId = "B409784F-46BD-401C-982B-E70BC129B834";
shapes = (
{
closed = 1;
nodes = (
(1145,1304,l),
(1141,1211,l),
(1054,1293,o),
(910,1333,o),
(772,1333,cs),
(392,1333,o),
(100,1069,o),
(100,656,cs),
(100,305,o),
(297,-26,o),
(851,-26,cs),
(1009,-26,o),
(1178,5,o),
(1326,102,c),
(1334,211,o),
(1349,406,o),
(1349,439,cs),
(1350,489,o),
(1375,499,o),
(1477,512,c),
(1477,547,o),
(1479,622,o),
(1479,657,c),
(1383,655,o),
(1295,655,o),
(1224,655,cs),
(1106,655,o),
(1009,657,o),
(899,657,c),
(899,504,l),
(962,504,ls),
(1068,504,o),
(1097,509,o),
(1097,436,cs),
(1097,275,l),
(1097,206,o),
(1004,168,o),
(876,168,cs),
(606,168,o),
(463,339,o),
(463,650,cs),
(463,951,o),
(595,1139,o),
(848,1139,cs),
(1018,1139,o),
(1128,1058,o),
(1164,906,c),
(1368,906,l),
(1368,1304,l)
);
}
);
userData = {
org.robofab.postScriptHintData = {
};
};
width = 1554;
}
);
unicode = 71;
},
{
glyphname = H;
lastChange = "2023-08-04 09:34:56 +0000";
layers = (
{
background = {
shapes = (
{
closed = 1;
nodes = (
(60,1191,l),
(107,1191,ls),
(226,1191,o),
(228,1175,o),
(228,1129,cs),
(228,177,ls),
(228,132,o),
(228,99,o),
(107,99,cs),
(60,99,l),
(60,0,l),
(148,0,o),
(222,2,o),
(342,2,cs),
(447,2,o),
(506,0,o),
(580,0,c),
(580,99,l),
(532,99,ls),
(433,99,o),
(410,96,o),
(410,173,cs),
(410,618,l),
(1079,618,l),
(1079,179,ls),
(1079,129,o),
(1077,99,o),
(956,99,cs),
(908,99,l),
(908,0,l),
(980,0,o),
(1044,2,o),
(1146,2,cs),
(1265,2,o),
(1340,0,o),
(1429,0,c),
(1429,99,l),
(1382,99,ls),
(1244,99,o),
(1261,126.778,o),
(1261,183,cs),
(1261,1126,ls),
(1261,1173,o),
(1262,1191,o),
(1382,1191,cs),
(1429,1191,l),
(1429,1290,l),
(1364,1290,o),
(1197,1288,o),
(1187,1288,cs),
(1102,1288,o),
(1005,1288,o),
(908,1290,c),
(908,1191,l),
(956,1191,ls),
(1052,1191,o),
(1079,1191,o),
(1079,1126,cs),
(1079,725,l),
(410,725,l),
(410,1118,ls),
(410,1173,o),
(410,1191,o),
(532,1191,cs),
(580,1191,l),
(580,1290,l),
(522,1290,o),
(371,1288,o),
(359,1288,cs),
(263,1288,o),
(147,1290,o),
(60,1290,c)
);
}
);
};
layerId = m001;
shapes = (
{
closed = 1;
nodes = (
(60,1191,l),
(107,1191,ls),
(226,1191,o),
(228,1175,o),
(228,1129,cs),
(228,177,ls),
(228,132,o),
(228,99,o),
(107,99,cs),
(60,99,l),
(60,0,l),
(148,0,o),
(222,2,o),
(342,2,cs),
(447,2,o),
(506,0,o),
(580,0,c),
(580,99,l),
(532,99,ls),
(433,99,o),
(410,96,o),
(410,173,cs),
(410,618,l),
(1079,618,l),
(1079,179,ls),
(1079,129,o),
(1077,99,o),
(956,99,cs),
(908,99,l),
(908,0,l),
(980,0,o),
(1044,2,o),
(1146,2,cs),
(1265,2,o),
(1340,0,o),
(1429,0,c),
(1429,99,l),
(1382,99,ls),
(1244,99,o),
(1261,126.778,o),
(1261,183,cs),
(1261,1126,ls),
(1261,1173,o),
(1262,1191,o),
(1382,1191,cs),
(1429,1191,l),
(1429,1290,l),
(1364,1290,o),
(1197,1288,o),
(1187,1288,cs),
(1102,1288,o),
(1005,1288,o),
(908,1290,c),
(908,1191,l),
(956,1191,ls),
(1052,1191,o),
(1079,1191,o),
(1079,1126,cs),
(1079,725,l),
(410,725,l),
(410,1118,ls),
(410,1173,o),
(410,1191,o),
(532,1191,cs),
(580,1191,l),
(580,1290,l),
(522,1290,o),
(371,1288,o),
(359,1288,cs),
(263,1288,o),
(147,1290,o),
(60,1290,c)
);
}
);
userData = {
org.robofab.postScriptHintData = {
};
};
width = 1489;
},
{
layerId = "B409784F-46BD-401C-982B-E70BC129B834";
userData = {
org.robofab.postScriptHintData = {
};
};
width = 1612;
}
);
unicode = 72;
},
{
glyphname = I;
kernLeft = I;
kernRight = I;
lastChange = "2023-08-04 09:34:56 +0000";
layers = (
{
background = {
shapes = (
{
closed = 1;
nodes = (
(68,1191,l),
(116,1191,ls),
(235,1191,o),
(238,1173,o),
(238,1114,cs),
(238,169,ls),
(238,128,o),
(238,99,o),
(116,99,cs),
(68,99,l),
(68,0,l),
(147,0,o),
(221,2,o),
(328,2,cs),
(445,2,o),
(508,0,o),
(591,0,c),
(591,99,l),
(542,99,ls),
(419,99,o),
(420,112,o),
(420,162,cs),
(420,1121,ls),
(420,1162,o),
(421,1191,o),
(542,1191,cs),
(591,1191,l),
(591,1290,l),
(528,1289,o),
(456,1287,o),
(220,1287,cs),
(174,1287,o),
(130,1288,o),
(68,1290,c)
);
}
);
};
layerId = m001;
shapes = (
{
closed = 1;
nodes = (
(68,1191,l),
(116,1191,ls),
(235,1191,o),
(238,1173,o),
(238,1114,cs),
(238,169,ls),
(238,128,o),
(238,99,o),
(116,99,cs),
(68,99,l),
(68,0,l),
(147,0,o),
(221,2,o),
(328,2,cs),
(445,2,o),
(508,0,o),
(591,0,c),
(591,99,l),
(542,99,ls),
(419,99,o),
(420,112,o),
(420,162,cs),
(420,1121,ls),
(420,1162,o),
(421,1191,o),
(542,1191,cs),
(591,1191,l),
(591,1290,l),
(528,1289,o),
(456,1287,o),
(220,1287,cs),
(174,1287,o),
(130,1288,o),
(68,1290,c)
);
}
);
userData = {
org.robofab.postScriptHintData = {
};
};
width = 656;
},
{
background = {
shapes = (
{
closed = 1;
nodes = (
(75,1130,l),
(115,1130,ls),
(217,1130,o),
(219,1092,o),
(219,1015,cs),
(219,290,ls),
(219,215,o),
(219,178,o),
(115,178,cs),
(75,178,l),
(75,0,l),
(170,0,o),
(256,2,o),
(379,2,cs),
(511,2,o),
(592,0,o),
(691,0,c),
(691,178,l),
(649,178,ls),
(549,178,o),
(546,197,o),
(546,269,cs),
(546,1035,ls),
(546,1093,o),
(554,1130,o),
(649,1130,cs),
(691,1130,l),
(691,1308,l),
(585,1306,o),
(506,1306,o),
(346,1306,cs),
(268,1306,o),
(195,1306,o),
(75,1308,c)
);
}
);
};
layerId = "B409784F-46BD-401C-982B-E70BC129B834";
shapes = (
{
closed = 1;
nodes = (
(75,1130,l),
(115,1130,ls),
(217,1130,o),
(219,1092,o),
(219,1015,cs),
(219,290,ls),
(219,215,o),
(219,178,o),
(115,178,cs),
(75,178,l),
(75,0,l),
(170,0,o),
(256,2,o),
(379,2,cs),
(511,2,o),
(592,0,o),
(691,0,c),
(691,178,l),
(649,178,ls),
(549,178,o),
(546,197,o),
(546,269,cs),
(546,1035,ls),
(546,1093,o),
(554,1130,o),
(649,1130,cs),
(691,1130,l),
(691,1308,l),
(585,1306,o),
(506,1306,o),
(346,1306,cs),
(268,1306,o),
(195,1306,o),
(75,1308,c)
);
}
);
userData = {
org.robofab.postScriptHintData = {
};
};
width = 761;
}
);
unicode = 73;
},
{
glyphname = Iacute;
kernLeft = I;
kernRight = I;
lastChange = "2023-08-04 09:35:09 +0000";
layers = (
{
background = {
shapes = (
{
closed = 1;
nodes = (
(68,1191,l),
(116,1191,ls),
(235,1191,o),
(238,1173,o),
(238,1114,cs),
(238,169,ls),
(238,128,o),
(238,99,o),
(116,99,cs),
(68,99,l),
(68,0,l),
(147,0,o),
(221,2,o),
(328,2,cs),
(445,2,o),
(508,0,o),
(591,0,c),
(591,99,l),
(542,99,ls),
(419,99,o),
(420,112,o),
(420,162,cs),
(420,1121,ls),
(420,1162,o),
(421,1191,o),
(542,1191,cs),
(591,1191,l),
(591,1290,l),
(528,1289,o),
(456,1287,o),
(220,1287,cs),
(174,1287,o),
(130,1288,o),
(68,1290,c)
);
},
{
closed = 1;
nodes = (
(219,1424,l),
(502,1686,ls),
(513,1696,o),
(517,1705,o),
(517,1714,cs),
(517,1735,o),
(489,1749,o),
(455,1749,cs),
(406,1749,o),
(355,1709,o),
(322,1666,cs),
(135,1424,l)
);
}
);
};
layerId = m001;
shapes = (
{
alignment = -1;
ref = I;
},
{
alignment = -1;
pos = (-135,395);
ref = acute;
}
);
userData = {
org.robofab.postScriptHintData = {
};
};
width = 656;
},
{
background = {
shapes = (
{
closed = 1;
nodes = (
(75,1130,l),
(115,1130,ls),
(217,1130,o),
(219,1092,o),
(219,1015,cs),
(219,290,ls),
(219,215,o),
(219,178,o),
(115,178,cs),
(75,178,l),
(75,0,l),
(170,0,o),
(256,2,o),
(379,2,cs),
(511,2,o),
(592,0,o),
(691,0,c),
(691,178,l),
(649,178,ls),
(549,178,o),
(546,197,o),
(546,269,cs),
(546,1035,ls),
(546,1093,o),
(554,1130,o),
(649,1130,cs),
(691,1130,l),
(691,1308,l),
(585,1306,o),
(506,1306,o),
(346,1306,cs),
(268,1306,o),
(195,1306,o),
(75,1308,c)
);
},
{
closed = 1;
nodes = (
(265,1448,l),
(627,1737,ls),
(644,1753,o),
(555,1805,o),
(473,1805,cs),
(422,1805,o),
(372,1779,o),
(342,1738,cs),
(126,1448,l)
);
}
);
};
layerId = "B409784F-46BD-401C-982B-E70BC129B834";
shapes = (
{
alignment = -1;
ref = I;
},
{
alignment = -1;
pos = (-116,400);
ref = acute;
}
);
userData = {
org.robofab.postScriptHintData = {
};
};
width = 761;
}
);
unicode = 205;
},
{
glyphname = Icircumflex;
kernLeft = I;
kernRight = I;
lastChange = "2023-08-04 09:35:09 +0000";
layers = (
{
background = {
shapes = (
{
closed = 1;
nodes = (
(68,1191,l),
(116,1191,ls),
(235,1191,o),
(238,1173,o),
(238,1114,cs),
(238,169,ls),
(238,128,o),
(238,99,o),
(116,99,cs),
(68,99,l),
(68,0,l),
(147,0,o),
(221,2,o),
(328,2,cs),
(445,2,o),
(508,0,o),
(591,0,c),
(591,99,l),
(542,99,ls),
(419,99,o),
(420,112,o),
(420,162,cs),
(420,1121,ls),
(420,1162,o),
(421,1191,o),
(542,1191,cs),
(591,1191,l),
(591,1290,l),
(528,1289,o),
(456,1287,o),
(220,1287,cs),
(174,1287,o),
(130,1288,o),
(68,1290,c)
);
},
{
closed = 1;
nodes = (
(26,1428,l),
(109,1428,l),
(325,1623,l),
(545,1428,l),
(631,1428,l),
(392,1745,l),
(256,1745,l)
);
}
);
};
layerId = m001;
shapes = (
{
alignment = -1;
ref = I;
},
{
alignment = -1;
pos = (-98,395);
ref = circumflex;
}
);
userData = {
org.robofab.postScriptHintData = {
};
};
width = 656;
},
{
background = {
shapes = (
{
closed = 1;
nodes = (
(75,1130,l),
(115,1130,ls),
(217,1130,o),
(219,1092,o),
(219,1015,cs),
(219,290,ls),
(219,215,o),
(219,178,o),
(115,178,cs),
(75,178,l),
(75,0,l),
(170,0,o),
(256,2,o),
(379,2,cs),
(511,2,o),
(592,0,o),
(691,0,c),
(691,178,l),
(649,178,ls),
(549,178,o),
(546,197,o),
(546,269,cs),
(546,1035,ls),
(546,1093,o),
(554,1130,o),
(649,1130,cs),
(691,1130,l),
(691,1308,l),
(585,1306,o),
(506,1306,o),
(346,1306,cs),
(268,1306,o),
(195,1306,o),
(75,1308,c)
);
},
{
closed = 1;
nodes = (
(33,1453,l),
(185,1453,l),
(381,1618,l),
(575,1453,l),
(729,1453,l),
(508,1790,l),
(252,1790,l)
);
}
);
};
layerId = "B409784F-46BD-401C-982B-E70BC129B834";
shapes = (
{
alignment = -1;
ref = I;
},
{
alignment = -1;
pos = (-45,400);
ref = circumflex;
}
);
userData = {
org.robofab.postScriptHintData = {
};
};
width = 761;
}
);
unicode = 206;
},
{
glyphname = Idblgrave;
kernLeft = I;
kernRight = I;
lastChange = "2023-08-04 09:36:57 +0000";
layers = (
{
background = {
shapes = (
{
closed = 1;
nodes = (
(68,1191,l),
(116,1191,ls),
(235,1191,o),
(238,1173,o),
(238,1114,cs),
(238,169,ls),
(238,128,o),
(238,99,o),
(116,99,cs),
(68,99,l),
(68,0,l),
(147,0,o),
(221,2,o),
(328,2,cs),
(445,2,o),
(508,0,o),
(591,0,c),
(591,99,l),
(542,99,ls),
(419,99,o),
(420,112,o),
(420,162,cs),
(420,1121,ls),
(420,1162,o),
(421,1191,o),
(542,1191,cs),
(591,1191,l),
(591,1290,l),
(528,1289,o),
(456,1287,o),
(220,1287,cs),
(174,1287,o),
(130,1288,o),
(68,1290,c)
);
},
{
closed = 1;
nodes = (
(287,1424,l),
(79,1671,l),
(54,1696,o),
(33,1724,o),
(33,1745,cs),
(33,1772,o),
(63,1787,o),
(91,1787,cs),
(128,1787,o),
(173,1769,o),
(199,1722,cs),
(366,1424,l)
);
},
{
closed = 1;
nodes = (
(545,1424,l),
(332,1672,l),
(307,1697,o),
(287,1723,o),
(287,1745,cs),
(287,1772,o),
(317,1787,o),
(345,1787,cs),
(380,1787,o),
(420,1771,o),
(450,1729,c),
(623,1424,l)
);
}
);
};
layerId = m001;
shapes = (
{
ref = I;
},
{
pos = (-180,395);
ref = dblgravecomb;
}
);
width = 656;
},
{
layerId = "B409784F-46BD-401C-982B-E70BC129B834";
width = 600;
}
);
unicode = 520;
},
{
glyphname = Idieresis;
kernLeft = I;
kernRight = I;
lastChange = "2023-08-04 09:35:09 +0000";
layers = (
{
background = {
shapes = (
{
closed = 1;
nodes = (
(68,1191,l),
(116,1191,ls),
(235,1191,o),
(238,1173,o),
(238,1114,cs),
(238,169,ls),
(238,128,o),
(238,99,o),
(116,99,cs),
(68,99,l),
(68,0,l),
(147,0,o),
(221,2,o),
(328,2,cs),
(445,2,o),
(508,0,o),
(591,0,c),
(591,99,l),
(542,99,ls),
(419,99,o),
(420,112,o),
(420,162,cs),
(420,1121,ls),
(420,1162,o),
(421,1191,o),
(542,1191,cs),
(591,1191,l),
(591,1290,l),
(528,1289,o),
(456,1287,o),
(220,1287,cs),
(174,1287,o),
(130,1288,o),
(68,1290,c)
);
},
{
closed = 1;
nodes = (
(86,1669,o),
(50,1634,o),
(50,1581,cs),
(50,1528,o),
(86,1491,o),
(141,1491,cs),
(198,1491,o),
(233,1527,o),
(233,1580,cs),
(233,1635,o),
(198,1669,o),
(142,1669,cs)
);
},
{
closed = 1;
nodes = (
(459,1669,o),
(423,1634,o),
(423,1581,cs),
(423,1528,o),
(459,1491,o),
(514,1491,cs),
(571,1491,o),
(607,1527,o),
(607,1580,cs),
(607,1634,o),
(571,1669,o),
(515,1669,cs)
);
}
);
};
layerId = m001;
shapes = (
{
alignment = -1;
ref = I;
},
{
alignment = -1;
pos = (-98,395);
ref = dieresis;
}
);
userData = {
org.robofab.postScriptHintData = {
};
};
width = 656;
},
{
background = {
shapes = (
{
closed = 1;
nodes = (
(75,1130,l),
(115,1130,ls),
(217,1130,o),
(219,1092,o),
(219,1015,cs),
(219,290,ls),
(219,215,o),
(219,178,o),
(115,178,cs),
(75,178,l),
(75,0,l),
(170,0,o),
(256,2,o),
(379,2,cs),
(511,2,o),
(592,0,o),
(691,0,c),
(691,178,l),
(649,178,ls),
(549,178,o),
(546,197,o),
(546,269,cs),
(546,1035,ls),
(546,1093,o),
(554,1130,o),
(649,1130,cs),
(691,1130,l),
(691,1308,l),
(585,1306,o),
(506,1306,o),
(346,1306,cs),
(268,1306,o),
(195,1306,o),
(75,1308,c)
);
},
{
closed = 1;
nodes = (
(79,1759,o),
(22,1704,o),
(22,1631,cs),
(22,1557,o),
(77,1502,o),
(153,1502,cs),
(228,1502,o),
(283,1556,o),
(283,1631,cs),
(283,1705,o),
(227,1759,o),
(154,1759,cs)
);
},
{
closed = 1;
nodes = (
(536,1759,o),
(479,1703,o),
(479,1631,cs),
(479,1558,o),
(534,1502,o),
(610,1502,cs),
(685,1502,o),
(739,1557,o),
(739,1631,cs),
(739,1704,o),
(684,1759,o),
(610,1759,cs)
);
}
);
};
layerId = "B409784F-46BD-401C-982B-E70BC129B834";
shapes = (
{
alignment = -1;
ref = I;
},
{
alignment = -1;
pos = (-46,400);
ref = dieresis;
}
);
userData = {
org.robofab.postScriptHintData = {
};
};
width = 761;
}
);
unicode = 207;
},
{
glyphname = Igrave;
kernLeft = I;
kernRight = I;
lastChange = "2023-08-04 09:35:09 +0000";
layers = (
{
background = {
shapes = (
{
closed = 1;
nodes = (
(68,1191,l),
(116,1191,ls),
(235,1191,o),
(238,1173,o),
(238,1114,cs),
(238,169,ls),
(238,128,o),
(238,99,o),
(116,99,cs),
(68,99,l),
(68,0,l),
(147,0,o),
(221,2,o),
(328,2,cs),
(445,2,o),
(508,0,o),
(591,0,c),
(591,99,l),
(542,99,ls),
(419,99,o),
(420,112,o),
(420,162,cs),
(420,1121,ls),
(420,1162,o),
(421,1191,o),
(542,1191,cs),
(591,1191,l),
(591,1290,l),
(528,1289,o),
(456,1287,o),
(220,1287,cs),
(174,1287,o),
(130,1288,o),
(68,1290,c)
);
},
{
closed = 1;
nodes = (
(281,1744,o),
(241,1757,o),
(205,1757,cs),
(165,1757,o),
(131,1740,o),
(131,1719,c),
(138,1643,o),
(353,1504,o),
(443,1424,c),
(526,1424,l),
(296,1725,ls)
);
}
);
};
layerId = m001;
shapes = (
{
alignment = -1;
ref = I;
},
{
alignment = -1;
pos = (-56,395);
ref = grave;
}
);
userData = {
org.robofab.postScriptHintData = {
};
};
width = 656;
},
{
background = {
shapes = (
{
closed = 1;
nodes = (
(75,1130,l),
(115,1130,ls),
(217,1130,o),
(219,1092,o),
(219,1015,cs),
(219,290,ls),
(219,215,o),
(219,178,o),
(115,178,cs),
(75,178,l),
(75,0,l),
(170,0,o),
(256,2,o),
(379,2,cs),
(511,2,o),
(592,0,o),
(691,0,c),
(691,178,l),
(649,178,ls),
(549,178,o),
(546,197,o),
(546,269,cs),
(546,1035,ls),
(546,1093,o),
(554,1130,o),
(649,1130,cs),
(691,1130,l),
(691,1308,l),
(585,1306,o),
(506,1306,o),
(346,1306,cs),
(268,1306,o),
(195,1306,o),
(75,1308,c)
);
},
{
closed = 1;
nodes = (
(380,1795,o),
(335,1808,o),
(290,1808,cs),
(211,1808,o),
(124,1762,o),
(124,1752,c),
(127,1717,o),
(458,1485,o),
(499,1448,c),
(638,1448,l),
(402,1765,l)
);
}
);
};
layerId = "B409784F-46BD-401C-982B-E70BC129B834";
shapes = (
{
alignment = -1;
ref = I;
},
{
alignment = -1;
pos = (27,400);
ref = grave;
}
);
userData = {
org.robofab.postScriptHintData = {
};
};
width = 761;
}
);
unicode = 204;
},
{
glyphname = Iinvertedbreve;
kernLeft = I;
kernRight = I;
lastChange = "2023-08-04 09:36:57 +0000";
layers = (
{
background = {
shapes = (
{
closed = 1;
nodes = (
(68,1191,l),
(116,1191,ls),
(235,1191,o),
(238,1173,o),
(238,1114,cs),
(238,169,ls),
(238,128,o),
(238,99,o),
(116,99,cs),
(68,99,l),
(68,0,l),
(147,0,o),
(221,2,o),
(328,2,cs),
(445,2,o),
(508,0,o),
(591,0,c),
(591,99,l),
(542,99,ls),
(419,99,o),
(420,112,o),
(420,162,cs),
(420,1121,ls),
(420,1162,o),
(421,1191,o),
(542,1191,cs),
(591,1191,l),
(591,1290,l),
(528,1289,o),
(456,1287,o),
(220,1287,cs),
(174,1287,o),
(130,1288,o),
(68,1290,c)
);
},
{
closed = 1;
nodes = (
(57,1615,o),
(174,1711,o),
(328,1711,cs),
(484,1711,o),
(599,1615,o),
(633,1455,c),
(553,1455,l),
(519,1549,o),
(448,1593,o),
(330,1593,cs),
(210,1593,o),
(136,1549,o),
(103,1455,c),
(23,1455,l)
);
}
);
};
layerId = m001;
shapes = (
{
ref = I;
},
{
pos = (-98,395);
ref = breveinvertedcomb;
}
);
width = 656;
},
{
layerId = "B409784F-46BD-401C-982B-E70BC129B834";
width = 600;
}
);
unicode = 522;
},
{
glyphname = J;
lastChange = "2023-08-04 09:34:56 +0000";
layers = (
{
background = {
shapes = (
{
closed = 1;
nodes = (
(161,1191,l),
(263,1191,ls),
(361,1191,o),
(361,1160,o),
(361,1110,cs),
(361,371,o),
(361,272,o),
(361,240,cs),
(361,45,o),
(350,-90,o),
(194,-106,c),
(125,-106,o),
(95,-75,o),
(80,31,c),
(77,31,o),
(-17,41,o),
(-20,42,c),
(-20,-200,l),
(38,-217,o),
(103,-227,o),
(178,-227,cs),
(490,-227,o),
(544,-78,o),
(544,278,cs),
(544,278,o),
(544,1109,o),
(544,1111,cs),
(544,1154,o),
(545,1191,o),
(640,1191,cs),
(724,1191,l),
(724,1290,l),
(651,1289,o),
(489,1287,o),
(479,1287,cs),
(339,1287,o),
(270,1290,o),
(198,1290,cs),
(161,1290,l)
);
}
);
};
layerId = m001;
shapes = (
{
closed = 1;
nodes = (
(161,1191,l),
(263,1191,ls),
(361,1191,o),
(361,1160,o),
(361,1110,cs),
(361,371,o),
(361,272,o),
(361,240,cs),
(361,45,o),
(350,-90,o),
(194,-106,c),
(125,-106,o),
(95,-75,o),
(80,31,c),
(77,31,o),
(-17,41,o),
(-20,42,c),
(-20,-200,l),
(38,-217,o),
(103,-227,o),
(178,-227,cs),
(490,-227,o),
(544,-78,o),
(544,278,cs),
(544,278,o),
(544,1109,o),
(544,1111,cs),
(544,1154,o),
(545,1191,o),
(640,1191,cs),
(724,1191,l),
(724,1290,l),
(651,1289,o),
(489,1287,o),
(479,1287,cs),
(339,1287,o),
(270,1290,o),
(198,1290,cs),
(161,1290,l)
);
}
);
userData = {
org.robofab.postScriptHintData = {
};
};
width = 763;
},
{
background = {
shapes = (
{
closed = 1;
nodes = (
(180,1130,l),
(253,1130,ls),
(335,1130,o),
(337,1082,o),
(337,1024,cs),
(337,684,o),
(337,339,o),
(337,324,cs),
(337,150,o),
(327,-10,o),
(196,-17,c),
(153,-17,o),
(130,9,o),
(112,89,c),
(96,89,o),
(36,94,o),
(18,95,c),
(18,-210,l),
(88,-224,o),
(151,-236,o),
(231,-236,cs),
(563,-236,o),
(665,-113,o),
(665,269,cs),
(665,269,o),
(665,999,o),
(665,1009,cs),
(665,1085,o),
(669,1130,o),
(764,1130,cs),
(813,1130,l),
(813,1308,l),
(706,1306,o),
(590,1306,o),
(538,1306,cs),
(418,1306,o),
(331,1307,o),
(221,1308,cs),
(180,1308,l)
);
}
);
};
layerId = "B409784F-46BD-401C-982B-E70BC129B834";
shapes = (
{
closed = 1;
nodes = (
(180,1130,l),
(253,1130,ls),
(335,1130,o),
(337,1082,o),
(337,1024,cs),
(337,684,o),
(337,339,o),
(337,324,cs),
(337,150,o),
(327,-10,o),
(196,-17,c),
(153,-17,o),
(130,9,o),
(112,89,c),
(96,89,o),
(36,94,o),
(18,95,c),
(18,-210,l),
(88,-224,o),
(151,-236,o),
(231,-236,cs),
(563,-236,o),
(665,-113,o),
(665,269,cs),
(665,269,o),
(665,999,o),
(665,1009,cs),
(665,1085,o),
(669,1130,o),
(764,1130,cs),
(813,1130,l),
(813,1308,l),
(706,1306,o),
(590,1306,o),
(538,1306,cs),
(418,1306,o),
(331,1307,o),
(221,1308,cs),
(180,1308,l)
);
}
);
userData = {
org.robofab.postScriptHintData = {
};
};
width = 864;
}
);
unicode = 74;
},
{
glyphname = K;
lastChange = "2023-08-04 09:34:56 +0000";
layers = (
{
background = {
shapes = (
{
closed = 1;
nodes = (
(365,687,o),
(365,1116,o),
(365,1119,cs),
(365,1158,o),
(366,1191,o),
(486,1191,cs),
(538,1191,l),
(538,1290,l),
(517,1290,o),
(283,1287,o),
(268,1287,cs),
(184,1287,o),
(102.25,1287.375,o),
(13,1290,c),
(13,1191,l),
(62,1191,ls),
(179,1191,o),
(183,1171,o),
(183,1116,cs),
(183,167,ls),
(183,129,o),
(182,99,o),
(62,99,cs),
(13,99,l),
(13,0,l),
(80,0,o),
(183,2,o),
(274,2,cs),
(374,2,o),
(466,0,o),
(536,0,c),
(536,99,l),
(486,99,ls),
(364,99,o),
(365,116,o),
(365,164,cs),
(365,568,l),
(431,623,l),
(876,152,ls),
(898,128,o),
(908,116,o),
(908,108,cs),
(908,99,o),
(892,99,o),
(858,99,cs),
(750,99,l),
(750,0,l),
(813,0,o),
(918,2,o),
(1010,2,cs),
(1110,2,o),
(1205,0,o),
(1275,0,c),
(1275,99,l),
(1253.564,99,o),
(1235.187,98.882,o),
(1219.161,98.99,cs),
(1141.739,99.51,o),
(1119.225,105.289,o),
(1072,155,cs),
(547,706,l),
(972,1082,l),
(1087,1181,o),
(1106,1192,o),
(1172,1192,cs),
(1192,1192,o),
(1216,1191,o),
(1248,1191,c),
(1248,1290,l),
(1026,1288,ls),
(952.194,1288,o),
(843.93,1286.912,o),
(776,1290,c),
(776,1191,l),
(827,1191,ls),
(871,1191,o),
(900,1191,o),
(900,1177,cs),
(900,1168,o),
(888,1155,o),
(864,1133,cs),
(365,687,l)
);
}
);
};
layerId = m001;
shapes = (
{
closed = 1;
nodes = (
(365,687,o),
(365,1116,o),
(365,1119,cs),
(365,1158,o),
(366,1191,o),
(486,1191,cs),
(538,1191,l),
(538,1290,l),
(517,1290,o),
(283,1287,o),
(268,1287,cs),
(184,1287,o),
(102.25,1287.375,o),
(13,1290,c),
(13,1191,l),
(62,1191,ls),
(179,1191,o),
(183,1171,o),
(183,1116,cs),
(183,167,ls),
(183,129,o),
(182,99,o),
(62,99,cs),
(13,99,l),
(13,0,l),
(80,0,o),
(183,2,o),
(274,2,cs),
(374,2,o),
(466,0,o),
(536,0,c),
(536,99,l),
(486,99,ls),
(364,99,o),
(365,116,o),
(365,164,cs),
(365,568,l),
(431,623,l),
(876,152,ls),
(898,128,o),
(908,116,o),
(908,108,cs),
(908,99,o),
(892,99,o),
(858,99,cs),
(750,99,l),
(750,0,l),
(813,0,o),
(918,2,o),
(1010,2,cs),
(1110,2,o),
(1205,0,o),
(1275,0,c),
(1275,99,l),
(1253.564,99,o),
(1235.187,98.882,o),
(1219.161,98.99,cs),
(1141.739,99.51,o),
(1119.225,105.289,o),
(1072,155,cs),
(547,706,l),
(972,1082,l),
(1087,1181,o),
(1106,1192,o),
(1172,1192,cs),
(1192,1192,o),
(1216,1191,o),
(1248,1191,c),
(1248,1290,l),
(1026,1288,ls),
(952.194,1288,o),
(843.93,1286.912,o),
(776,1290,c),
(776,1191,l),
(827,1191,ls),
(871,1191,o),
(900,1191,o),
(900,1177,cs),
(900,1168,o),
(888,1155,o),
(864,1133,cs),
(365,687,l)
);
}
);
userData = {
org.robofab.postScriptHintData = {
};
};
width = 1294;
},
{
background = {
shapes = (
{
closed = 1;
nodes = (
(529,682,o),
(529,1008,o),
(529,1020,cs),
(529,1074,o),
(534,1130,o),
(628,1130,cs),
(685,1130,l),
(685,1308,l),
(578,1307,o),
(415,1305,o),
(334,1305,cs),
(255,1304,o),
(179,1307,o),
(59,1308,c),
(59,1130,l),
(104,1130,ls),
(198,1130,o),
(202,1083,o),
(202,1022,cs),
(202,281,ls),
(202,223,o),
(200,178,o),
(104,178,cs),
(59,178,l),
(59,0,l),
(90,0,o),
(324,1,o),
(366,1,cs),
(412,1,o),
(641,0,o),
(673,0,c),
(673,178,l),
(627,178,ls),
(531,178,o),
(529,217,o),
(529,280,cs),
(529,538,l),
(590,587,l),
(926,220,ls),
(940,204,o),
(948,194,o),
(948,187,cs),
(948,180,o),
(936,178,o),
(911,178,cs),
(831,178,l),
(831,0,l),
(859,0,o),
(1109,1,o),
(1151,1,cs),
(1197,1,o),
(1442,0,o),
(1474,0,c),
(1474,178,l),
(1467,178,o),
(1426,178,o),
(1419,179,cs),
(1340,186,o),
(1288,221,o),
(1250,261,cs),
(801,728,l),
(1142,1029,l),
(1235,1111,o),
(1281,1126,o),
(1390,1129,cs),
(1401,1130,o),
(1437,1130,o),
(1450,1130,c),
(1450,1307,l),
(1156,1306,ls),
(1123,1305,o),
(881,1306,o),
(849,1307,c),
(849,1130,l),
(953,1130,ls),
(983,1130,o),
(1002,1130,o),
(1002,1120,cs),
(1002,1114,o),
(995,1105,o),
(979,1091,cs),
(529,682,l)
);
}
);
};
layerId = "B409784F-46BD-401C-982B-E70BC129B834";
shapes = (
{
closed = 1;
nodes = (
(529,682,o),
(529,1008,o),
(529,1020,cs),
(529,1074,o),
(534,1130,o),
(628,1130,cs),
(685,1130,l),
(685,1308,l),
(578,1307,o),
(415,1305,o),
(334,1305,cs),
(255,1304,o),
(179,1307,o),
(59,1308,c),
(59,1130,l),
(104,1130,ls),
(198,1130,o),
(202,1083,o),
(202,1022,cs),
(202,281,ls),
(202,223,o),
(200,178,o),
(104,178,cs),
(59,178,l),
(59,0,l),
(90,0,o),
(324,1,o),
(366,1,cs),
(412,1,o),
(641,0,o),
(673,0,c),
(673,178,l),
(627,178,ls),
(531,178,o),
(529,217,o),
(529,280,cs),
(529,538,l),
(590,587,l),
(926,220,ls),
(940,204,o),
(948,194,o),
(948,187,cs),
(948,180,o),
(936,178,o),
(911,178,cs),
(831,178,l),
(831,0,l),
(859,0,o),
(1109,1,o),
(1151,1,cs),
(1197,1,o),
(1442,0,o),
(1474,0,c),
(1474,178,l),
(1467,178,o),
(1426,178,o),
(1419,179,cs),
(1340,186,o),
(1288,221,o),
(1250,261,cs),
(801,728,l),
(1142,1029,l),
(1235,1111,o),
(1281,1126,o),
(1390,1129,cs),
(1401,1130,o),
(1437,1130,o),
(1450,1130,c),
(1450,1307,l),
(1156,1306,ls),
(1123,1305,o),
(881,1306,o),
(849,1307,c),
(849,1130,l),
(953,1130,ls),
(983,1130,o),
(1002,1130,o),
(1002,1120,cs),
(1002,1114,o),
(995,1105,o),
(979,1091,cs),
(529,682,l)
);
}
);
userData = {
org.robofab.postScriptHintData = {
};
};
width = 1510;
}
);
unicode = 75;
},
{
glyphname = L;
lastChange = "2023-08-04 09:34:56 +0000";
layers = (
{
background = {
shapes = (
{
closed = 1;
nodes = (
(60,1191,l),
(111,1191,ls),
(226,1191,o),
(237,1167,o),
(237,1127,cs),
(237,1116,o),
(236,1105,o),
(236,1095,cs),
(236,192,ls),
(236,140,o),
(236,99,o),
(111,99,cs),
(60,99,l),
(60,0,l),
(1053,0,l),
(1053,440,l),
(938,440,l),
(938,236,o),
(937,114,o),
(874,114,cs),
(419,114,l),
(419,115,o),
(419,1104,o),
(419,1106,cs),
(419,1151,o),
(420,1191,o),
(529,1191,cs),
(600,1191,l),
(600,1290,l),
(460,1286,o),
(336,1287,o),
(208,1287,cs),
(155,1287,o),
(105,1288,o),
(60,1290,c)
);
}
);
};
layerId = m001;
shapes = (
{
closed = 1;
nodes = (
(60,1191,l),
(111,1191,ls),
(226,1191,o),
(237,1167,o),
(237,1127,cs),
(237,1116,o),
(236,1105,o),
(236,1095,cs),
(236,192,ls),
(236,140,o),
(236,99,o),
(111,99,cs),
(60,99,l),
(60,0,l),
(1053,0,l),
(1053,440,l),
(938,440,l),
(938,236,o),
(937,114,o),
(874,114,cs),
(419,114,l),
(419,115,o),
(419,1104,o),
(419,1106,cs),
(419,1151,o),
(420,1191,o),
(529,1191,cs),
(600,1191,l),
(600,1290,l),
(460,1286,o),
(336,1287,o),
(208,1287,cs),
(155,1287,o),
(105,1288,o),
(60,1290,c)
);
}
);
userData = {
com.typemytype.robofont.layerData = {
b = {
anchors = (
);
components = (
);
contours = (
);
lib = {
};
name = L;
unicodes = (
);
width = 1133;
};
};
org.robofab.postScriptHintData = {
};
};
width = 1133;
},
{
background = {
shapes = (
{
closed = 1;
nodes = (
(66,1130,l),
(113,1130,ls),
(204,1130,o),
(213,1082,o),
(213,1028,cs),
(213,1015,o),
(213,1001,o),
(213,989,cs),
(213,292,ls),
(213,228,o),
(210,178,o),
(113,178,cs),
(66,178,l),
(66,0,l),
(1154,0,l),
(1154,444,l),
(971,444,l),
(970,284,o),
(965,197,o),
(863,197,cs),
(540,197,l),
(540,197,o),
(539,1003,o),
(539,1016,cs),
(539,1072,o),
(544,1130,o),
(634,1130,cs),
(699,1130,l),
(699,1308,l),
(539,1306,o),
(427,1305,o),
(299,1305,cs),
(236,1305,o),
(86,1307,o),
(66,1308,c)
);
}
);
};
layerId = "B409784F-46BD-401C-982B-E70BC129B834";
shapes = (
{
closed = 1;
nodes = (
(66,1130,l),
(113,1130,ls),
(204,1130,o),
(213,1082,o),
(213,1028,cs),
(213,1015,o),
(213,1001,o),
(213,989,cs),
(213,292,ls),
(213,228,o),
(210,178,o),
(113,178,cs),
(66,178,l),
(66,0,l),
(1154,0,l),
(1154,444,l),
(971,444,l),
(970,284,o),
(965,197,o),
(863,197,cs),
(540,197,l),
(540,197,o),
(539,1003,o),
(539,1016,cs),
(539,1072,o),
(544,1130,o),
(634,1130,cs),
(699,1130,l),
(699,1308,l),
(539,1306,o),
(427,1305,o),
(299,1305,cs),
(236,1305,o),
(86,1307,o),
(66,1308,c)
);
}
);
userData = {
org.robofab.postScriptHintData = {
};
};
width = 1190;
}
);
unicode = 76;
},
{
glyphname = Lslash;
lastChange = "2023-08-04 09:35:09 +0000";
layers = (
{
background = {
shapes = (
{
closed = 1;
nodes = (
(26,490,l),
(769,806,l),
(769,895,l),
(26,579,l)
);
},
{
closed = 1;
nodes = (
(60,1191,l),
(111,1191,ls),
(226,1191,o),
(237,1167,o),
(237,1127,cs),
(237,1116,o),
(236,1105,o),
(236,1095,cs),
(236,192,ls),
(236,140,o),
(236,99,o),
(111,99,cs),
(60,99,l),
(60,0,l),
(1053,0,l),
(1053,440,l),
(938,440,l),
(938,236,o),
(937,114,o),
(874,114,cs),
(419,114,l),
(419,115,o),
(419,1104,o),
(419,1106,cs),
(419,1151,o),
(420,1191,o),
(529,1191,cs),
(600,1191,l),
(600,1290,l),
(460,1286,o),
(336,1287,o),
(208,1287,cs),
(155,1287,o),
(105,1288,o),
(60,1290,c)
);
}
);
};
layerId = m001;
shapes = (
{
closed = 1;
nodes = (
(26,490,l),
(769,806,l),
(769,895,l),
(26,579,l)
);
},
{
ref = L;
}
);
width = 1088;
},
{
background = {
shapes = (
{
closed = 1;
nodes = (
(66,1130,l),
(113,1130,ls),
(204,1130,o),
(213,1082,o),
(213,1028,cs),
(213,689,l),
(77,640,l),
(77,413,l),
(213,462,l),
(213,292,ls),
(213,228,o),
(210,178,o),
(113,178,cs),
(66,178,l),
(66,0,l),
(1154,0,l),
(1154,444,l),
(971,444,l),
(970,284,o),
(965,197,o),
(863,197,cs),
(540,197,l),
(540,197,o),
(539,385,o),
(539,581,c),
(813,680,l),
(813,907,l),
(539,807,l),
(539,1016,ls),
(539,1072,o),
(544,1130,o),
(634,1130,cs),
(699,1130,l),
(699,1308,l),
(539,1306,o),
(427,1305,o),
(299,1305,cs),
(236,1305,o),
(86,1307,o),
(66,1308,c)
);
}
);
};
layerId = "B409784F-46BD-401C-982B-E70BC129B834";
shapes = (
{
closed = 1;
nodes = (
(66,1130,l),
(113,1130,ls),
(204,1130,o),
(213,1082,o),
(213,1028,cs),
(213,689,l),
(77,640,l),
(77,413,l),
(213,462,l),
(213,292,ls),
(213,228,o),
(210,178,o),
(113,178,cs),
(66,178,l),
(66,0,l),
(1154,0,l),
(1154,444,l),
(971,444,l),
(970,284,o),
(965,197,o),
(863,197,cs),
(540,197,l),
(540,197,o),
(539,385,o),
(539,581,c),
(813,680,l),
(813,907,l),
(539,807,l),
(539,1016,ls),
(539,1072,o),
(544,1130,o),
(634,1130,cs),
(699,1130,l),
(699,1308,l),
(539,1306,o),
(427,1305,o),
(299,1305,cs),
(236,1305,o),
(86,1307,o),
(66,1308,c)
);
}
);
width = 1190;
}
);
unicode = 321;
},
{
glyphname = M;
lastChange = "2023-08-04 09:34:56 +0000";
layers = (
{
background = {
shapes = (
{
closed = 1;
nodes = (
(59,1191,l),
(118,1191,ls),
(195,1191,o),
(225,1186,o),
(225,1119,cs),
(224,183,l),
(223,124,o),
(233,99,o),
(114,99,cs),
(52,99,l),
(52,0,l),
(132,0,o),
(202,2,o),
(309,2,cs),
(408,2,o),
(459,0,o),
(527,0,c),
(527,99,l),
(467,99,ls),
(373,99,o),
(361,104,o),
(361,181,cs),
(361,1196,l),
(389.209,1123.3,o),
(420.521,1041.132,o),
(453.79,953.055,cs),
(565.586,657.086,o),
(699.483,294.393,o),
(812,0,c),
(925,0,l),
(1287,962,l),
(1287,962,o),
(1378,1200,o),
(1378,1200,c),
(1378,189,ls),
(1378,137,o),
(1375,99,o),
(1268,99,cs),
(1208,99,l),
(1208,0,l),
(1274,0,o),
(1322,2,o),
(1420,2,cs),
(1547,2,o),
(1622,0,o),
(1715,0,c),
(1715,99,l),
(1654,99,ls),
(1563,99,o),
(1544,103,o),
(1544,188,cs),
(1544,188,o),
(1544,1120,o),
(1544,1122,cs),
(1544,1167,o),
(1545,1191,o),
(1650,1191,cs),
(1712,1191,l),
(1712,1290,l),
(1651,1288,o),
(1563,1287,o),
(1496,1287,cs),
(1481,1287,o),
(1297,1290,o),
(1279,1290,c),
(1270,1262,o),
(889,238,o),
(882,212,c),
(882,212,o),
(486,1290,o),
(486,1290,c),
(467,1290,o),
(318,1288,o),
(304,1288,cs),
(232,1288,o),
(139,1288,o),
(59,1290,c)
);
}
);
};
layerId = m001;
shapes = (
{
closed = 1;
nodes = (
(59,1191,l),
(118,1191,ls),
(195,1191,o),
(225,1186,o),
(225,1119,cs),
(224,183,l),
(223,124,o),
(233,99,o),
(114,99,cs),
(52,99,l),
(52,0,l),
(132,0,o),
(202,2,o),
(309,2,cs),
(408,2,o),
(459,0,o),
(527,0,c),
(527,99,l),
(467,99,ls),
(373,99,o),
(361,104,o),
(361,181,cs),
(361,1196,l),
(389.209,1123.3,o),
(420.521,1041.132,o),
(453.79,953.055,cs),
(565.586,657.086,o),
(699.483,294.393,o),
(812,0,c),
(925,0,l),
(1287,962,l),
(1287,962,o),
(1378,1200,o),
(1378,1200,c),
(1378,189,ls),
(1378,137,o),
(1375,99,o),
(1268,99,cs),
(1208,99,l),
(1208,0,l),
(1274,0,o),
(1322,2,o),
(1420,2,cs),
(1547,2,o),
(1622,0,o),
(1715,0,c),
(1715,99,l),
(1654,99,ls),
(1563,99,o),
(1544,103,o),
(1544,188,cs),
(1544,188,o),
(1544,1120,o),
(1544,1122,cs),
(1544,1167,o),
(1545,1191,o),
(1650,1191,cs),
(1712,1191,l),
(1712,1290,l),
(1651,1288,o),
(1563,1287,o),
(1496,1287,cs),
(1481,1287,o),
(1297,1290,o),
(1279,1290,c),
(1270,1262,o),
(889,238,o),
(882,212,c),
(882,212,o),
(486,1290,o),
(486,1290,c),
(467,1290,o),
(318,1288,o),
(304,1288,cs),
(232,1288,o),
(139,1288,o),
(59,1290,c)
);
}
);
userData = {
org.robofab.postScriptHintData = {
};
};
width = 1766;
},
{
background = {
shapes = (
{
closed = 1;
nodes = (
(77,1130,l),
(124,1130,ls),
(202,1130,o),
(215,1103,o),
(215,1039,cs),
(214,287,ls),
(211,218,o),
(217,178,o),
(120,178,cs),
(71,178,l),
(71,0,l),
(152,0,o),
(216,2,o),
(328,2,cs),
(433,2,o),
(497,0,o),
(573,0,c),
(573,178,l),
(525,178,ls),
(449,178,o),
(435,188,o),
(435,267,cs),
(435,1146,l),
(436,1146,o),
(492,989,o),
(492,989,cs),
(540,859,o),
(791,129,o),
(840,0,c),
(1024,0,l),
(1378,992,l),
(1378,992,o),
(1435,1149,o),
(1435,1149,c),
(1435,306,ls),
(1435,225,o),
(1425,178,o),
(1335,178,cs),
(1294,178,l),
(1294,0,l),
(1375,0,o),
(1434,2,o),
(1548,2,cs),
(1680,2,o),
(1769,0,o),
(1869,0,c),
(1869,178,l),
(1820,178,ls),
(1739,178,o),
(1729,198,o),
(1729,270,cs),
(1729,270,o),
(1728,1054,o),
(1728,1061,cs),
(1728,1106,o),
(1732,1130,o),
(1815,1130,cs),
(1866,1130,l),
(1866,1308,l),
(1838,1307,o),
(1673,1306,o),
(1608,1306,cs),
(1527,1306,o),
(1374,1307,o),
(1278,1308,c),
(1234,1159,o),
(1008,528,o),
(972,392,c),
(971,392,o),
(668,1308,o),
(668,1308,c),
(568,1307,o),
(440,1306,o),
(367,1306,cs),
(285,1306,o),
(114,1307,o),
(77,1308,c)
);
}
);
};
layerId = "B409784F-46BD-401C-982B-E70BC129B834";
shapes = (
{
closed = 1;
nodes = (
(77,1130,l),
(124,1130,ls),
(202,1130,o),
(215,1103,o),
(215,1039,cs),
(214,287,ls),
(211,218,o),
(217,178,o),
(120,178,cs),
(71,178,l),
(71,0,l),
(152,0,o),
(216,2,o),
(328,2,cs),
(433,2,o),
(497,0,o),
(573,0,c),
(573,178,l),
(525,178,ls),
(449,178,o),
(435,188,o),
(435,267,cs),
(435,1146,l),
(436,1146,o),
(492,989,o),
(492,989,cs),
(540,859,o),
(791,129,o),
(840,0,c),
(1024,0,l),
(1378,992,l),
(1378,992,o),
(1435,1149,o),
(1435,1149,c),
(1435,306,ls),
(1435,225,o),
(1425,178,o),
(1335,178,cs),
(1294,178,l),
(1294,0,l),
(1375,0,o),
(1434,2,o),
(1548,2,cs),
(1680,2,o),
(1769,0,o),
(1869,0,c),
(1869,178,l),
(1820,178,ls),
(1739,178,o),
(1729,198,o),
(1729,270,cs),
(1729,270,o),
(1728,1054,o),
(1728,1061,cs),
(1728,1106,o),
(1732,1130,o),
(1815,1130,cs),
(1866,1130,l),
(1866,1308,l),
(1838,1307,o),
(1673,1306,o),
(1608,1306,cs),
(1527,1306,o),
(1374,1307,o),
(1278,1308,c),
(1234,1159,o),
(1008,528,o),
(972,392,c),
(971,392,o),
(668,1308,o),
(668,1308,c),
(568,1307,o),
(440,1306,o),
(367,1306,cs),
(285,1306,o),
(114,1307,o),
(77,1308,c)
);
}
);
userData = {
org.robofab.postScriptHintData = {
};
};
width = 1940;
}
);
unicode = 77;
},
{
glyphname = N;
kernLeft = N;
kernRight = N;
lastChange = "2023-08-04 09:34:56 +0000";
layers = (
{
background = {
shapes = (
{
closed = 1;
nodes = (
(1234,-10,l),
(1234,-10,o),
(1234,1123.925,o),
(1234,1121,cs),
(1234,1167,o),
(1235,1191,o),
(1340,1191,cs),
(1403,1191,l),
(1403,1290,l),
(1403,1290,o),
(1180,1287,o),
(1151,1287,cs),
(1092,1287,o),
(1025,1290,o),
(920,1290,c),
(920,1191,l),
(972,1191,ls),
(1072,1191,o),
(1097,1188,o),
(1098,1119,c),
(1098,187,l),
(1098,187,o),
(430,1290,o),
(430,1290,c),
(374,1290,o),
(287,1289,o),
(234,1289,cs),
(206,1289,o),
(44,1291,o),
(44,1290,c),
(44,1266,o),
(43,1214,o),
(43,1191,c),
(105,1191,ls),
(198,1191,o),
(214,1189,o),
(214,1109,cs),
(214,181,ls),
(214,120,o),
(215,99,o),
(102,99,cs),
(38,99,l),
(38,0,l),
(122,0,o),
(195,2,o),
(303,2,cs),
(404,2,o),
(459,0,o),
(531,0,c),
(531,99,l),
(477,99,ls),
(374,99,o),
(350,100,o),
(350,175,cs),
(350,1124,l),
(350,1124,o),
(351,1124,o),
(352,1124,c),
(1040,-10,l)
);
}
);
};
layerId = m001;
shapes = (
{
closed = 1;
nodes = (
(1234,-10,l),
(1234,-10,o),
(1234,1123.925,o),
(1234,1121,cs),
(1234,1167,o),
(1235,1191,o),
(1340,1191,cs),
(1403,1191,l),
(1403,1290,l),
(1403,1290,o),
(1180,1287,o),
(1151,1287,cs),
(1092,1287,o),
(1025,1290,o),
(920,1290,c),
(920,1191,l),
(972,1191,ls),
(1072,1191,o),
(1097,1188,o),
(1098,1119,c),
(1098,187,l),
(1098,187,o),
(430,1290,o),
(430,1290,c),
(374,1290,o),
(287,1289,o),
(234,1289,cs),
(206,1289,o),
(44,1291,o),
(44,1290,c),
(44,1266,o),
(43,1214,o),
(43,1191,c),
(105,1191,ls),
(198,1191,o),
(214,1189,o),
(214,1109,cs),
(214,181,ls),
(214,120,o),
(215,99,o),
(102,99,cs),
(38,99,l),
(38,0,l),
(122,0,o),
(195,2,o),
(303,2,cs),
(404,2,o),
(459,0,o),
(531,0,c),
(531,99,l),
(477,99,ls),
(374,99,o),
(350,100,o),
(350,175,cs),
(350,1124,l),
(350,1124,o),
(351,1124,o),
(352,1124,c),
(1040,-10,l)
);
}
);
userData = {
org.robofab.postScriptHintData = {
};
};
width = 1441;
},
{
background = {
shapes = (
{
closed = 1;
nodes = (
(1350,-14,l),
(1350,-14,o),
(1349,1015,o),
(1350,1026,c),
(1350,1088,o),
(1350,1130,o),
(1440,1130,cs),
(1491,1130,l),
(1491,1308,l),
(1491,1308,o),
(1266,1306,o),
(1226,1306,cs),
(1161,1306,o),
(1082,1308,o),
(983,1308,c),
(983,1130,l),
(1029,1130,ls),
(1112,1130,o),
(1129,1120,o),
(1129,1046,cs),
(1130,345,l),
(1130,345,o),
(557,1308,o),
(557,1308,c),
(532,1308,o),
(343,1307,o),
(319,1308,cs),
(306,1308,o),
(54,1308,o),
(54,1308,c),
(54,1297,o),
(54,1140,o),
(54,1130,c),
(106,1130,ls),
(195,1130,o),
(200,1108,o),
(200,1029,cs),
(200,292,ls),
(200,215,o),
(202,178,o),
(104,178,cs),
(52,178,l),
(52,0,l),
(137,0,o),
(206,2,o),
(320,2,cs),
(423,2,o),
(495,0,o),
(571,0,c),
(571,178,l),
(522,178,ls),
(434,178,o),
(419,184,o),
(419,266,cs),
(418,988,l),
(418,988,o),
(419,988,o),
(420,988,c),
(1021,-14,l)
);
}
);
};
layerId = "B409784F-46BD-401C-982B-E70BC129B834";
shapes = (
{
closed = 1;
nodes = (
(1350,-14,l),
(1350,-14,o),
(1349,1015,o),
(1350,1026,c),
(1350,1088,o),
(1350,1130,o),
(1440,1130,cs),
(1491,1130,l),
(1491,1308,l),
(1491,1308,o),
(1266,1306,o),
(1226,1306,cs),
(1161,1306,o),
(1082,1308,o),
(983,1308,c),
(983,1130,l),
(1029,1130,ls),
(1112,1130,o),
(1129,1120,o),
(1129,1046,cs),
(1130,345,l),
(1130,345,o),
(557,1308,o),
(557,1308,c),
(532,1308,o),
(343,1307,o),
(319,1308,cs),
(306,1308,o),
(54,1308,o),
(54,1308,c),
(54,1297,o),
(54,1140,o),
(54,1130,c),
(106,1130,ls),
(195,1130,o),
(200,1108,o),
(200,1029,cs),
(200,292,ls),
(200,215,o),
(202,178,o),
(104,178,cs),
(52,178,l),
(52,0,l),
(137,0,o),
(206,2,o),
(320,2,cs),
(423,2,o),
(495,0,o),
(571,0,c),
(571,178,l),
(522,178,ls),
(434,178,o),
(419,184,o),
(419,266,cs),
(418,988,l),
(418,988,o),
(419,988,o),
(420,988,c),
(1021,-14,l)
);
}
);
userData = {
org.robofab.postScriptHintData = {
};
};
width = 1543;
}
);
unicode = 78;
},
{
glyphname = Ntilde;
kernLeft = N;
kernRight = N;
lastChange = "2023-08-04 09:35:09 +0000";
layers = (
{
background = {
shapes = (
{
closed = 1;
nodes = (
(1234,-10,l),
(1234,-10,o),
(1234,1123.925,o),
(1234,1121,cs),
(1234,1167,o),
(1235,1191,o),
(1340,1191,cs),
(1403,1191,l),
(1403,1290,l),
(1403,1290,o),
(1180,1287,o),
(1151,1287,cs),
(1092,1287,o),
(1025,1290,o),
(920,1290,c),
(920,1191,l),
(972,1191,ls),
(1072,1191,o),
(1097,1188,o),
(1098,1119,c),
(1098,187,l),
(1098,187,o),
(430,1290,o),
(430,1290,c),
(374,1290,o),
(287,1289,o),
(234,1289,cs),
(206,1289,o),
(44,1291,o),
(44,1290,c),
(44,1266,o),
(43,1214,o),
(43,1191,c),
(105,1191,ls),
(198,1191,o),
(214,1189,o),
(214,1109,cs),
(214,181,ls),
(214,120,o),
(215,99,o),
(102,99,cs),
(38,99,l),
(38,0,l),
(122,0,o),
(195,2,o),
(303,2,cs),
(404,2,o),
(459,0,o),
(531,0,c),
(531,99,l),
(477,99,ls),
(374,99,o),
(350,100,o),
(350,175,cs),
(350,1124,l),
(350,1124,o),
(351,1124,o),
(352,1124,c),
(1040,-10,l)
);
},
{
closed = 1;
nodes = (
(950,1630,o),
(917,1602,o),
(867,1602,cs),
(783,1602,o),
(684,1676,o),
(595,1676,cs),
(498,1676,o),
(434,1607,o),
(403,1474,c),
(469,1474,l),
(490,1536,o),
(522,1564,o),
(574,1564,cs),
(649,1564,o),
(754,1491,o),
(840,1491,cs),
(940,1491,o),
(1012,1564,o),
(1037,1690,c),
(972,1690,l)
);
}
);
};
layerId = m001;
shapes = (
{
alignment = -1;
ref = N;
},
{
alignment = -1;
pos = (294,395);
ref = tilde;
}
);
userData = {
org.robofab.postScriptHintData = {
};
};
width = 1441;
},
{
background = {
shapes = (
{
closed = 1;
nodes = (
(1350,-14,l),
(1350,-14,o),
(1349,1015,o),
(1350,1026,c),
(1350,1088,o),
(1350,1130,o),
(1440,1130,cs),
(1491,1130,l),
(1491,1308,l),
(1491,1308,o),
(1266,1306,o),
(1226,1306,cs),
(1161,1306,o),
(1082,1308,o),
(983,1308,c),
(983,1130,l),
(1029,1130,ls),
(1112,1130,o),
(1129,1120,o),
(1129,1046,cs),
(1130,345,l),
(1130,345,o),
(557,1308,o),
(557,1308,c),
(532,1308,o),
(343,1307,o),
(319,1308,cs),
(306,1308,o),
(54,1308,o),
(54,1308,c),
(54,1297,o),
(54,1140,o),
(54,1130,c),
(106,1130,ls),
(195,1130,o),
(200,1108,o),
(200,1029,cs),
(200,292,ls),
(200,215,o),
(202,178,o),
(104,178,cs),
(52,178,l),
(52,0,l),
(137,0,o),
(206,2,o),
(320,2,cs),
(423,2,o),
(495,0,o),
(571,0,c),
(571,178,l),
(522,178,ls),
(434,178,o),
(419,184,o),
(419,266,cs),
(418,988,l),
(418,988,o),
(419,988,o),
(420,988,c),
(1021,-14,l)
);
},
{
closed = 1;
nodes = (
(983,1699,o),
(957,1675,o),
(908,1675,cs),
(826,1675,o),
(743,1739,o),
(651,1739,cs),
(525,1739,o),
(449,1650,o),
(422,1481,c),
(540,1481,l),
(559,1534,o),
(589,1567,o),
(640,1567,cs),
(716,1567,o),
(799,1502,o),
(892,1502,cs),
(1020,1502,o),
(1101,1599,o),
(1121,1759,c),
(1004,1759,l)
);
}
);
};
layerId = "B409784F-46BD-401C-982B-E70BC129B834";
shapes = (
{
alignment = -1;
ref = N;
},
{
alignment = -1;
pos = (346,400);
ref = tilde;
}
);
userData = {
org.robofab.postScriptHintData = {
};
};
width = 1543;
}
);
unicode = 209;
},
{
glyphname = O;
kernLeft = O;
kernRight = O;
lastChange = "2023-08-04 09:34:56 +0000";
layers = (
{
background = {
shapes = (
{
closed = 1;
nodes = (
(1051,1202,o),
(1227,990,o),
(1227,646,cs),
(1227,306,o),
(1051,92,o),
(764,92,cs),
(478,92,o),
(301,305,o),
(301,647,cs),
(301,987,o),
(476,1202,o),
(764,1202,cs)
);
},
{
closed = 1;
nodes = (
(359,1315,o),
(105,1046,o),
(105,646,cs),
(105,242,o),
(359,-24,o),
(772,-24,cs),
(1170,-24,o),
(1425,249,o),
(1425,646,cs),
(1425,1045,o),
(1169,1315,o),
(765,1315,cs)
);
}
);
};
layerId = m001;
shapes = (
{
closed = 1;
nodes = (
(1051,1202,o),
(1227,990,o),
(1227,646,cs),
(1227,306,o),
(1051,92,o),
(764,92,cs),
(478,92,o),
(301,305,o),
(301,647,cs),
(301,987,o),
(476,1202,o),
(764,1202,cs)
);
},
{
closed = 1;
nodes = (
(359,1315,o),
(105,1046,o),
(105,646,cs),
(105,242,o),
(359,-24,o),
(772,-24,cs),
(1170,-24,o),
(1425,249,o),
(1425,646,cs),
(1425,1045,o),
(1169,1315,o),
(765,1315,cs)
);
}
);
userData = {
org.robofab.postScriptHintData = {
};
};
width = 1528;
},
{
background = {
shapes = (
{
closed = 1;
nodes = (
(1008,1139,o),
(1113,968,o),
(1113,656,cs),
(1113,351,o),
(1012,168,o),
(788,168,cs),
(568,168,o),
(463,346,o),
(463,657,cs),
(463,957,o),
(559,1139,o),
(788,1139,cs)
);
},
{
closed = 1;
nodes = (
(343,1333,o),
(100,1036,o),
(100,655,cs),
(100,269,o),
(349,-26,o),
(792,-26,cs),
(1229,-26,o),
(1475,274,o),
(1475,655,cs),
(1475,1037,o),
(1228,1333,o),
(789,1333,cs)
);
}
);
};
layerId = "B409784F-46BD-401C-982B-E70BC129B834";
shapes = (
{
closed = 1;
nodes = (
(1008,1139,o),
(1113,968,o),
(1113,656,cs),
(1113,351,o),
(1012,168,o),
(788,168,cs),
(568,168,o),
(463,346,o),
(463,657,cs),
(463,957,o),
(559,1139,o),
(788,1139,cs)
);
},
{
closed = 1;
nodes = (
(343,1333,o),
(100,1036,o),
(100,655,cs),
(100,269,o),
(349,-26,o),
(792,-26,cs),
(1229,-26,o),
(1475,274,o),
(1475,655,cs),
(1475,1037,o),
(1228,1333,o),
(789,1333,cs)
);
}
);
userData = {
com.typemytype.robofont.layerData = {
};
org.robofab.postScriptHintData = {
};
};
width = 1575;
}
);
unicode = 79;
},
{
glyphname = Oacute;
kernLeft = O;
kernRight = O;
lastChange = "2023-08-04 09:35:09 +0000";
layers = (
{
background = {
shapes = (
{
closed = 1;
nodes = (
(655,1424,l),
(938,1686,ls),
(949,1696,o),
(953,1705,o),
(953,1714,cs),
(953,1735,o),
(925,1749,o),
(891,1749,cs),
(842,1749,o),
(791,1709,o),
(758,1666,cs),
(571,1424,l)
);
},
{
closed = 1;
nodes = (
(1051,1202,o),
(1227,990,o),
(1227,646,cs),
(1227,306,o),
(1051,92,o),
(764,92,cs),
(478,92,o),
(301,305,o),
(301,647,cs),
(301,987,o),
(476,1202,o),
(764,1202,cs)
);
},
{
closed = 1;
nodes = (
(359,1315,o),
(105,1046,o),
(105,646,cs),
(105,242,o),
(359,-24,o),
(772,-24,cs),
(1170,-24,o),
(1425,249,o),
(1425,646,cs),
(1425,1045,o),
(1169,1315,o),
(765,1315,cs)
);
}
);
};
layerId = m001;
shapes = (
{
alignment = -1;
pos = (301,395);
ref = acute;
},
{
alignment = -1;
ref = O;
}
);
userData = {
org.robofab.postScriptHintData = {
};
};
width = 1528;
},
{
background = {
shapes = (
{
closed = 1;
nodes = (
(672,1448,l),
(1034,1737,ls),
(1051,1753,o),
(962,1805,o),
(880,1805,cs),
(829,1805,o),
(779,1779,o),
(749,1738,cs),
(533,1448,l)
);
},
{
closed = 1;
nodes = (
(1008,1139,o),
(1113,968,o),
(1113,656,cs),
(1113,351,o),
(1012,168,o),
(788,168,cs),
(568,168,o),
(463,346,o),
(463,657,cs),
(463,957,o),
(559,1139,o),
(788,1139,cs)
);
},
{
closed = 1;
nodes = (
(343,1333,o),
(100,1036,o),
(100,655,cs),
(100,269,o),
(349,-26,o),
(792,-26,cs),
(1229,-26,o),
(1475,274,o),
(1475,655,cs),
(1475,1037,o),
(1228,1333,o),
(789,1333,cs)
);
}
);
};
layerId = "B409784F-46BD-401C-982B-E70BC129B834";
shapes = (
{
alignment = -1;
pos = (291,400);
ref = acute;
},
{
alignment = -1;
ref = O;
}
);
userData = {
org.robofab.postScriptHintData = {
};
};
width = 1575;
}
);
unicode = 211;
},
{
glyphname = Ocircumflex;
kernLeft = O;
kernRight = O;
lastChange = "2023-08-04 09:35:09 +0000";
layers = (
{
background = {
shapes = (
{
closed = 1;
nodes = (
(462,1428,l),
(545,1428,l),
(761,1623,l),
(981,1428,l),
(1067,1428,l),
(828,1745,l),
(692,1745,l)
);
},
{
closed = 1;
nodes = (
(1051,1202,o),
(1227,990,o),
(1227,646,cs),
(1227,306,o),
(1051,92,o),
(764,92,cs),
(478,92,o),
(301,305,o),
(301,647,cs),
(301,987,o),
(476,1202,o),
(764,1202,cs)
);
},
{
closed = 1;
nodes = (
(359,1315,o),
(105,1046,o),
(105,646,cs),
(105,242,o),
(359,-24,o),
(772,-24,cs),
(1170,-24,o),
(1425,249,o),
(1425,646,cs),
(1425,1045,o),
(1169,1315,o),
(765,1315,cs)
);
}
);
};
layerId = m001;
shapes = (
{
alignment = -1;
pos = (338,395);
ref = circumflex;
},
{
alignment = -1;
ref = O;
}
);
userData = {
org.robofab.postScriptHintData = {
};
};
width = 1528;
},
{
background = {
shapes = (
{
closed = 1;
nodes = (
(440,1453,l),
(592,1453,l),
(788,1618,l),
(982,1453,l),
(1136,1453,l),
(915,1790,l),
(659,1790,l)
);
},
{
closed = 1;
nodes = (
(1008,1139,o),
(1113,968,o),
(1113,656,cs),
(1113,351,o),
(1012,168,o),
(788,168,cs),
(568,168,o),
(463,346,o),
(463,657,cs),
(463,957,o),
(559,1139,o),
(788,1139,cs)
);
},
{
closed = 1;
nodes = (
(343,1333,o),
(100,1036,o),
(100,655,cs),
(100,269,o),
(349,-26,o),
(792,-26,cs),
(1229,-26,o),
(1475,274,o),
(1475,655,cs),
(1475,1037,o),
(1228,1333,o),
(789,1333,cs)
);
}
);
};
layerId = "B409784F-46BD-401C-982B-E70BC129B834";
shapes = (
{
alignment = -1;
pos = (362,400);
ref = circumflex;
},
{
alignment = -1;
ref = O;
}
);
userData = {
org.robofab.postScriptHintData = {
};
};
width = 1575;
}
);
unicode = 212;
},
{
glyphname = Odblgrave;
kernLeft = O;
kernRight = O;
lastChange = "2023-08-04 09:36:57 +0000";
layers = (
{
background = {
shapes = (
{
closed = 1;
nodes = (
(1051,1202,o),
(1227,990,o),
(1227,646,cs),
(1227,306,o),
(1051,92,o),
(764,92,cs),
(478,92,o),
(301,305,o),
(301,647,cs),
(301,987,o),
(476,1202,o),
(764,1202,cs)
);
},
{
closed = 1;
nodes = (
(359,1315,o),
(105,1046,o),
(105,646,cs),
(105,242,o),
(359,-24,o),
(772,-24,cs),
(1170,-24,o),
(1425,249,o),
(1425,646,cs),
(1425,1045,o),
(1169,1315,o),
(765,1315,cs)
);
},
{
closed = 1;
nodes = (
(723,1424,l),
(515,1671,l),
(490,1696,o),
(469,1724,o),
(469,1745,cs),
(469,1772,o),
(499,1787,o),
(527,1787,cs),
(564,1787,o),
(609,1769,o),
(635,1722,cs),
(802,1424,l)
);
},
{
closed = 1;
nodes = (
(981,1424,l),
(768,1672,l),
(743,1697,o),
(723,1723,o),
(723,1745,cs),
(723,1772,o),
(753,1787,o),
(781,1787,cs),
(816,1787,o),
(856,1771,o),
(886,1729,c),
(1059,1424,l)
);
}
);
};
layerId = m001;
shapes = (
{
ref = O;
},
{
pos = (256,395);
ref = dblgravecomb;
}
);
width = 1528;
},
{
layerId = "B409784F-46BD-401C-982B-E70BC129B834";
width = 600;
}
);
unicode = 524;
},
{
glyphname = Odieresis;
kernLeft = O;
kernRight = O;
lastChange = "2023-08-04 09:35:09 +0000";
layers = (
{
background = {
shapes = (
{
closed = 1;
nodes = (
(522,1669,o),
(486,1634,o),
(486,1581,cs),
(486,1528,o),
(522,1491,o),
(577,1491,cs),
(634,1491,o),
(669,1527,o),
(669,1580,cs),
(669,1635,o),
(634,1669,o),
(578,1669,cs)
);
},
{
closed = 1;
nodes = (
(895,1669,o),
(859,1634,o),
(859,1581,cs),
(859,1528,o),
(895,1491,o),
(950,1491,cs),
(1007,1491,o),
(1043,1527,o),
(1043,1580,cs),
(1043,1634,o),
(1007,1669,o),
(951,1669,cs)
);
},
{
closed = 1;
nodes = (
(1051,1202,o),
(1227,990,o),
(1227,646,cs),
(1227,306,o),
(1051,92,o),
(764,92,cs),
(478,92,o),
(301,305,o),
(301,647,cs),
(301,987,o),
(476,1202,o),
(764,1202,cs)
);
},
{
closed = 1;
nodes = (
(359,1315,o),
(105,1046,o),
(105,646,cs),
(105,242,o),
(359,-24,o),
(772,-24,cs),
(1170,-24,o),
(1425,249,o),
(1425,646,cs),
(1425,1045,o),
(1169,1315,o),
(765,1315,cs)
);
}
);
};
layerId = m001;
shapes = (
{
alignment = -1;
pos = (338,395);
ref = dieresis;
},
{
alignment = -1;
ref = O;
}
);
userData = {
org.robofab.postScriptHintData = {
};
};
width = 1528;
},
{
background = {
shapes = (
{
closed = 1;
nodes = (
(486,1759,o),
(429,1704,o),
(429,1631,cs),
(429,1557,o),
(484,1502,o),
(560,1502,cs),
(635,1502,o),
(690,1556,o),
(690,1631,cs),
(690,1705,o),
(634,1759,o),
(561,1759,cs)
);
},
{
closed = 1;
nodes = (
(943,1759,o),
(886,1703,o),
(886,1631,cs),
(886,1558,o),
(941,1502,o),
(1017,1502,cs),
(1092,1502,o),
(1146,1557,o),
(1146,1631,cs),
(1146,1704,o),
(1091,1759,o),
(1017,1759,cs)
);
},
{
closed = 1;
nodes = (
(1008,1139,o),
(1113,968,o),
(1113,656,cs),
(1113,351,o),
(1012,168,o),
(788,168,cs),
(568,168,o),
(463,346,o),
(463,657,cs),
(463,957,o),
(559,1139,o),
(788,1139,cs)
);
},
{
closed = 1;
nodes = (
(343,1333,o),
(100,1036,o),
(100,655,cs),
(100,269,o),
(349,-26,o),
(792,-26,cs),
(1229,-26,o),
(1475,274,o),
(1475,655,cs),
(1475,1037,o),
(1228,1333,o),
(789,1333,cs)
);
}
);
};
layerId = "B409784F-46BD-401C-982B-E70BC129B834";
shapes = (
{
alignment = -1;
pos = (361,400);
ref = dieresis;
},
{
alignment = -1;
ref = O;
}
);
userData = {
org.robofab.postScriptHintData = {
};
};
width = 1575;
}
);
unicode = 214;
},
{
glyphname = Ograve;
kernLeft = O;
kernRight = O;
lastChange = "2023-08-04 09:35:09 +0000";
layers = (
{
background = {
shapes = (
{
closed = 1;
nodes = (
(1051,1202,o),
(1227,990,o),
(1227,646,cs),
(1227,306,o),
(1051,92,o),
(764,92,cs),
(478,92,o),
(301,305,o),
(301,647,cs),
(301,987,o),
(476,1202,o),
(764,1202,cs)
);
},
{
closed = 1;
nodes = (
(359,1315,o),
(105,1046,o),
(105,646,cs),
(105,242,o),
(359,-24,o),
(772,-24,cs),
(1170,-24,o),
(1425,249,o),
(1425,646,cs),
(1425,1045,o),
(1169,1315,o),
(765,1315,cs)
);
},
{
closed = 1;
nodes = (
(716,1744,o),
(676,1757,o),
(640,1757,cs),
(600,1757,o),
(566,1740,o),
(566,1719,c),
(573,1643,o),
(788,1504,o),
(878,1424,c),
(961,1424,l),
(731,1725,ls)
);
}
);
};
layerId = m001;
shapes = (
{
alignment = -1;
ref = O;
},
{
alignment = -1;
pos = (379,395);
ref = grave;
}
);
userData = {
org.robofab.postScriptHintData = {
};
};
width = 1528;
},
{
background = {
shapes = (
{
closed = 1;
nodes = (
(1008,1139,o),
(1113,968,o),
(1113,656,cs),
(1113,351,o),
(1012,168,o),
(788,168,cs),
(568,168,o),
(463,346,o),
(463,657,cs),
(463,957,o),
(559,1139,o),
(788,1139,cs)
);
},
{
closed = 1;
nodes = (
(343,1333,o),
(100,1036,o),
(100,655,cs),
(100,269,o),
(349,-26,o),
(792,-26,cs),
(1229,-26,o),
(1475,274,o),
(1475,655,cs),
(1475,1037,o),
(1228,1333,o),
(789,1333,cs)
);
},
{
closed = 1;
nodes = (
(787,1795,o),
(742,1808,o),
(697,1808,cs),
(618,1808,o),
(531,1762,o),
(531,1752,c),
(534,1717,o),
(865,1485,o),
(906,1448,c),
(1045,1448,l),
(809,1765,l)
);
}
);
};
layerId = "B409784F-46BD-401C-982B-E70BC129B834";
shapes = (
{
alignment = -1;
ref = O;
},
{
alignment = -1;
pos = (434,400);
ref = grave;
}
);
userData = {
org.robofab.postScriptHintData = {
};
};
width = 1575;
}
);
unicode = 210;
},
{
glyphname = Oinvertedbreve;
kernLeft = O;
kernRight = O;
lastChange = "2023-08-04 09:36:57 +0000";
layers = (
{
background = {
shapes = (
{
closed = 1;
nodes = (
(1051,1202,o),
(1227,990,o),
(1227,646,cs),
(1227,306,o),
(1051,92,o),
(764,92,cs),
(478,92,o),
(301,305,o),
(301,647,cs),
(301,987,o),
(476,1202,o),
(764,1202,cs)
);
},
{
closed = 1;
nodes = (
(359,1315,o),
(105,1046,o),
(105,646,cs),
(105,242,o),
(359,-24,o),
(772,-24,cs),
(1170,-24,o),
(1425,249,o),
(1425,646,cs),
(1425,1045,o),
(1169,1315,o),
(765,1315,cs)
);
},
{
closed = 1;
nodes = (
(493,1615,o),
(610,1711,o),
(764,1711,cs),
(920,1711,o),
(1035,1615,o),
(1069,1455,c),
(989,1455,l),
(955,1549,o),
(884,1593,o),
(766,1593,cs),
(646,1593,o),
(572,1549,o),
(539,1455,c),
(459,1455,l)
);
}
);
};
layerId = m001;
shapes = (
{
ref = O;
},
{
pos = (338,395);
ref = breveinvertedcomb;
}
);
width = 1528;
},
{
layerId = "B409784F-46BD-401C-982B-E70BC129B834";
width = 600;
}
);
unicode = 526;
},
{
glyphname = Oslash;
lastChange = "2023-08-04 09:34:56 +0000";
layers = (
{
background = {
shapes = (
{
closed = 1;
nodes = (
(370,89,l),
(478,10,o),
(593,-24,o),
(765,-24,cs),
(1195,-24,o),
(1425,267,o),
(1425,646,cs),
(1425,859,o),
(1360,1026,o),
(1232,1141,c),
(1375,1318,l),
(1280,1345,l),
(1162,1197,l),
(1042,1281,o),
(924,1315,o),
(765,1315,cs),
(338,1315,o),
(105,1024,o),
(105,643,cs),
(105,434,o),
(167,273,o),
(297,146,c),
(146,-45,l),
(241,-72,l)
);
},
{
closed = 1;
nodes = (
(327,388,o),
(297,497,o),
(297,643,cs),
(297,992,o),
(474,1204,o),
(767,1204,cs),
(892,1204,o),
(981,1173,o),
(1072,1091,c),
(407,282,l)
);
},
{
closed = 1;
nodes = (
(640,90,o),
(541,126,o),
(462,201,c),
(1128,1010,l),
(1196,919,o),
(1232,799,o),
(1232,650,cs),
(1232,350,o),
(1090,90,o),
(763,90,cs)
);
}
);
};
layerId = m001;
shapes = (
{
closed = 1;
nodes = (
(370,89,l),
(478,10,o),
(593,-24,o),
(765,-24,cs),
(1195,-24,o),
(1425,267,o),
(1425,646,cs),
(1425,859,o),
(1360,1026,o),
(1232,1141,c),
(1375,1318,l),
(1280,1345,l),
(1162,1197,l),
(1042,1281,o),
(924,1315,o),
(765,1315,cs),
(338,1315,o),
(105,1024,o),
(105,643,cs),
(105,434,o),
(167,273,o),
(297,146,c),
(146,-45,l),
(241,-72,l)
);
},
{
closed = 1;
nodes = (
(327,388,o),
(297,497,o),
(297,643,cs),
(297,992,o),
(474,1204,o),
(767,1204,cs),
(892,1204,o),
(981,1173,o),
(1072,1091,c),
(407,282,l)
);
},
{
closed = 1;
nodes = (
(640,90,o),
(541,126,o),
(462,201,c),
(1128,1010,l),
(1196,919,o),
(1232,799,o),
(1232,650,cs),
(1232,350,o),
(1090,90,o),
(763,90,cs)
);
}
);
userData = {
org.robofab.postScriptHintData = {
};
};
width = 1528;
},
{
background = {
shapes = (
{
closed = 1;
nodes = (
(404,72,l),
(511,4,o),
(633,-26,o),
(787,-26,cs),
(1209,-26,o),
(1475,245,o),
(1475,650,cs),
(1475,876,o),
(1400,1045,o),
(1271,1160,c),
(1393,1319,l),
(1261,1364,l),
(1164,1237,l),
(1064,1301,o),
(930,1335,o),
(787,1335,cs),
(361,1335,o),
(99,1054,o),
(99,649,cs),
(99,441,o),
(165,272,o),
(295,151,c),
(161,-27,l),
(292,-78,l)
);
},
{
closed = 1;
nodes = (
(472,491,o),
(457,562,o),
(457,649,cs),
(457,969,o),
(566,1147,o),
(788,1147,cs),
(882,1147,o),
(950,1120,o),
(1011,1051,c),
(513,421,l)
);
},
{
closed = 1;
nodes = (
(692,165,o),
(615,200,o),
(562,267,c),
(1063,901,l),
(1099,837,o),
(1116,758,o),
(1116,667,cs),
(1116,365,o),
(1025,165,o),
(787,165,cs)
);
}
);
};
layerId = "B409784F-46BD-401C-982B-E70BC129B834";
shapes = (
{
closed = 1;
nodes = (
(404,72,l),
(511,4,o),
(633,-26,o),
(787,-26,cs),
(1209,-26,o),
(1475,245,o),
(1475,650,cs),
(1475,876,o),
(1400,1045,o),
(1271,1160,c),
(1393,1319,l),
(1261,1364,l),
(1164,1237,l),
(1064,1301,o),
(930,1335,o),
(787,1335,cs),
(361,1335,o),
(99,1054,o),
(99,649,cs),
(99,441,o),
(165,272,o),
(295,151,c),
(161,-27,l),
(292,-78,l)
);
},
{
closed = 1;
nodes = (
(472,491,o),
(457,562,o),
(457,649,cs),
(457,969,o),
(566,1147,o),
(788,1147,cs),
(882,1147,o),
(950,1120,o),
(1011,1051,c),
(513,421,l)
);
},
{
closed = 1;
nodes = (
(692,165,o),
(615,200,o),
(562,267,c),
(1063,901,l),
(1099,837,o),
(1116,758,o),
(1116,667,cs),
(1116,365,o),
(1025,165,o),
(787,165,cs)
);
}
);
userData = {
org.robofab.postScriptHintData = {
};
};
width = 1575;
}
);
unicode = 216;
},
{
glyphname = Otilde;
kernLeft = O;
kernRight = O;
lastChange = "2023-08-04 09:35:09 +0000";
layers = (
{
background = {
shapes = (
{
closed = 1;
nodes = (
(1051,1202,o),
(1227,990,o),
(1227,646,cs),
(1227,306,o),
(1051,92,o),
(764,92,cs),
(478,92,o),
(301,305,o),
(301,647,cs),
(301,987,o),
(476,1202,o),
(764,1202,cs)
);
},
{
closed = 1;
nodes = (
(359,1315,o),
(105,1046,o),
(105,646,cs),
(105,242,o),
(359,-24,o),
(772,-24,cs),
(1170,-24,o),
(1425,249,o),
(1425,646,cs),
(1425,1045,o),
(1169,1315,o),
(765,1315,cs)
);
},
{
closed = 1;
nodes = (
(994,1630,o),
(961,1602,o),
(911,1602,cs),
(827,1602,o),
(728,1676,o),
(639,1676,cs),
(542,1676,o),
(478,1607,o),
(447,1474,c),
(513,1474,l),
(534,1536,o),
(566,1564,o),
(618,1564,cs),
(693,1564,o),
(798,1491,o),
(884,1491,cs),
(984,1491,o),
(1056,1564,o),
(1081,1690,c),
(1016,1690,l)
);
}
);
};
layerId = m001;
shapes = (
{
alignment = -1;
ref = O;
},
{
alignment = -1;
pos = (338,395);
ref = tilde;
}
);
userData = {
org.robofab.postScriptHintData = {
};
};
width = 1528;
},
{
background = {
shapes = (
{
closed = 1;
nodes = (
(1008,1139,o),
(1113,968,o),
(1113,656,cs),
(1113,351,o),
(1012,168,o),
(788,168,cs),
(568,168,o),
(463,346,o),
(463,657,cs),
(463,957,o),
(559,1139,o),
(788,1139,cs)
);
},
{
closed = 1;
nodes = (
(343,1333,o),
(100,1036,o),
(100,655,cs),
(100,269,o),
(349,-26,o),
(792,-26,cs),
(1229,-26,o),
(1475,274,o),
(1475,655,cs),
(1475,1037,o),
(1228,1333,o),
(789,1333,cs)
);
},
{
closed = 1;
nodes = (
(999,1699,o),
(973,1675,o),
(924,1675,cs),
(842,1675,o),
(759,1739,o),
(667,1739,cs),
(541,1739,o),
(465,1650,o),
(438,1481,c),
(556,1481,l),
(575,1534,o),
(605,1567,o),
(656,1567,cs),
(732,1567,o),
(815,1502,o),
(908,1502,cs),
(1036,1502,o),
(1117,1599,o),
(1137,1759,c),
(1020,1759,l)
);
}
);
};
layerId = "B409784F-46BD-401C-982B-E70BC129B834";
shapes = (
{
alignment = -1;
ref = O;
},
{
alignment = -1;
pos = (362,400);
ref = tilde;
}
);
userData = {
org.robofab.postScriptHintData = {
};
};
width = 1575;
}
);
unicode = 213;
},
{
glyphname = OE;
lastChange = "2023-08-04 09:34:56 +0000";
layers = (
{
background = {
shapes = (
{
closed = 1;
nodes = (
(356,1290,o),
(103,1066,o),
(103,647,cs),
(103,160,o),
(451,0,o),
(903,0,cs),
(1929,0,l),
(1929,347,l),
(1818,347,l),
(1818,127,o),
(1816,114,o),
(1755,114,cs),
(1210,114,l),
(1210,612,l),
(1563,612,ls),
(1590,612,o),
(1612,613,o),
(1612,493,c),
(1680,493,l),
(1680,816,l),
(1612,816,l),
(1612,715,o),
(1589,715,o),
(1562,715,cs),
(1210,715,l),
(1210,1180,l),
(1761,1180,ls),
(1807.178,1180,o),
(1812.414,1177.441,o),
(1812.944,1009.26,cs),
(1812.988,995.339,o),
(1813,980.283,o),
(1813,964,c),
(1925,964,l),
(1925,1290,l),
(821,1290,ls)
);
},
{
closed = 1;
nodes = (
(1028,1180,l),
(1028,112,l),
(905,112,ls),
(547,112,o),
(294,233,o),
(294,645,cs),
(294,961,o),
(436,1180,o),
(851,1180,c)
);
}
);
};
layerId = m001;
shapes = (
{
closed = 1;
nodes = (
(356,1290,o),
(103,1066,o),
(103,647,cs),
(103,160,o),
(451,0,o),
(903,0,cs),
(1929,0,l),
(1929,347,l),
(1818,347,l),
(1818,127,o),
(1816,114,o),
(1755,114,cs),
(1210,114,l),
(1210,612,l),
(1563,612,ls),
(1590,612,o),
(1612,613,o),
(1612,493,c),
(1680,493,l),
(1680,816,l),
(1612,816,l),
(1612,715,o),
(1589,715,o),
(1562,715,cs),
(1210,715,l),
(1210,1180,l),
(1761,1180,ls),
(1807.178,1180,o),
(1812.414,1177.441,o),
(1812.944,1009.26,cs),
(1812.988,995.339,o),
(1813,980.283,o),
(1813,964,c),
(1925,964,l),
(1925,1290,l),
(821,1290,ls)
);
},
{
closed = 1;
nodes = (
(1028,1180,l),
(1028,112,l),
(905,112,ls),
(547,112,o),
(294,233,o),
(294,645,cs),
(294,961,o),
(436,1180,o),
(851,1180,c)
);
}
);
userData = {
org.robofab.postScriptHintData = {
};
};
width = 2035;
},
{
background = {
shapes = (
{
closed = 1;
nodes = (
(366,1308,o),
(101,1096,o),
(101,656,cs),
(101,141,o),
(479,0,o),
(955,0,cs),
(2041,0,l),
(2041,386,l),
(1847,386,l),
(1846,218,o),
(1839,197,o),
(1794,197,cs),
(1360,197,l),
(1360,585,l),
(1620,585,ls),
(1642,585,o),
(1660,586,o),
(1660,487,c),
(1741,487,l),
(1741,841,l),
(1660,841,l),
(1660,750,o),
(1640,750,o),
(1617,750,cs),
(1360,750,l),
(1360,1112,l),
(1788,1112,ls),
(1828,1112,o),
(1840,1102,o),
(1840,993,cs),
(1840,984,o),
(1840,953,o),
(1840,942,c),
(2036,942,l),
(2036,1308,l),
(850,1308,l)
);
},
{
closed = 1;
nodes = (
(1034,1112,l),
(1034,196,l),
(907,196,ls),
(602,196,o),
(436,315,o),
(436,649,cs),
(436,963,o),
(566,1112,o),
(891,1112,cs)
);
}
);
};
layerId = "B409784F-46BD-401C-982B-E70BC129B834";
shapes = (
{
closed = 1;
nodes = (
(366,1308,o),
(101,1096,o),
(101,656,cs),
(101,141,o),
(479,0,o),
(955,0,cs),
(2041,0,l),
(2041,386,l),
(1847,386,l),
(1846,218,o),
(1839,197,o),
(1794,197,cs),
(1360,197,l),
(1360,585,l),
(1620,585,ls),
(1642,585,o),
(1660,586,o),
(1660,487,c),
(1741,487,l),
(1741,841,l),
(1660,841,l),
(1660,750,o),
(1640,750,o),
(1617,750,cs),
(1360,750,l),
(1360,1112,l),
(1788,1112,ls),
(1828,1112,o),
(1840,1102,o),
(1840,993,cs),
(1840,984,o),
(1840,953,o),
(1840,942,c),
(2036,942,l),
(2036,1308,l),
(850,1308,l)
);
},
{
closed = 1;
nodes = (
(1034,1112,l),
(1034,196,l),
(907,196,ls),
(602,196,o),
(436,315,o),
(436,649,cs),
(436,963,o),
(566,1112,o),
(891,1112,cs)
);
}
);
userData = {
org.robofab.postScriptHintData = {
};
};
width = 2148;
}
);
unicode = 338;
},
{
glyphname = P;
lastChange = "2023-08-04 09:34:56 +0000";
layers = (
{
background = {
shapes = (
{
closed = 1;
nodes = (
(55,1191,l),
(75.548,1191,o),
(93.75,1190.928,o),
(109.868,1190.655,cs),
(213.763,1188.898,o),
(231,1178.808,o),
(231,1126,cs),
(231,180,ls),
(231,128,o),
(230,99,o),
(107,99,cs),
(55,99,l),
(55,0,l),
(148,0,o),
(238,2,o),
(361,2,cs),
(464,2,o),
(519,0,o),
(591,0,c),
(591,99,l),
(540,99,ls),
(444,99,o),
(414,101,o),
(414,176,cs),
(414,551,l),
(646,551,ls),
(984,551,o),
(1117,701,o),
(1117,919,cs),
(1117,1138,o),
(971,1290,o),
(644,1290,cs),
(55,1290,l)
);
},
{
closed = 1;
nodes = (
(610,1184,ls),
(847,1184,o),
(937,1089,o),
(937,916,cs),
(937,740,o),
(829,654,o),
(605,654,cs),
(414,654,l),
(414,1184,l)
);
}
);
};
layerId = m001;
shapes = (
{
closed = 1;
nodes = (
(55,1191,l),
(75.548,1191,o),
(93.75,1190.928,o),
(109.868,1190.655,cs),
(213.763,1188.898,o),
(231,1178.808,o),
(231,1126,cs),
(231,180,ls),
(231,128,o),
(230,99,o),
(107,99,cs),
(55,99,l),
(55,0,l),
(148,0,o),
(238,2,o),
(361,2,cs),
(464,2,o),
(519,0,o),
(591,0,c),
(591,99,l),
(540,99,ls),
(444,99,o),
(414,101,o),
(414,176,cs),
(414,551,l),
(646,551,ls),
(984,551,o),
(1117,701,o),
(1117,919,cs),
(1117,1138,o),
(971,1290,o),
(644,1290,cs),
(55,1290,l)
);
},
{
closed = 1;
nodes = (
(610,1184,ls),
(847,1184,o),
(937,1089,o),
(937,916,cs),
(937,740,o),
(829,654,o),
(605,654,cs),
(414,654,l),
(414,1184,l)
);
}
);
userData = {
org.robofab.postScriptHintData = {
};
};
width = 1166;
},
{
background = {
shapes = (
{
closed = 1;
nodes = (
(69,1130,l),
(78,1130,o),
(117,1130,o),
(124,1130,cs),
(220,1129,o),
(224,1084,o),
(224,1021,cs),
(224,293,ls),
(224,195,o),
(219,178,o),
(119,178,cs),
(69,178,l),
(69,0,l),
(174,0,o),
(273,2,o),
(409,2,cs),
(533,2,o),
(613,0,o),
(705,0,c),
(705,178,l),
(655,178,ls),
(571,178,o),
(552,188,o),
(552,273,cs),
(552,539,l),
(751,539,ls),
(1166,539,o),
(1297,693,o),
(1297,920,cs),
(1297,1150,o),
(1145,1308,o),
(754,1308,cs),
(69,1308,l)
);
},
{
closed = 1;
nodes = (
(696,1127,ls),
(890,1127,o),
(965,1059,o),
(965,922,cs),
(965,783,o),
(879,715,o),
(714,715,cs),
(552,715,l),
(552,1127,l)
);
}
);
};
layerId = "B409784F-46BD-401C-982B-E70BC129B834";
shapes = (
{
closed = 1;
nodes = (
(69,1130,l),
(78,1130,o),
(117,1130,o),
(124,1130,cs),
(220,1129,o),
(224,1084,o),
(224,1021,cs),
(224,293,ls),
(224,195,o),
(219,178,o),
(119,178,cs),
(69,178,l),
(69,0,l),
(174,0,o),
(273,2,o),
(409,2,cs),
(533,2,o),
(613,0,o),
(705,0,c),
(705,178,l),
(655,178,ls),
(571,178,o),
(552,188,o),
(552,273,cs),
(552,539,l),
(751,539,ls),
(1166,539,o),
(1297,693,o),
(1297,920,cs),
(1297,1150,o),
(1145,1308,o),
(754,1308,cs),
(69,1308,l)
);
},
{
closed = 1;
nodes = (
(696,1127,ls),
(890,1127,o),
(965,1059,o),
(965,922,cs),
(965,783,o),
(879,715,o),
(714,715,cs),
(552,715,l),
(552,1127,l)
);
}
);
userData = {
org.robofab.postScriptHintData = {
};
};
width = 1353;
}
);
unicode = 80;
},
{
glyphname = Thorn;
lastChange = "2023-08-04 09:34:56 +0000";
layers = (
{
background = {
shapes = (
{
closed = 1;
nodes = (
(57,1205,l),
(110,1205,ls),
(195,1205,o),
(234,1195,o),
(234,1166,cs),
(234,158,ls),
(234,126,o),
(234,86,o),
(106,86,cs),
(57,86,l),
(57,0,l),
(150,0,o),
(230,2,o),
(354,2,c),
(459,0,o),
(520,0,o),
(593,0,c),
(593,86,l),
(544,86,ls),
(416,86,o),
(416,95,o),
(416,148,cs),
(416,292,l),
(619,292,ls),
(981,292,o),
(1119,429,o),
(1119,663,cs),
(1119,877,o),
(972,1032,o),
(649,1032,cs),
(416,1032,l),
(416,1156,ls),
(416,1203,o),
(463,1205,o),
(544,1205,cs),
(593,1205,l),
(593,1290,l),
(515,1288,o),
(434,1288,o),
(357,1288,cs),
(260,1288,o),
(141,1290,o),
(57,1290,c)
);
},
{
closed = 1;
nodes = (
(612,924,ls),
(837,924,o),
(939,835,o),
(939,659,cs),
(939,494,o),
(845,396,o),
(606,396,cs),
(416,396,l),
(416,924,l)
);
}
);
};
layerId = m001;
shapes = (
{
closed = 1;
nodes = (
(57,1205,l),
(110,1205,ls),
(195,1205,o),
(234,1195,o),
(234,1166,cs),
(234,158,ls),
(234,126,o),
(234,86,o),
(106,86,cs),
(57,86,l),
(57,0,l),
(150,0,o),
(230,2,o),
(354,2,c),
(459,0,o),
(520,0,o),
(593,0,c),
(593,86,l),
(544,86,ls),
(416,86,o),
(416,95,o),
(416,148,cs),
(416,292,l),
(619,292,ls),
(981,292,o),
(1119,429,o),
(1119,663,cs),
(1119,877,o),
(972,1032,o),
(649,1032,cs),
(416,1032,l),
(416,1156,ls),
(416,1203,o),
(463,1205,o),
(544,1205,cs),
(593,1205,l),
(593,1290,l),
(515,1288,o),
(434,1288,o),
(357,1288,cs),
(260,1288,o),
(141,1290,o),
(57,1290,c)
);
},
{
closed = 1;
nodes = (
(612,924,ls),
(837,924,o),
(939,835,o),
(939,659,cs),
(939,494,o),
(845,396,o),
(606,396,cs),
(416,396,l),
(416,924,l)
);
}
);
userData = {
org.robofab.postScriptHintData = {
};
};
width = 1174;
},
{
background = {
shapes = (
{
closed = 1;
nodes = (
(73,1196,l),
(133,1196,ls),
(207,1196,o),
(227,1134,o),
(227,1059,cs),
(227,343,ls),
(227,315,o),
(229,286,o),
(229,259,cs),
(229,178,o),
(225,111,o),
(112,111,cs),
(73,111,l),
(73,0,l),
(179,0,o),
(271,2,o),
(412,2,c),
(538,1,o),
(617,0,o),
(709,0,c),
(709,111,l),
(674,111,ls),
(580,111,o),
(555,130,o),
(555,227,cs),
(555,278,l),
(737,278,ls),
(1183,278,o),
(1300,438,o),
(1300,667,cs),
(1300,890,o),
(1150,1056,o),
(773,1056,cs),
(555,1056,l),
(555,1105,ls),
(555,1190,o),
(604,1196,o),
(672,1196,cs),
(707,1196,l),
(707,1308,l),
(612,1306,o),
(517,1305,o),
(426,1305,cs),
(321,1305,o),
(112,1308,o),
(73,1308,c)
);
},
{
closed = 1;
nodes = (
(698,873,ls),
(890,873,o),
(968,807,o),
(968,671,cs),
(968,534,o),
(891,458,o),
(713,458,cs),
(555,458,l),
(555,873,l)
);
}
);
};
layerId = "B409784F-46BD-401C-982B-E70BC129B834";
shapes = (
{
closed = 1;
nodes = (
(73,1196,l),
(133,1196,ls),
(207,1196,o),
(227,1134,o),
(227,1059,cs),
(227,343,ls),
(227,315,o),
(229,286,o),
(229,259,cs),
(229,178,o),
(225,111,o),
(112,111,cs),
(73,111,l),
(73,0,l),
(179,0,o),
(271,2,o),
(412,2,c),
(538,1,o),
(617,0,o),
(709,0,c),
(709,111,l),
(674,111,ls),
(580,111,o),
(555,130,o),
(555,227,cs),
(555,278,l),
(737,278,ls),
(1183,278,o),
(1300,438,o),
(1300,667,cs),
(1300,890,o),
(1150,1056,o),
(773,1056,cs),
(555,1056,l),
(555,1105,ls),
(555,1190,o),
(604,1196,o),
(672,1196,cs),
(707,1196,l),
(707,1308,l),
(612,1306,o),
(517,1305,o),
(426,1305,cs),
(321,1305,o),
(112,1308,o),
(73,1308,c)
);
},
{
closed = 1;
nodes = (
(698,873,ls),
(890,873,o),
(968,807,o),
(968,671,cs),
(968,534,o),
(891,458,o),
(713,458,cs),
(555,458,l),
(555,873,l)
);
}
);
userData = {
org.robofab.postScriptHintData = {
};
};
width = 1357;
}
);
unicode = 222;
},
{
glyphname = Q;
lastChange = "2023-08-04 09:34:56 +0000";
layers = (
{
background = {
shapes = (
{
closed = 1;
nodes = (
(1258,-280,o),
(1272,-280,o),
(1286,-281,c),
(1320,-177,l),
(1110,-153,o),
(1020,-76,o),
(876,-18,c),
(873,-18,o),
(870,-16,o),
(867,-15,c),
(1208,22,o),
(1425,285,o),
(1425,646,cs),
(1425,1044,o),
(1168,1315,o),
(767,1315,cs),
(360,1315,o),
(105,1045,o),
(105,645,cs),
(105,285,o),
(306,40,o),
(658,-14,c),
(615,-18,o),
(523,-57,o),
(493,-83,c),
(503,-96,o),
(531,-131,o),
(541,-144,c),
(565,-127,o),
(629,-84,o),
(710,-84,c),
(829,-84,o),
(980,-257,o),
(1244,-279,cs)
);
},
{
closed = 1;
nodes = (
(475,92,o),
(301,313,o),
(301,649,cs),
(301,984,o),
(476,1202,o),
(764,1202,cs),
(1049,1202,o),
(1227,990,o),
(1227,648,cs),
(1227,309,o),
(1049,92,o),
(764,92,cs)
);
}
);
};
layerId = m001;
shapes = (
{
closed = 1;
nodes = (
(1258,-280,o),
(1272,-280,o),
(1286,-281,c),
(1320,-177,l),
(1110,-153,o),
(1020,-76,o),
(876,-18,c),
(873,-18,o),
(870,-16,o),
(867,-15,c),
(1208,22,o),
(1425,285,o),
(1425,646,cs),
(1425,1044,o),
(1168,1315,o),
(767,1315,cs),
(360,1315,o),
(105,1045,o),
(105,645,cs),
(105,285,o),
(306,40,o),
(658,-14,c),
(615,-18,o),
(523,-57,o),
(493,-83,c),
(503,-96,o),
(531,-131,o),
(541,-144,c),
(565,-127,o),
(629,-84,o),
(710,-84,c),
(829,-84,o),
(980,-257,o),
(1244,-279,cs)
);
},
{
closed = 1;
nodes = (
(475,92,o),
(301,313,o),
(301,649,cs),
(301,984,o),
(476,1202,o),
(764,1202,cs),
(1049,1202,o),
(1227,990,o),
(1227,648,cs),
(1227,309,o),
(1049,92,o),
(764,92,cs)
);
}
);
userData = {
com.typemytype.robofont.layerData = {
b = {
anchors = (
);
components = (
);
contours = (
);
lib = {
};
name = Q;
unicodes = (
);
width = 1528;
};
};
org.robofab.postScriptHintData = {
};
};
width = 1528;
},
{
background = {
shapes = (
{
closed = 1;
nodes = (
(1287,-349,o),
(1301,-349,o),
(1315,-348,c),
(1382,-127,l),
(1104,-127,o),
(1030,-57,o),
(875,-20,cs),
(874,-20,o),
(872,-18,o),
(871,-18,c),
(1267,15,o),
(1475,317,o),
(1475,656,cs),
(1475,1037,o),
(1225,1333,o),
(790,1333,cs),
(349,1333,o),
(100,1038,o),
(100,655,cs),
(100,301,o),
(309,36,o),
(647,-13,c),
(585,-18,o),
(540,-34,o),
(502,-80,c),
(573,-207,l),
(597,-180,o),
(638,-168,o),
(679,-168,c),
(871,-168,o),
(1040,-349,o),
(1274,-349,cs)
);
},
{
closed = 1;
nodes = (
(566,168,o),
(463,350,o),
(463,658,cs),
(463,949,o),
(559,1139,o),
(788,1139,cs),
(1007,1139,o),
(1113,962,o),
(1113,657,cs),
(1113,353,o),
(1011,168,o),
(788,168,cs)
);
}
);
};
layerId = "B409784F-46BD-401C-982B-E70BC129B834";
shapes = (
{
closed = 1;
nodes = (
(1287,-349,o),
(1301,-349,o),
(1315,-348,c),
(1382,-127,l),
(1104,-127,o),
(1030,-57,o),
(875,-20,cs),
(874,-20,o),
(872,-18,o),
(871,-18,c),
(1267,15,o),
(1475,317,o),
(1475,656,cs),
(1475,1037,o),
(1225,1333,o),
(790,1333,cs),
(349,1333,o),
(100,1038,o),
(100,655,cs),
(100,301,o),
(309,36,o),
(647,-13,c),
(585,-18,o),
(540,-34,o),
(502,-80,c),
(573,-207,l),
(597,-180,o),
(638,-168,o),
(679,-168,c),
(871,-168,o),
(1040,-349,o),
(1274,-349,cs)
);
},
{
closed = 1;
nodes = (
(566,168,o),
(463,350,o),
(463,658,cs),
(463,949,o),
(559,1139,o),
(788,1139,cs),
(1007,1139,o),
(1113,962,o),
(1113,657,cs),
(1113,353,o),
(1011,168,o),
(788,168,cs)
);
}
);
userData = {
com.typemytype.robofont.layerData = {
};
org.robofab.postScriptHintData = {
};
};
width = 1575;
}
);
unicode = 81;
},
{
glyphname = R;
kernLeft = R;
kernRight = R;
lastChange = "2023-08-04 09:34:56 +0000";
layers = (
{
background = {
shapes = (
{
closed = 1;
nodes = (
(970,519,o),
(908,589,o),
(829,649,c),
(1009,687,o),
(1112,799,o),
(1112,958,cs),
(1112,1231,o),
(889,1290,o),
(597,1290,cs),
(46,1290,l),
(46,1191,l),
(65.163,1191,o),
(82.324,1190.976,o),
(97.691,1190.852,cs),
(222.656,1189.843,o),
(229,1182.211,o),
(229,1127,cs),
(229,163,ls),
(229,121,o),
(229,99,o),
(96,99,cs),
(46,99,l),
(46,0,l),
(132,0,o),
(212,2,o),
(330,2,c),
(440,0,o),
(509,0,o),
(589,0,c),
(589,99,l),
(537,99,ls),
(440,99,o),
(411,99,o),
(411,151,cs),
(411,614,l),
(543,614,ls),
(610,614,o),
(664,608,o),
(704,593,c),
(741,539,o),
(786,471,o),
(810,385,cs),
(877,143,o),
(919,-24,o),
(1113,-24,cs),
(1251,-24,o),
(1331,63,o),
(1331,201,c),
(1230,192,l),
(1230,111,o),
(1186,96,o),
(1146,96,cs),
(1072,96,o),
(1050,173,o),
(1009,349,cs)
);
},
{
closed = 1;
nodes = (
(566,1182,ls),
(801,1182,o),
(931,1142,o),
(931,947,cs),
(931,776,o),
(845,711,o),
(629,711,cs),
(411,711,l),
(411,1182,l)
);
}
);
};
layerId = m001;
shapes = (
{
closed = 1;
nodes = (
(970,519,o),
(908,589,o),
(829,649,c),
(1009,687,o),
(1112,799,o),
(1112,958,cs),
(1112,1231,o),
(889,1290,o),
(597,1290,cs),
(46,1290,l),
(46,1191,l),
(65.163,1191,o),
(82.324,1190.976,o),
(97.691,1190.852,cs),
(222.656,1189.843,o),
(229,1182.211,o),
(229,1127,cs),
(229,163,ls),
(229,121,o),
(229,99,o),
(96,99,cs),
(46,99,l),
(46,0,l),
(132,0,o),
(212,2,o),
(330,2,c),
(440,0,o),
(509,0,o),
(589,0,c),
(589,99,l),
(537,99,ls),
(440,99,o),
(411,99,o),
(411,151,cs),
(411,614,l),
(543,614,ls),
(610,614,o),
(664,608,o),
(704,593,c),
(741,539,o),
(786,471,o),
(810,385,cs),
(877,143,o),
(919,-24,o),
(1113,-24,cs),
(1251,-24,o),
(1331,63,o),
(1331,201,c),
(1230,192,l),
(1230,111,o),
(1186,96,o),
(1146,96,cs),
(1072,96,o),
(1050,173,o),
(1009,349,cs)
);
},
{
closed = 1;
nodes = (
(566,1182,ls),
(801,1182,o),
(931,1142,o),
(931,947,cs),
(931,776,o),
(845,711,o),
(629,711,cs),
(411,711,l),
(411,1182,l)
);
}
);
userData = {
org.robofab.postScriptHintData = {
};
};
width = 1327;
},
{
background = {
shapes = (
{
closed = 1;
nodes = (
(1175,546,o),
(1105,611,o),
(1025,649,c),
(1192,687,o),
(1292,803,o),
(1292,948,cs),
(1292,1258,o),
(1000,1308,o),
(709,1308,cs),
(70,1308,l),
(70,1130,l),
(76,1130,o),
(92,1130,o),
(97,1130,cs),
(212,1130,o),
(216,1101,o),
(216,1027,cs),
(216,280,ls),
(216,213,o),
(218,178,o),
(102,178,cs),
(70,178,l),
(70,0,l),
(162,0,o),
(237,2,o),
(366,2,c),
(497,1,o),
(587,0,o),
(686,0,c),
(686,178,l),
(642,178,ls),
(563,178,o),
(543,188,o),
(543,250,cs),
(544,587,l),
(631,587,ls),
(705,587,o),
(754,579,o),
(790,550,c),
(823,504,o),
(851,435,o),
(871,329,c),
(917,90,o),
(1009,-26,o),
(1215,-26,cs),
(1387.741,-26,o),
(1494,80.915,o),
(1494,270,c),
(1378,256,l),
(1378,193,o),
(1353,168,o),
(1307,168,cs),
(1242,168,o),
(1224,228,o),
(1201,362,c)
);
},
{
closed = 1;
nodes = (
(668,1125,ls),
(859,1125,o),
(960,1085,o),
(960,927,cs),
(960,779,o),
(877,732,o),
(698,732,cs),
(543,732,l),
(543,1125,l)
);
}
);
};
layerId = "B409784F-46BD-401C-982B-E70BC129B834";
shapes = (
{
closed = 1;
nodes = (
(1175,546,o),
(1105,611,o),
(1025,649,c),
(1192,687,o),
(1292,803,o),
(1292,948,cs),
(1292,1258,o),
(1000,1308,o),
(709,1308,cs),
(70,1308,l),
(70,1130,l),
(76,1130,o),
(92,1130,o),
(97,1130,cs),
(212,1130,o),
(216,1101,o),
(216,1027,cs),
(216,280,ls),
(216,213,o),
(218,178,o),
(102,178,cs),
(70,178,l),
(70,0,l),
(162,0,o),
(237,2,o),
(366,2,c),
(497,1,o),
(587,0,o),
(686,0,c),
(686,178,l),
(642,178,ls),
(563,178,o),
(543,188,o),
(543,250,cs),
(544,587,l),
(631,587,ls),
(705,587,o),
(754,579,o),
(790,550,c),
(823,504,o),
(851,435,o),
(871,329,c),
(917,90,o),
(1009,-26,o),
(1215,-26,cs),
(1387.741,-26,o),
(1494,80.915,o),
(1494,270,c),
(1378,256,l),
(1378,193,o),
(1353,168,o),
(1307,168,cs),
(1242,168,o),
(1224,228,o),
(1201,362,c)
);
},
{
closed = 1;
nodes = (
(668,1125,ls),
(859,1125,o),
(960,1085,o),
(960,927,cs),
(960,779,o),
(877,732,o),
(698,732,cs),
(543,732,l),
(543,1125,l)
);
}
);
userData = {
org.robofab.postScriptHintData = {
};
};
width = 1474;
}
);
unicode = 82;
},
{
glyphname = Rdblgrave;
kernLeft = R;
kernRight = R;
lastChange = "2023-08-04 09:36:57 +0000";
layers = (
{
background = {
shapes = (
{
closed = 1;
nodes = (
(970,519,o),
(908,589,o),
(829,649,c),
(1009,687,o),
(1112,799,o),
(1112,958,cs),
(1112,1231,o),
(889,1290,o),
(597,1290,cs),
(46,1290,l),
(46,1191,l),
(65.163,1191,o),
(82.324,1190.976,o),
(97.691,1190.852,cs),
(222.656,1189.843,o),
(229,1182.211,o),
(229,1127,cs),
(229,163,ls),
(229,121,o),
(229,99,o),
(96,99,cs),
(46,99,l),
(46,0,l),
(132,0,o),
(212,2,o),
(330,2,c),
(440,0,o),
(509,0,o),
(589,0,c),
(589,99,l),
(537,99,ls),
(440,99,o),
(411,99,o),
(411,151,cs),
(411,614,l),
(543,614,ls),
(610,614,o),
(664,608,o),
(704,593,c),
(741,539,o),
(786,471,o),
(810,385,cs),
(877,143,o),
(919,-24,o),
(1113,-24,cs),
(1251,-24,o),
(1331,63,o),
(1331,201,c),
(1230,192,l),
(1230,111,o),
(1186,96,o),
(1146,96,cs),
(1072,96,o),
(1050,173,o),
(1009,349,cs)
);
},
{
closed = 1;
nodes = (
(566,1182,ls),
(801,1182,o),
(931,1142,o),
(931,947,cs),
(931,776,o),
(845,711,o),
(629,711,cs),
(411,711,l),
(411,1182,l)
);
},
{
closed = 1;
nodes = (
(622,1424,l),
(414,1671,l),
(389,1696,o),
(368,1724,o),
(368,1745,cs),
(368,1772,o),
(398,1787,o),
(426,1787,cs),
(463,1787,o),
(508,1769,o),
(534,1722,cs),
(701,1424,l)
);
},
{
closed = 1;
nodes = (
(880,1424,l),
(667,1672,l),
(642,1697,o),
(622,1723,o),
(622,1745,cs),
(622,1772,o),
(652,1787,o),
(680,1787,cs),
(715,1787,o),
(755,1771,o),
(785,1729,c),
(958,1424,l)
);
}
);
};
layerId = m001;
shapes = (
{
ref = R;
},
{
pos = (155,395);
ref = dblgravecomb;
}
);
width = 1327;
},
{
layerId = "B409784F-46BD-401C-982B-E70BC129B834";
width = 600;
}
);
unicode = 528;
},
{
glyphname = Rinvertedbreve;
kernLeft = R;
kernRight = R;
lastChange = "2023-08-04 09:36:57 +0000";
layers = (
{
background = {
shapes = (
{
closed = 1;
nodes = (
(970,519,o),
(908,589,o),
(829,649,c),
(1009,687,o),
(1112,799,o),
(1112,958,cs),
(1112,1231,o),
(889,1290,o),
(597,1290,cs),
(46,1290,l),
(46,1191,l),
(65.163,1191,o),
(82.324,1190.976,o),
(97.691,1190.852,cs),
(222.656,1189.843,o),
(229,1182.211,o),
(229,1127,cs),
(229,163,ls),
(229,121,o),
(229,99,o),
(96,99,cs),
(46,99,l),
(46,0,l),
(132,0,o),
(212,2,o),
(330,2,c),
(440,0,o),
(509,0,o),
(589,0,c),
(589,99,l),
(537,99,ls),
(440,99,o),
(411,99,o),
(411,151,cs),
(411,614,l),
(543,614,ls),
(610,614,o),
(664,608,o),
(704,593,c),
(741,539,o),
(786,471,o),
(810,385,cs),
(877,143,o),
(919,-24,o),
(1113,-24,cs),
(1251,-24,o),
(1331,63,o),
(1331,201,c),
(1230,192,l),
(1230,111,o),
(1186,96,o),
(1146,96,cs),
(1072,96,o),
(1050,173,o),
(1009,349,cs)
);
},
{
closed = 1;
nodes = (
(566,1182,ls),
(801,1182,o),
(931,1142,o),
(931,947,cs),
(931,776,o),
(845,711,o),
(629,711,cs),
(411,711,l),
(411,1182,l)
);
},
{
closed = 1;
nodes = (
(392,1615,o),
(509,1711,o),
(663,1711,cs),
(819,1711,o),
(934,1615,o),
(968,1455,c),
(888,1455,l),
(854,1549,o),
(783,1593,o),
(665,1593,cs),
(545,1593,o),
(471,1549,o),
(438,1455,c),
(358,1455,l)
);
}
);
};
layerId = m001;
shapes = (
{
ref = R;
},
{
pos = (237,395);
ref = breveinvertedcomb;
}
);
width = 1327;
},
{
layerId = "B409784F-46BD-401C-982B-E70BC129B834";
width = 600;
}
);
unicode = 530;
},
{
glyphname = S;
kernLeft = S;
kernRight = S;
lastChange = "2023-08-04 09:34:56 +0000";
layers = (
{
background = {
shapes = (
{
closed = 1;
nodes = (
(944,1284,o),
(894,1285,o),
(862,1285,cs),
(862,1285,o),
(862,1226,o),
(862,1202,c),
(756,1292,o),
(649,1314,o),
(517,1314,cs),
(262,1314,o),
(107,1165,o),
(107,975,cs),
(107,806,o),
(209,714,o),
(406,639,cs),
(631,553,o),
(859,522,o),
(859,329,cs),
(859,183,o),
(737,88,o),
(560,88,cs),
(330.5,88,o),
(230.508,202.219,o),
(220.791,378.63,cs),
(220.261,388.238,o),
(220,398.031,o),
(220,408,c),
(100,408,l),
(100,0,l),
(132,0,o),
(188,0,o),
(232,0,c),
(232,117,l),
(302,30,o),
(436,-24,o),
(615,-24,cs),
(871,-24,o),
(1040,138,o),
(1040,349,cs),
(1040,530,o),
(926,626,o),
(760,689,cs),
(520,779,o),
(281,809,o),
(281,999,cs),
(281,1120,o),
(383,1208,o),
(552,1208,cs),
(738,1208,o),
(862,1121,o),
(867,982,cs),
(867,969,o),
(868,955,o),
(869,941,c),
(986,941,l),
(986,1284,l)
);
}
);
};
layerId = m001;
shapes = (
{
closed = 1;
nodes = (
(944,1284,o),
(894,1285,o),
(862,1285,cs),
(862,1285,o),
(862,1226,o),
(862,1202,c),
(756,1292,o),
(649,1314,o),
(517,1314,cs),
(262,1314,o),
(107,1165,o),
(107,975,cs),
(107,806,o),
(209,714,o),
(406,639,cs),
(631,553,o),
(859,522,o),
(859,329,cs),
(859,183,o),
(737,88,o),
(560,88,cs),
(330.5,88,o),
(230.508,202.219,o),
(220.791,378.63,cs),
(220.261,388.238,o),
(220,398.031,o),
(220,408,c),
(100,408,l),
(100,0,l),
(132,0,o),
(188,0,o),
(232,0,c),
(232,117,l),
(302,30,o),
(436,-24,o),
(615,-24,cs),
(871,-24,o),
(1040,138,o),
(1040,349,cs),
(1040,530,o),
(926,626,o),
(760,689,cs),
(520,779,o),
(281,809,o),
(281,999,cs),
(281,1120,o),
(383,1208,o),
(552,1208,cs),
(738,1208,o),
(862,1121,o),
(867,982,cs),
(867,969,o),
(868,955,o),
(869,941,c),
(986,941,l),
(986,1284,l)
);
}
);
userData = {
org.robofab.postScriptHintData = {
};
};
width = 1135;
},
{
background = {
shapes = (
{
closed = 1;
nodes = (
(999,1308,o),
(892,1309,o),
(877,1309,cs),
(877,1309,o),
(878,1264,o),
(878,1228,c),
(776,1309,o),
(655,1333,o),
(536,1333,cs),
(260,1333,o),
(98,1171,o),
(98,961,cs),
(98,794,o),
(198,682,o),
(409,595,cs),
(604,515,o),
(806,477,o),
(806,324,cs),
(806,211,o),
(716,146,o),
(580,146,cs),
(402,146,o),
(329,223,o),
(302,358,cs),
(298,373,o),
(294,389,o),
(290,406,c),
(98,406,l),
(98,0,l),
(113,0,o),
(244,0,o),
(317,0,c),
(317,98,l),
(397,21,o),
(532,-26,o),
(666,-26,cs),
(944,-26,o),
(1113,153,o),
(1113,363,cs),
(1113,561,o),
(983,663,o),
(829,728,cs),
(594,829,o),
(393,860,o),
(393,1011,cs),
(393,1109,o),
(475,1176,o),
(605,1176,cs),
(765,1176,o),
(837,1111,o),
(860,992,cs),
(864,976,o),
(867,960,o),
(872,943,c),
(1064,943,l),
(1064,1308,l)
);
}
);
};
layerId = "B409784F-46BD-401C-982B-E70BC129B834";
shapes = (
{
closed = 1;
nodes = (
(999,1308,o),
(892,1309,o),
(877,1309,cs),
(877,1309,o),
(878,1264,o),
(878,1228,c),
(776,1309,o),
(655,1333,o),
(536,1333,cs),
(260,1333,o),
(98,1171,o),
(98,961,cs),
(98,794,o),
(198,682,o),
(409,595,cs),
(604,515,o),
(806,477,o),
(806,324,cs),
(806,211,o),
(716,146,o),
(580,146,cs),
(402,146,o),
(329,223,o),
(302,358,cs),
(298,373,o),
(294,389,o),
(290,406,c),
(98,406,l),
(98,0,l),
(113,0,o),
(244,0,o),
(317,0,c),
(317,98,l),
(397,21,o),
(532,-26,o),
(666,-26,cs),
(944,-26,o),
(1113,153,o),
(1113,363,cs),
(1113,561,o),
(983,663,o),
(829,728,cs),
(594,829,o),
(393,860,o),
(393,1011,cs),
(393,1109,o),
(475,1176,o),
(605,1176,cs),
(765,1176,o),
(837,1111,o),
(860,992,cs),
(864,976,o),
(867,960,o),
(872,943,c),
(1064,943,l),
(1064,1308,l)
);
}
);
userData = {
org.robofab.postScriptHintData = {
};
};
width = 1199;
}
);
unicode = 83;
},
{
glyphname = Scaron;
kernLeft = S;
kernRight = S;
lastChange = "2023-08-04 09:35:09 +0000";
layers = (
{
background = {
shapes = (
{
closed = 1;
nodes = (
(495,1429,l),
(631,1429,l),
(870,1746,l),
(785,1746,l),
(564,1548,l),
(348,1746,l),
(265,1746,l)
);
},
{
closed = 1;
nodes = (
(944,1284,o),
(894,1285,o),
(862,1285,cs),
(862,1285,o),
(862,1226,o),
(862,1202,c),
(756,1292,o),
(649,1314,o),
(517,1314,cs),
(262,1314,o),
(107,1165,o),
(107,975,cs),
(107,806,o),
(209,714,o),
(406,639,cs),
(631,553,o),
(859,522,o),
(859,329,cs),
(859,183,o),
(737,88,o),
(560,88,cs),
(330.5,88,o),
(230.508,202.219,o),
(220.791,378.63,cs),
(220.261,388.238,o),
(220,398.031,o),
(220,408,c),
(100,408,l),
(100,0,l),
(132,0,o),
(188,0,o),
(232,0,c),
(232,117,l),
(302,30,o),
(436,-24,o),
(615,-24,cs),
(871,-24,o),
(1040,138,o),
(1040,349,cs),
(1040,530,o),
(926,626,o),
(760,689,cs),
(520,779,o),
(281,809,o),
(281,999,cs),
(281,1120,o),
(383,1208,o),
(552,1208,cs),
(738,1208,o),
(862,1121,o),
(867,982,cs),
(867,969,o),
(868,955,o),
(869,941,c),
(986,941,l),
(986,1284,l)
);
}
);
};
layerId = m001;
shapes = (
{
alignment = -1;
pos = (141,395);
ref = caron;
},
{
alignment = -1;
ref = S;
}
);
userData = {
org.robofab.postScriptHintData = {
};
};
width = 1135;
},
{
background = {
shapes = (
{
closed = 1;
nodes = (
(469,1454,l),
(726,1454,l),
(947,1791,l),
(794,1791,l),
(598,1624,l),
(403,1791,l),
(251,1791,l)
);
},
{
closed = 1;
nodes = (
(999,1308,o),
(892,1309,o),
(877,1309,cs),
(877,1309,o),
(878,1264,o),
(878,1228,c),
(776,1309,o),
(655,1333,o),
(536,1333,cs),
(260,1333,o),
(98,1171,o),
(98,961,cs),
(98,794,o),
(198,682,o),
(409,595,cs),
(604,515,o),
(806,477,o),
(806,324,cs),
(806,211,o),
(716,146,o),
(580,146,cs),
(402,146,o),
(329,223,o),
(302,358,cs),
(298,373,o),
(294,389,o),
(290,406,c),
(98,406,l),
(98,0,l),
(113,0,o),
(244,0,o),
(317,0,c),
(317,98,l),
(397,21,o),
(532,-26,o),
(666,-26,cs),
(944,-26,o),
(1113,153,o),
(1113,363,cs),
(1113,561,o),
(983,663,o),
(829,728,cs),
(594,829,o),
(393,860,o),
(393,1011,cs),
(393,1109,o),
(475,1176,o),
(605,1176,cs),
(765,1176,o),
(837,1111,o),
(860,992,cs),
(864,976,o),
(867,960,o),
(872,943,c),
(1064,943,l),
(1064,1308,l)
);
}
);
};
layerId = "B409784F-46BD-401C-982B-E70BC129B834";
shapes = (
{
alignment = -1;
pos = (173,400);
ref = caron;
},
{
alignment = -1;
ref = S;
}
);
userData = {
org.robofab.postScriptHintData = {
};
};
width = 1199;
}
);
unicode = 352;
},
{
glyphname = Scommaaccent;
kernLeft = S;
kernRight = S;
lastChange = "2023-08-04 09:36:57 +0000";
layers = (
{
background = {
shapes = (
{
closed = 1;
nodes = (
(944,1284,o),
(894,1285,o),
(862,1285,cs),
(862,1285,o),
(862,1226,o),
(862,1202,c),
(756,1292,o),
(649,1314,o),
(517,1314,cs),
(262,1314,o),
(107,1165,o),
(107,975,cs),
(107,806,o),
(209,714,o),
(406,639,cs),
(631,553,o),
(859,522,o),
(859,329,cs),
(859,183,o),
(737,88,o),
(560,88,cs),
(330.5,88,o),
(230.508,202.219,o),
(220.791,378.63,cs),
(220.261,388.238,o),
(220,398.031,o),
(220,408,c),
(100,408,l),
(100,0,l),
(132,0,o),
(188,0,o),
(232,0,c),
(232,117,l),
(302,30,o),
(436,-24,o),
(615,-24,cs),
(871,-24,o),
(1040,138,o),
(1040,349,cs),
(1040,530,o),
(926,626,o),
(760,689,cs),
(520,779,o),
(281,809,o),
(281,999,cs),
(281,1120,o),
(383,1208,o),
(552,1208,cs),
(738,1208,o),
(862,1121,o),
(867,982,cs),
(867,969,o),
(868,955,o),
(869,941,c),
(986,941,l),
(986,1284,l)
);
},
{
closed = 1;
nodes = (
(488,-357,l),
(555,-362,l),
(544,-455,o),
(531,-521,o),
(483,-554,c),
(541,-608,l),
(623,-572,o),
(673,-482,o),
(697,-367,cs),
(737,-176,l),
(511,-176,l)
);
}
);
};
layerId = m001;
shapes = (
{
ref = S;
},
{
pos = (336,0);
ref = commaaccentcomb;
}
);
width = 1135;
},
{
layerId = "B409784F-46BD-401C-982B-E70BC129B834";
width = 600;
}
);
unicode = 536;
},
{
glyphname = T;
kernLeft = T;
kernRight = T;
lastChange = "2023-08-04 09:34:56 +0000";
layers = (
{
background = {
shapes = (
{
closed = 1;
nodes = (
(72,904,l),
(177,904,l),
(177,968,o),
(176,1061,o),
(176,1121,cs),
(176,1159,o),
(180,1176,o),
(330,1176,cs),
(547,1176,l),
(547,168,ls),
(547,131,o),
(547,99,o),
(422,99,cs),
(367,99,l),
(367,0,l),
(440,0,o),
(635,2,o),
(652,2,cs),
(764,0,o),
(831,0,o),
(909,0,c),
(909,99,l),
(853,99,ls),
(731,99,o),
(729,113,o),
(729,157,cs),
(729,1176,l),
(931,1176,ls),
(1091,1176,o),
(1094,1166,o),
(1094,1110,cs),
(1094,904,l),
(1200,904,l),
(1200,1290,l),
(1110,1290,o),
(950,1288,o),
(858,1288,cs),
(472,1288,ls),
(386,1288,o),
(72,1289,o),
(72,1290,c)
);
}
);
};
layerId = m001;
shapes = (
{
closed = 1;
nodes = (
(72,904,l),
(177,904,l),
(177,968,o),
(176,1061,o),
(176,1121,cs),
(176,1159,o),
(180,1176,o),
(330,1176,cs),
(547,1176,l),
(547,168,ls),
(547,131,o),
(547,99,o),
(422,99,cs),
(367,99,l),
(367,0,l),
(440,0,o),
(635,2,o),
(652,2,cs),
(764,0,o),
(831,0,o),
(909,0,c),
(909,99,l),
(853,99,ls),
(731,99,o),
(729,113,o),
(729,157,cs),
(729,1176,l),
(931,1176,ls),
(1091,1176,o),
(1094,1166,o),
(1094,1110,cs),
(1094,904,l),
(1200,904,l),
(1200,1290,l),
(1110,1290,o),
(950,1288,o),
(858,1288,cs),
(472,1288,ls),
(386,1288,o),
(72,1289,o),
(72,1290,c)
);
}
);
userData = {
com.typemytype.robofont.layerData = {
b = {
anchors = (
);
components = (
);
contours = (
);
lib = {
};
name = T;
unicodes = (
);
width = 1272;
};
};
org.robofab.postScriptHintData = {
};
};
width = 1272;
},
{
background = {
shapes = (
{
closed = 1;
nodes = (
(57,866,l),
(214,866,l),
(213,907,o),
(213,1005,o),
(213,1033,cs),
(213,1095,o),
(230,1111,o),
(340,1111,cs),
(500,1111,l),
(500,291,ls),
(500,237,o),
(502,178,o),
(404,178,cs),
(348,178,l),
(348,0,l),
(443,0,o),
(575,2,o),
(667,2,c),
(802,1,o),
(880,0,o),
(979,0,c),
(979,178,l),
(923,178,ls),
(834,178,o),
(827,225,o),
(827,255,cs),
(827,1111,l),
(952,1111,ls),
(1097,1111,o),
(1109,1094,o),
(1109,1001,cs),
(1109,866,l),
(1267,866,l),
(1267,1308,l),
(1159,1308,o),
(1016,1306,o),
(901,1306,cs),
(523,1306,l),
(394,1306,o),
(57,1308,o),
(57,1308,c)
);
}
);
};
layerId = "B409784F-46BD-401C-982B-E70BC129B834";
shapes = (
{
closed = 1;
nodes = (
(57,866,l),
(214,866,l),
(213,907,o),
(213,1005,o),
(213,1033,cs),
(213,1095,o),
(230,1111,o),
(340,1111,cs),
(500,1111,l),
(500,291,ls),
(500,237,o),
(502,178,o),
(404,178,cs),
(348,178,l),
(348,0,l),
(443,0,o),
(575,2,o),
(667,2,c),
(802,1,o),
(880,0,o),
(979,0,c),
(979,178,l),
(923,178,ls),
(834,178,o),
(827,225,o),
(827,255,cs),
(827,1111,l),
(952,1111,ls),
(1097,1111,o),
(1109,1094,o),
(1109,1001,cs),
(1109,866,l),
(1267,866,l),
(1267,1308,l),
(1159,1308,o),
(1016,1306,o),
(901,1306,cs),
(523,1306,l),
(394,1306,o),
(57,1308,o),
(57,1308,c)
);
}
);
userData = {
com.typemytype.robofont.layerData = {
};
org.robofab.postScriptHintData = {
};
};
width = 1324;
}
);
unicode = 84;
},
{
glyphname = Tcommaaccent;
kernLeft = T;
kernRight = T;
lastChange = "2023-08-04 09:36:57 +0000";
layers = (
{
background = {
shapes = (
{
closed = 1;
nodes = (
(72,904,l),
(177,904,l),
(177,968,o),
(176,1061,o),
(176,1121,cs),
(176,1159,o),
(180,1176,o),
(330,1176,cs),
(547,1176,l),
(547,168,ls),
(547,131,o),
(547,99,o),
(422,99,cs),
(367,99,l),
(367,0,l),
(440,0,o),
(635,2,o),
(652,2,cs),
(764,0,o),
(831,0,o),
(909,0,c),
(909,99,l),
(853,99,ls),
(731,99,o),
(729,113,o),
(729,157,cs),
(729,1176,l),
(931,1176,ls),
(1091,1176,o),
(1094,1166,o),
(1094,1110,cs),
(1094,904,l),
(1200,904,l),
(1200,1290,l),
(1110,1290,o),
(950,1288,o),
(858,1288,cs),
(472,1288,ls),
(386,1288,o),
(72,1289,o),
(72,1290,c)
);
},
{
closed = 1;
nodes = (
(488,-357,l),
(555,-362,l),
(544,-455,o),
(531,-521,o),
(483,-554,c),
(541,-608,l),
(623,-572,o),
(673,-482,o),
(697,-367,cs),
(737,-176,l),
(511,-176,l)
);
}
);
};
layerId = m001;
shapes = (
{
alignment = -1;
ref = T;
},
{
alignment = -1;
pos = (336,0);
ref = commaaccentcomb;
}
);
width = 1221;
},
{
layerId = "B409784F-46BD-401C-982B-E70BC129B834";
width = 600;
}
);
unicode = 538;
},
{
glyphname = U;
kernLeft = U;
kernRight = U;
lastChange = "2023-08-04 09:34:56 +0000";
layers = (
{
background = {
shapes = (
{
closed = 1;
nodes = (
(24,1191,l),
(74,1191,ls),
(187,1191,o),
(189,1176,o),
(189,1134,cs),
(189,490,ls),
(189,147,o),
(304,-24,o),
(685,-24,cs),
(1035,-24,o),
(1164,143,o),
(1164,493,cs),
(1164,1128,ls),
(1164,1159,o),
(1162,1191,o),
(1276,1191,cs),
(1327,1191,l),
(1327,1290,l),
(1128,1290,o),
(1083,1288,o),
(1004,1288,cs),
(947,1288,o),
(888,1288,o),
(841,1290,c),
(841,1191,l),
(889,1191,ls),
(1019,1191,o),
(1018,1173,o),
(1018,1123,cs),
(1018,487,ls),
(1018,236,o),
(969,94,o),
(697,94,cs),
(443,94,o),
(370,217,o),
(370,495,cs),
(370,1128,ls),
(370,1162,o),
(371,1191,o),
(492,1191,cs),
(539,1191,l),
(539,1290,l),
(462,1288,o),
(394,1288,o),
(323,1288,cs),
(226,1288,o),
(115,1288,o),
(24,1290,c)
);
}
);
};
layerId = m001;
shapes = (
{
closed = 1;
nodes = (
(24,1191,l),
(74,1191,ls),
(187,1191,o),
(189,1176,o),
(189,1134,cs),
(189,490,ls),
(189,147,o),
(304,-24,o),
(685,-24,cs),
(1035,-24,o),
(1164,143,o),
(1164,493,cs),
(1164,1128,ls),
(1164,1159,o),
(1162,1191,o),
(1276,1191,cs),
(1327,1191,l),
(1327,1290,l),
(1128,1290,o),
(1083,1288,o),
(1004,1288,cs),
(947,1288,o),
(888,1288,o),
(841,1290,c),
(841,1191,l),
(889,1191,ls),
(1019,1191,o),
(1018,1173,o),
(1018,1123,cs),
(1018,487,ls),
(1018,236,o),
(969,94,o),
(697,94,cs),
(443,94,o),
(370,217,o),
(370,495,cs),
(370,1128,ls),
(370,1162,o),
(371,1191,o),
(492,1191,cs),
(539,1191,l),
(539,1290,l),
(462,1288,o),
(394,1288,o),
(323,1288,cs),
(226,1288,o),
(115,1288,o),
(24,1290,c)
);
}
);
userData = {
org.robofab.postScriptHintData = {
};
};
width = 1351;
},
{
background = {
shapes = (
{
closed = 1;
nodes = (
(47,1130,l),
(90,1130,ls),
(173,1130,o),
(178,1083,o),
(178,1053,cs),
(178,493,ls),
(178,141,o),
(333,-26,o),
(712,-26,cs),
(1088,-26,o),
(1235,155,o),
(1235,500,cs),
(1235,1018,ls),
(1235,1060,o),
(1227,1130,o),
(1320,1130,cs),
(1367,1130,l),
(1367,1308,l),
(1281,1307,o),
(1178,1306,o),
(1135,1306,cs),
(1059,1306,o),
(903,1306,o),
(867,1308,c),
(867,1130,l),
(903,1130,ls),
(1000,1130,o),
(1004,1076,o),
(1004,1026,cs),
(1004,484,ls),
(1004,276,o),
(953,168,o),
(766,168,cs),
(560,168,o),
(502,284,o),
(502,497,cs),
(502,1018,ls),
(502,1075,o),
(505,1130,o),
(600,1130,cs),
(633,1130,l),
(633,1308,l),
(505,1306,o),
(411,1305,o),
(308,1305,cs),
(233,1305,o),
(88,1307,o),
(47,1308,c)
);
}
);
};
layerId = "B409784F-46BD-401C-982B-E70BC129B834";
shapes = (
{
closed = 1;
nodes = (
(47,1130,l),
(90,1130,ls),
(173,1130,o),
(178,1083,o),
(178,1053,cs),
(178,493,ls),
(178,141,o),
(333,-26,o),
(712,-26,cs),
(1088,-26,o),
(1235,155,o),
(1235,500,cs),
(1235,1018,ls),
(1235,1060,o),
(1227,1130,o),
(1320,1130,cs),
(1367,1130,l),
(1367,1308,l),
(1281,1307,o),
(1178,1306,o),
(1135,1306,cs),
(1059,1306,o),
(903,1306,o),
(867,1308,c),
(867,1130,l),
(903,1130,ls),
(1000,1130,o),
(1004,1076,o),
(1004,1026,cs),
(1004,484,ls),
(1004,276,o),
(953,168,o),
(766,168,cs),
(560,168,o),
(502,284,o),
(502,497,cs),
(502,1018,ls),
(502,1075,o),
(505,1130,o),
(600,1130,cs),
(633,1130,l),
(633,1308,l),
(505,1306,o),
(411,1305,o),
(308,1305,cs),
(233,1305,o),
(88,1307,o),
(47,1308,c)
);
}
);
userData = {
org.robofab.postScriptHintData = {
};
};
width = 1411;
}
);
unicode = 85;
},
{
glyphname = Uacute;
kernLeft = U;
kernRight = U;
lastChange = "2023-08-04 09:35:09 +0000";
layers = (
{
background = {
shapes = (
{
closed = 1;
nodes = (
(566,1424,l),
(849,1686,ls),
(860,1696,o),
(864,1705,o),
(864,1714,cs),
(864,1735,o),
(836,1749,o),
(802,1749,cs),
(753,1749,o),
(702,1709,o),
(669,1666,cs),
(482,1424,l)
);
},
{
closed = 1;
nodes = (
(24,1191,l),
(74,1191,ls),
(187,1191,o),
(189,1176,o),
(189,1134,cs),
(189,490,ls),
(189,147,o),
(304,-24,o),
(685,-24,cs),
(1035,-24,o),
(1164,143,o),
(1164,493,cs),
(1164,1128,ls),
(1164,1159,o),
(1162,1191,o),
(1276,1191,cs),
(1327,1191,l),
(1327,1290,l),
(1128,1290,o),
(1083,1288,o),
(1004,1288,cs),
(947,1288,o),
(888,1288,o),
(841,1290,c),
(841,1191,l),
(889,1191,ls),
(1019,1191,o),
(1018,1173,o),
(1018,1123,cs),
(1018,487,ls),
(1018,236,o),
(969,94,o),
(697,94,cs),
(443,94,o),
(370,217,o),
(370,495,cs),
(370,1128,ls),
(370,1162,o),
(371,1191,o),
(492,1191,cs),
(539,1191,l),
(539,1290,l),
(462,1288,o),
(394,1288,o),
(323,1288,cs),
(226,1288,o),
(115,1288,o),
(24,1290,c)
);
}
);
};
layerId = m001;
shapes = (
{
alignment = -1;
pos = (212,395);
ref = acute;
},
{
alignment = -1;
ref = U;
}
);
userData = {
org.robofab.postScriptHintData = {
};
};
width = 1351;
},
{
background = {
shapes = (
{
closed = 1;
nodes = (
(589,1448,l),
(951,1737,ls),
(968,1753,o),
(879,1805,o),
(797,1805,cs),
(746,1805,o),
(696,1779,o),
(666,1738,cs),
(450,1448,l)
);
},
{
closed = 1;
nodes = (
(47,1130,l),
(90,1130,ls),
(173,1130,o),
(178,1083,o),
(178,1053,cs),
(178,493,ls),
(178,141,o),
(333,-26,o),
(712,-26,cs),
(1088,-26,o),
(1235,155,o),
(1235,500,cs),
(1235,1018,ls),
(1235,1060,o),
(1227,1130,o),
(1320,1130,cs),
(1367,1130,l),
(1367,1308,l),
(1281,1307,o),
(1178,1306,o),
(1135,1306,cs),
(1059,1306,o),
(903,1306,o),
(867,1308,c),
(867,1130,l),
(903,1130,ls),
(1000,1130,o),
(1004,1076,o),
(1004,1026,cs),
(1004,484,ls),
(1004,276,o),
(953,168,o),
(766,168,cs),
(560,168,o),
(502,284,o),
(502,497,cs),
(502,1018,ls),
(502,1075,o),
(505,1130,o),
(600,1130,cs),
(633,1130,l),
(633,1308,l),
(505,1306,o),
(411,1305,o),
(308,1305,cs),
(233,1305,o),
(88,1307,o),
(47,1308,c)
);
}
);
};
layerId = "B409784F-46BD-401C-982B-E70BC129B834";
shapes = (
{
alignment = -1;
pos = (208,400);
ref = acute;
},
{
alignment = -1;
ref = U;
}
);
userData = {
org.robofab.postScriptHintData = {
};
};
width = 1411;
}
);
unicode = 218;
},
{
glyphname = Ucircumflex;
kernLeft = U;
kernRight = U;
lastChange = "2023-08-04 09:35:09 +0000";
layers = (
{
background = {
shapes = (
{
closed = 1;
nodes = (
(373,1428,l),
(456,1428,l),
(672,1623,l),
(892,1428,l),
(978,1428,l),
(739,1745,l),
(603,1745,l)
);
},
{
closed = 1;
nodes = (
(24,1191,l),
(74,1191,ls),
(187,1191,o),
(189,1176,o),
(189,1134,cs),
(189,490,ls),
(189,147,o),
(304,-24,o),
(685,-24,cs),
(1035,-24,o),
(1164,143,o),
(1164,493,cs),
(1164,1128,ls),
(1164,1159,o),
(1162,1191,o),
(1276,1191,cs),
(1327,1191,l),
(1327,1290,l),
(1128,1290,o),
(1083,1288,o),
(1004,1288,cs),
(947,1288,o),
(888,1288,o),
(841,1290,c),
(841,1191,l),
(889,1191,ls),
(1019,1191,o),
(1018,1173,o),
(1018,1123,cs),
(1018,487,ls),
(1018,236,o),
(969,94,o),
(697,94,cs),
(443,94,o),
(370,217,o),
(370,495,cs),
(370,1128,ls),
(370,1162,o),
(371,1191,o),
(492,1191,cs),
(539,1191,l),
(539,1290,l),
(462,1288,o),
(394,1288,o),
(323,1288,cs),
(226,1288,o),
(115,1288,o),
(24,1290,c)
);
}
);
};
layerId = m001;
shapes = (
{
alignment = -1;
pos = (249,395);
ref = circumflex;
},
{
alignment = -1;
ref = U;
}
);
userData = {
org.robofab.postScriptHintData = {
};
};
width = 1351;
},
{
background = {
shapes = (
{
closed = 1;
nodes = (
(357,1453,l),
(509,1453,l),
(705,1618,l),
(899,1453,l),
(1053,1453,l),
(832,1790,l),
(576,1790,l)
);
},
{
closed = 1;
nodes = (
(47,1130,l),
(90,1130,ls),
(173,1130,o),
(178,1083,o),
(178,1053,cs),
(178,493,ls),
(178,141,o),
(333,-26,o),
(712,-26,cs),
(1088,-26,o),
(1235,155,o),
(1235,500,cs),
(1235,1018,ls),
(1235,1060,o),
(1227,1130,o),
(1320,1130,cs),
(1367,1130,l),
(1367,1308,l),
(1281,1307,o),
(1178,1306,o),
(1135,1306,cs),
(1059,1306,o),
(903,1306,o),
(867,1308,c),
(867,1130,l),
(903,1130,ls),
(1000,1130,o),
(1004,1076,o),
(1004,1026,cs),
(1004,484,ls),
(1004,276,o),
(953,168,o),
(766,168,cs),
(560,168,o),
(502,284,o),
(502,497,cs),
(502,1018,ls),
(502,1075,o),
(505,1130,o),
(600,1130,cs),
(633,1130,l),
(633,1308,l),
(505,1306,o),
(411,1305,o),
(308,1305,cs),
(233,1305,o),
(88,1307,o),
(47,1308,c)
);
}
);
};
layerId = "B409784F-46BD-401C-982B-E70BC129B834";
shapes = (
{
alignment = -1;
pos = (279,400);
ref = circumflex;
},
{
alignment = -1;
ref = U;
}
);
userData = {
org.robofab.postScriptHintData = {
};
};
width = 1411;
}
);
unicode = 219;
},
{
glyphname = Udblgrave;
kernLeft = U;
kernRight = U;
lastChange = "2023-08-04 09:36:57 +0000";
layers = (
{
background = {
shapes = (
{
closed = 1;
nodes = (
(24,1191,l),
(74,1191,ls),
(187,1191,o),
(189,1176,o),
(189,1134,cs),
(189,490,ls),
(189,147,o),
(304,-24,o),
(685,-24,cs),
(1035,-24,o),
(1164,143,o),
(1164,493,cs),
(1164,1128,ls),
(1164,1159,o),
(1162,1191,o),
(1276,1191,cs),
(1327,1191,l),
(1327,1290,l),
(1128,1290,o),
(1083,1288,o),
(1004,1288,cs),
(947,1288,o),
(888,1288,o),
(841,1290,c),
(841,1191,l),
(889,1191,ls),
(1019,1191,o),
(1018,1173,o),
(1018,1123,cs),
(1018,487,ls),
(1018,236,o),
(969,94,o),
(697,94,cs),
(443,94,o),
(370,217,o),
(370,495,cs),
(370,1128,ls),
(370,1162,o),
(371,1191,o),
(492,1191,cs),
(539,1191,l),
(539,1290,l),
(462,1288,o),
(394,1288,o),
(323,1288,cs),
(226,1288,o),
(115,1288,o),
(24,1290,c)
);
},
{
closed = 1;
nodes = (
(634,1424,l),
(426,1671,l),
(401,1696,o),
(380,1724,o),
(380,1745,cs),
(380,1772,o),
(410,1787,o),
(438,1787,cs),
(475,1787,o),
(520,1769,o),
(546,1722,cs),
(713,1424,l)
);
},
{
closed = 1;
nodes = (
(892,1424,l),
(679,1672,l),
(654,1697,o),
(634,1723,o),
(634,1745,cs),
(634,1772,o),
(664,1787,o),
(692,1787,cs),
(727,1787,o),
(767,1771,o),
(797,1729,c),
(970,1424,l)
);
}
);
};
layerId = m001;
shapes = (
{
ref = U;
},
{
pos = (167,395);
ref = dblgravecomb;
}
);
width = 1351;
},
{
layerId = "B409784F-46BD-401C-982B-E70BC129B834";
width = 600;
}
);
unicode = 532;
},
{
glyphname = Udieresis;
kernLeft = U;
kernRight = U;
lastChange = "2023-08-04 09:35:09 +0000";
layers = (
{
background = {
shapes = (
{
closed = 1;
nodes = (
(433,1669,o),
(397,1634,o),
(397,1581,cs),
(397,1528,o),
(433,1491,o),
(488,1491,cs),
(545,1491,o),
(580,1527,o),
(580,1580,cs),
(580,1635,o),
(545,1669,o),
(489,1669,cs)
);
},
{
closed = 1;
nodes = (
(806,1669,o),
(770,1634,o),
(770,1581,cs),
(770,1528,o),
(806,1491,o),
(861,1491,cs),
(918,1491,o),
(954,1527,o),
(954,1580,cs),
(954,1634,o),
(918,1669,o),
(862,1669,cs)
);
},
{
closed = 1;
nodes = (
(24,1191,l),
(74,1191,ls),
(187,1191,o),
(189,1176,o),
(189,1134,cs),
(189,490,ls),
(189,147,o),
(304,-24,o),
(685,-24,cs),
(1035,-24,o),
(1164,143,o),
(1164,493,cs),
(1164,1128,ls),
(1164,1159,o),
(1162,1191,o),
(1276,1191,cs),
(1327,1191,l),
(1327,1290,l),
(1128,1290,o),
(1083,1288,o),
(1004,1288,cs),
(947,1288,o),
(888,1288,o),
(841,1290,c),
(841,1191,l),
(889,1191,ls),
(1019,1191,o),
(1018,1173,o),
(1018,1123,cs),
(1018,487,ls),
(1018,236,o),
(969,94,o),
(697,94,cs),
(443,94,o),
(370,217,o),
(370,495,cs),
(370,1128,ls),
(370,1162,o),
(371,1191,o),
(492,1191,cs),
(539,1191,l),
(539,1290,l),
(462,1288,o),
(394,1288,o),
(323,1288,cs),
(226,1288,o),
(115,1288,o),
(24,1290,c)
);
}
);
};
layerId = m001;
shapes = (
{
alignment = -1;
pos = (249,395);
ref = dieresis;
},
{
alignment = -1;
ref = U;
}
);
userData = {
org.robofab.postScriptHintData = {
};
};
width = 1351;
},
{
background = {
shapes = (
{
closed = 1;
nodes = (
(404,1759,o),
(347,1704,o),
(347,1631,cs),
(347,1557,o),
(402,1502,o),
(478,1502,cs),
(553,1502,o),
(608,1556,o),
(608,1631,cs),
(608,1705,o),
(552,1759,o),
(479,1759,cs)
);
},
{
closed = 1;
nodes = (
(861,1759,o),
(804,1703,o),
(804,1631,cs),
(804,1558,o),
(859,1502,o),
(935,1502,cs),
(1010,1502,o),
(1064,1557,o),
(1064,1631,cs),
(1064,1704,o),
(1009,1759,o),
(935,1759,cs)
);
},
{
closed = 1;
nodes = (
(47,1130,l),
(90,1130,ls),
(173,1130,o),
(178,1083,o),
(178,1053,cs),
(178,493,ls),
(178,141,o),
(333,-26,o),
(712,-26,cs),
(1088,-26,o),
(1235,155,o),
(1235,500,cs),
(1235,1018,ls),
(1235,1060,o),
(1227,1130,o),
(1320,1130,cs),
(1367,1130,l),
(1367,1308,l),
(1281,1307,o),
(1178,1306,o),
(1135,1306,cs),
(1059,1306,o),
(903,1306,o),
(867,1308,c),
(867,1130,l),
(903,1130,ls),
(1000,1130,o),
(1004,1076,o),
(1004,1026,cs),
(1004,484,ls),
(1004,276,o),
(953,168,o),
(766,168,cs),
(560,168,o),
(502,284,o),
(502,497,cs),
(502,1018,ls),
(502,1075,o),
(505,1130,o),
(600,1130,cs),
(633,1130,l),
(633,1308,l),
(505,1306,o),
(411,1305,o),
(308,1305,cs),
(233,1305,o),
(88,1307,o),
(47,1308,c)
);
}
);
};
layerId = "B409784F-46BD-401C-982B-E70BC129B834";
shapes = (
{
alignment = -1;
pos = (279,400);
ref = dieresis;
},
{
alignment = -1;
ref = U;
}
);
userData = {
org.robofab.postScriptHintData = {
};
};
width = 1411;
}
);
unicode = 220;
},
{
glyphname = Ugrave;
kernLeft = U;
kernRight = U;
lastChange = "2023-08-04 09:35:09 +0000";
layers = (
{
background = {
shapes = (
{
closed = 1;
nodes = (
(24,1191,l),
(74,1191,ls),
(187,1191,o),
(189,1176,o),
(189,1134,cs),
(189,490,ls),
(189,147,o),
(304,-24,o),
(685,-24,cs),
(1035,-24,o),
(1164,143,o),
(1164,493,cs),
(1164,1128,ls),
(1164,1159,o),
(1162,1191,o),
(1276,1191,cs),
(1327,1191,l),
(1327,1290,l),
(1128,1290,o),
(1083,1288,o),
(1004,1288,cs),
(947,1288,o),
(888,1288,o),
(841,1290,c),
(841,1191,l),
(889,1191,ls),
(1019,1191,o),
(1018,1173,o),
(1018,1123,cs),
(1018,487,ls),
(1018,236,o),
(969,94,o),
(697,94,cs),
(443,94,o),
(370,217,o),
(370,495,cs),
(370,1128,ls),
(370,1162,o),
(371,1191,o),
(492,1191,cs),
(539,1191,l),
(539,1290,l),
(462,1288,o),
(394,1288,o),
(323,1288,cs),
(226,1288,o),
(115,1288,o),
(24,1290,c)
);
},
{
closed = 1;
nodes = (
(627,1744,o),
(587,1757,o),
(551,1757,cs),
(511,1757,o),
(477,1740,o),
(477,1719,c),
(484,1643,o),
(699,1504,o),
(789,1424,c),
(872,1424,l),
(642,1725,ls)
);
}
);
};
layerId = m001;
shapes = (
{
alignment = -1;
ref = U;
},
{
alignment = -1;
pos = (290,395);
ref = grave;
}
);
userData = {
org.robofab.postScriptHintData = {
};
};
width = 1351;
},
{
background = {
shapes = (
{
closed = 1;
nodes = (
(47,1130,l),
(90,1130,ls),
(173,1130,o),
(178,1083,o),
(178,1053,cs),
(178,493,ls),
(178,141,o),
(333,-26,o),
(712,-26,cs),
(1088,-26,o),
(1235,155,o),
(1235,500,cs),
(1235,1018,ls),
(1235,1060,o),
(1227,1130,o),
(1320,1130,cs),
(1367,1130,l),
(1367,1308,l),
(1281,1307,o),
(1178,1306,o),
(1135,1306,cs),
(1059,1306,o),
(903,1306,o),
(867,1308,c),
(867,1130,l),
(903,1130,ls),
(1000,1130,o),
(1004,1076,o),
(1004,1026,cs),
(1004,484,ls),
(1004,276,o),
(953,168,o),
(766,168,cs),
(560,168,o),
(502,284,o),
(502,497,cs),
(502,1018,ls),
(502,1075,o),
(505,1130,o),
(600,1130,cs),
(633,1130,l),
(633,1308,l),
(505,1306,o),
(411,1305,o),
(308,1305,cs),
(233,1305,o),
(88,1307,o),
(47,1308,c)
);
},
{
closed = 1;
nodes = (
(704,1795,o),
(659,1808,o),
(614,1808,cs),
(535,1808,o),
(448,1762,o),
(448,1752,c),
(451,1717,o),
(782,1485,o),
(823,1448,c),
(962,1448,l),
(726,1765,l)
);
}
);
};
layerId = "B409784F-46BD-401C-982B-E70BC129B834";
shapes = (
{
alignment = -1;
ref = U;
},
{
alignment = -1;
pos = (351,400);
ref = grave;
}
);
userData = {
org.robofab.postScriptHintData = {
};
};
width = 1411;
}
);
unicode = 217;
},
{
glyphname = Uinvertedbreve;
kernLeft = U;
kernRight = U;
lastChange = "2023-08-04 09:36:57 +0000";
layers = (
{
background = {
shapes = (
{
closed = 1;
nodes = (
(24,1191,l),
(74,1191,ls),
(187,1191,o),
(189,1176,o),
(189,1134,cs),
(189,490,ls),
(189,147,o),
(304,-24,o),
(685,-24,cs),
(1035,-24,o),
(1164,143,o),
(1164,493,cs),
(1164,1128,ls),
(1164,1159,o),
(1162,1191,o),
(1276,1191,cs),
(1327,1191,l),
(1327,1290,l),
(1128,1290,o),
(1083,1288,o),
(1004,1288,cs),
(947,1288,o),
(888,1288,o),
(841,1290,c),
(841,1191,l),
(889,1191,ls),
(1019,1191,o),
(1018,1173,o),
(1018,1123,cs),
(1018,487,ls),
(1018,236,o),
(969,94,o),
(697,94,cs),
(443,94,o),
(370,217,o),
(370,495,cs),
(370,1128,ls),
(370,1162,o),
(371,1191,o),
(492,1191,cs),
(539,1191,l),
(539,1290,l),
(462,1288,o),
(394,1288,o),
(323,1288,cs),
(226,1288,o),
(115,1288,o),
(24,1290,c)
);
},
{
closed = 1;
nodes = (
(404,1615,o),
(521,1711,o),
(675,1711,cs),
(831,1711,o),
(946,1615,o),
(980,1455,c),
(900,1455,l),
(866,1549,o),
(795,1593,o),
(677,1593,cs),
(557,1593,o),
(483,1549,o),
(450,1455,c),
(370,1455,l)
);
}
);
};
layerId = m001;
shapes = (
{
ref = U;
},
{
pos = (249,395);
ref = breveinvertedcomb;
}
);
width = 1351;
},
{
layerId = "B409784F-46BD-401C-982B-E70BC129B834";
width = 600;
}
);
unicode = 534;
},
{
glyphname = V;
lastChange = "2023-08-04 09:34:56 +0000";
layers = (
{
background = {
shapes = (
{
closed = 1;
nodes = (
(325,1113,o),
(321,1132,o),
(321,1145,cs),
(321,1191,o),
(372,1191,o),
(478,1191,c),
(478,1290,l),
(478,1290,o),
(223,1286,o),
(144,1286,cs),
(96,1286,o),
(34,1288,o),
(-14,1290,c),
(-14,1191,l),
(110,1191,o),
(117,1182,o),
(161,1073,cs),
(594,-13,l),
(772,-13,l),
(1120,919,ls),
(1217,1180,o),
(1221,1191,o),
(1356,1191,c),
(1356,1290,l),
(1277,1289,o),
(1197,1287,o),
(1124,1287,cs),
(1078,1287,o),
(894,1290,o),
(894,1290,c),
(894,1191,l),
(917,1191,o),
(938,1191,o),
(956,1191,cs),
(1029,1191,o),
(1059,1188,o),
(1059,1156,cs),
(1059,1140,o),
(1051,1118,o),
(1039,1085,cs),
(698,155,l),
(695,164,o),
(338,1078,o),
(335,1088,c)
);
}
);
};
layerId = m001;
shapes = (
{
closed = 1;
nodes = (
(325,1113,o),
(321,1132,o),
(321,1145,cs),
(321,1191,o),
(372,1191,o),
(478,1191,c),
(478,1290,l),
(478,1290,o),
(223,1286,o),
(144,1286,cs),
(96,1286,o),
(34,1288,o),
(-14,1290,c),
(-14,1191,l),
(110,1191,o),
(117,1182,o),
(161,1073,cs),
(594,-13,l),
(772,-13,l),
(1120,919,ls),
(1217,1180,o),
(1221,1191,o),
(1356,1191,c),
(1356,1290,l),
(1277,1289,o),
(1197,1287,o),
(1124,1287,cs),
(1078,1287,o),
(894,1290,o),
(894,1290,c),
(894,1191,l),
(917,1191,o),
(938,1191,o),
(956,1191,cs),
(1029,1191,o),
(1059,1188,o),
(1059,1156,cs),
(1059,1140,o),
(1051,1118,o),
(1039,1085,cs),
(698,155,l),
(695,164,o),
(338,1078,o),
(335,1088,c)
);
}
);
userData = {
org.robofab.postScriptHintData = {
};
};
width = 1342;
},
{
background = {
shapes = (
{
closed = 1;
nodes = (
(447,1059,o),
(445,1072,o),
(445,1081,cs),
(445,1129,o),
(505,1128,o),
(582,1130,c),
(582,1308,l),
(582,1308,o),
(273,1305,o),
(205,1305,cs),
(147,1305,o),
(25,1307,o),
(3,1308,c),
(3,1130,l),
(105,1130,o),
(123,1081,o),
(159,991,cs),
(563,-15,l),
(864,-15,l),
(1202,882,ls),
(1272,1068,o),
(1288,1130,o),
(1401,1130,c),
(1401,1308,l),
(1308,1306,o),
(1232,1306,o),
(1156,1306,cs),
(1108,1306,o),
(902,1308,o),
(902,1308,c),
(902,1130,l),
(908,1129,o),
(937,1129,o),
(943,1129,cs),
(1009,1127,o),
(1040,1121,o),
(1040,1088,cs),
(1040,1077,o),
(1035,1061,o),
(1028,1040,cs),
(749,258,l),
(730,307,o),
(470,992,o),
(453,1043,c)
);
}
);
};
layerId = "B409784F-46BD-401C-982B-E70BC129B834";
shapes = (
{
closed = 1;
nodes = (
(447,1059,o),
(445,1072,o),
(445,1081,cs),
(445,1129,o),
(505,1128,o),
(582,1130,c),
(582,1308,l),
(582,1308,o),
(273,1305,o),
(205,1305,cs),
(147,1305,o),
(25,1307,o),
(3,1308,c),
(3,1130,l),
(105,1130,o),
(123,1081,o),
(159,991,cs),
(563,-15,l),
(864,-15,l),
(1202,882,ls),
(1272,1068,o),
(1288,1130,o),
(1401,1130,c),
(1401,1308,l),
(1308,1306,o),
(1232,1306,o),
(1156,1306,cs),
(1108,1306,o),
(902,1308,o),
(902,1308,c),
(902,1130,l),
(908,1129,o),
(937,1129,o),
(943,1129,cs),
(1009,1127,o),
(1040,1121,o),
(1040,1088,cs),
(1040,1077,o),
(1035,1061,o),
(1028,1040,cs),
(749,258,l),
(730,307,o),
(470,992,o),
(453,1043,c)
);
}
);
userData = {
org.robofab.postScriptHintData = {
};
};
width = 1404;
}
);
unicode = 86;
},
{
glyphname = W;
lastChange = "2023-08-04 09:34:56 +0000";
layers = (
{
background = {
shapes = (
{
closed = 1;
nodes = (
(692,-13,l),
(991,1141,l),
(1291,-13,l),
(1471,-13,l),
(1488,44,o),
(1771,1043,o),
(1776,1060,cs),
(1813,1188,o),
(1832,1191,o),
(1954,1191,c),
(1954,1290,l),
(1878,1288,o),
(1796,1288,o),
(1730,1288,cs),
(1674,1288,o),
(1592,1290,o),
(1495,1290,c),
(1495,1191,l),
(1513.19,1191,o),
(1529.508,1190.892,o),
(1544.112,1190.57,cs),
(1629.059,1188.694,o),
(1656,1179.545,o),
(1656,1142,c),
(1655,1124,o),
(1649,1101,o),
(1641,1071,cs),
(1394,147,l),
(1088,1275,l),
(900,1275,l),
(614,149,l),
(536,429,o),
(444,785,o),
(366,1065,cs),
(358,1095,o),
(352,1116,o),
(352,1135,cs),
(352,1187,o),
(396,1191,o),
(509,1191,c),
(509,1290,l),
(415,1290,o),
(334,1287,o),
(277,1287,cs),
(230,1287,o),
(24,1290,o),
(24,1290,c),
(24,1267,o),
(25,1191,o),
(25,1191,c),
(158,1191,o),
(159,1187,o),
(197,1055,cs),
(506,-13,l)
);
}
);
};
layerId = m001;
shapes = (
{
closed = 1;
nodes = (
(692,-13,l),
(991,1141,l),
(1291,-13,l),
(1471,-13,l),
(1488,44,o),
(1771,1043,o),
(1776,1060,cs),
(1813,1188,o),
(1832,1191,o),
(1954,1191,c),
(1954,1290,l),
(1878,1288,o),
(1796,1288,o),
(1730,1288,cs),
(1674,1288,o),
(1592,1290,o),
(1495,1290,c),
(1495,1191,l),
(1513.19,1191,o),
(1529.508,1190.892,o),
(1544.112,1190.57,cs),
(1629.059,1188.694,o),
(1656,1179.545,o),
(1656,1142,c),
(1655,1124,o),
(1649,1101,o),
(1641,1071,cs),
(1394,147,l),
(1088,1275,l),
(900,1275,l),
(614,149,l),
(536,429,o),
(444,785,o),
(366,1065,cs),
(358,1095,o),
(352,1116,o),
(352,1135,cs),
(352,1187,o),
(396,1191,o),
(509,1191,c),
(509,1290,l),
(415,1290,o),
(334,1287,o),
(277,1287,cs),
(230,1287,o),
(24,1290,o),
(24,1290,c),
(24,1267,o),
(25,1191,o),
(25,1191,c),
(158,1191,o),
(159,1187,o),
(197,1055,cs),
(506,-13,l)
);
}
);
userData = {
com.typemytype.robofont.layerData = {
b = {
anchors = (
);
components = (
);
contours = (
);
lib = {
};
name = W;
unicodes = (
);
width = 1978;
};
};
org.robofab.postScriptHintData = {
};
};
width = 1978;
},
{
background = {
shapes = (
{
closed = 1;
nodes = (
(771,-15,l),
(1013,982,l),
(1253,-15,l),
(1561,-15,l),
(1651,279,o),
(1819,885,o),
(1850,972,cs),
(1894,1111,o),
(1920,1127,o),
(2016,1130,c),
(2016,1308,l),
(1981,1307,o),
(1832,1306,o),
(1770,1306,cs),
(1702,1306,o),
(1627,1307,o),
(1522,1308,c),
(1522,1130,l),
(1528,1129,o),
(1555,1129,o),
(1561,1128,cs),
(1622,1126,o),
(1648,1113,o),
(1654,1086,cs),
(1652,1069,o),
(1646,1050,o),
(1641,1028,cs),
(1445,237,l),
(1177,1276,l),
(911,1276,l),
(649,238,l),
(613,367,o),
(490,882,o),
(454,1011,cs),
(447,1035,o),
(445,1057,o),
(445,1074,cs),
(445,1122.891,o),
(489.387,1128.308,o),
(574,1130,c),
(574,1308,l),
(459,1307,o),
(376,1306,o),
(300,1306,cs),
(231,1306,o),
(6,1308,o),
(6,1308,c),
(6,1297,o),
(6,1130,o),
(6,1130,c),
(128,1130,o),
(115,1119,o),
(164,956,cs),
(454,-15,l)
);
}
);
};
layerId = "B409784F-46BD-401C-982B-E70BC129B834";
shapes = (
{
closed = 1;
nodes = (
(771,-15,l),
(1013,982,l),
(1253,-15,l),
(1561,-15,l),
(1651,279,o),
(1819,885,o),
(1850,972,cs),
(1894,1111,o),
(1920,1127,o),
(2016,1130,c),
(2016,1308,l),
(1981,1307,o),
(1832,1306,o),
(1770,1306,cs),
(1702,1306,o),
(1627,1307,o),
(1522,1308,c),
(1522,1130,l),
(1528,1129,o),
(1555,1129,o),
(1561,1128,cs),
(1622,1126,o),
(1648,1113,o),
(1654,1086,cs),
(1652,1069,o),
(1646,1050,o),
(1641,1028,cs),
(1445,237,l),
(1177,1276,l),
(911,1276,l),
(649,238,l),
(613,367,o),
(490,882,o),
(454,1011,cs),
(447,1035,o),
(445,1057,o),
(445,1074,cs),
(445,1122.891,o),
(489.387,1128.308,o),
(574,1130,c),
(574,1308,l),
(459,1307,o),
(376,1306,o),
(300,1306,cs),
(231,1306,o),
(6,1308,o),
(6,1308,c),
(6,1297,o),
(6,1130,o),
(6,1130,c),
(128,1130,o),
(115,1119,o),
(164,956,cs),
(454,-15,l)
);
}
);
userData = {
com.typemytype.robofont.layerData = {
};
org.robofab.postScriptHintData = {
};
};
width = 2022;
}
);
unicode = 87;
},
{
glyphname = X;
lastChange = "2023-08-04 09:34:56 +0000";
layers = (
{
background = {
shapes = (
{
closed = 1;
nodes = (
(33,1258,o),
(33,1224,o),
(33,1191,c),
(176,1191,o),
(181,1189,o),
(295,1040,cs),
(594,648,l),
(265,218,l),
(172,99,o),
(135,99,o),
(28,99,c),
(28,0,l),
(115,0,o),
(175,2,o),
(265,2,cs),
(354,2,o),
(523,0,o),
(552,0,c),
(552,98,l),
(440,98,o),
(389,98,o),
(389,131,cs),
(389,152,o),
(413,187,o),
(458,248,cs),
(682,552,l),
(918,241,ls),
(953,195,o),
(978,160,o),
(978,139,cs),
(978,107,o),
(932,98,o),
(826,98,c),
(826,65,o),
(827,32,o),
(827,0,c),
(916,0,o),
(989,2,o),
(1107,2,cs),
(1221,2,o),
(1291,0,o),
(1376,0,c),
(1376,32,o),
(1376,66,o),
(1376,98,c),
(1227,98,o),
(1207,126,o),
(1108,257,c),
(790,670,l),
(790,670,o),
(1122,1113,o),
(1123,1114,cs),
(1167,1180,o),
(1201,1194,o),
(1338,1194,c),
(1339,1290,l),
(1230,1289,o),
(1138,1286,o),
(1019,1286,cs),
(947,1286,o),
(848,1290,o),
(832,1290,c),
(832,1191,l),
(951,1191,o),
(987,1184,o),
(987,1165,cs),
(987,1159,o),
(971,1139,o),
(949,1106,cs),
(878,1001,o),
(702,770,o),
(703,767,c),
(467,1078,ls),
(434,1121,o),
(416,1148,o),
(416,1165,cs),
(416,1189,o),
(448,1191,o),
(510,1191,cs),
(527,1191,o),
(545,1191,o),
(566,1191,c),
(566,1290,l),
(490,1290,o),
(417,1286,o),
(357,1286,cs),
(224,1286,o),
(149,1286,o),
(33,1290,c)
);
}
);
};
layerId = m001;
shapes = (
{
closed = 1;
nodes = (
(33,1258,o),
(33,1224,o),
(33,1191,c),
(176,1191,o),
(181,1189,o),
(295,1040,cs),
(594,648,l),
(265,218,l),
(172,99,o),
(135,99,o),
(28,99,c),
(28,0,l),
(115,0,o),
(175,2,o),
(265,2,cs),
(354,2,o),
(523,0,o),
(552,0,c),
(552,98,l),
(440,98,o),
(389,98,o),
(389,131,cs),
(389,152,o),
(413,187,o),
(458,248,cs),
(682,552,l),
(918,241,ls),
(953,195,o),
(978,160,o),
(978,139,cs),
(978,107,o),
(932,98,o),
(826,98,c),
(826,65,o),
(827,32,o),
(827,0,c),
(916,0,o),
(989,2,o),
(1107,2,cs),
(1221,2,o),
(1291,0,o),
(1376,0,c),
(1376,32,o),
(1376,66,o),
(1376,98,c),
(1227,98,o),
(1207,126,o),
(1108,257,c),
(790,670,l),
(790,670,o),
(1122,1113,o),
(1123,1114,cs),
(1167,1180,o),
(1201,1194,o),
(1338,1194,c),
(1339,1290,l),
(1230,1289,o),
(1138,1286,o),
(1019,1286,cs),
(947,1286,o),
(848,1290,o),
(832,1290,c),
(832,1191,l),
(951,1191,o),
(987,1184,o),
(987,1165,cs),
(987,1159,o),
(971,1139,o),
(949,1106,cs),
(878,1001,o),
(702,770,o),
(703,767,c),
(467,1078,ls),
(434,1121,o),
(416,1148,o),
(416,1165,cs),
(416,1189,o),
(448,1191,o),
(510,1191,cs),
(527,1191,o),
(545,1191,o),
(566,1191,c),
(566,1290,l),
(490,1290,o),
(417,1286,o),
(357,1286,cs),
(224,1286,o),
(149,1286,o),
(33,1290,c)
);
}
);
userData = {
org.robofab.postScriptHintData = {
};
};
width = 1406;
},
{
background = {
shapes = (
{
closed = 1;
nodes = (
(46,1249,o),
(46,1188,o),
(46,1130,c),
(160,1128,o),
(176,1126,o),
(288,1007,cs),
(621,646,l),
(280,291,ls),
(173,186,o),
(139,178,o),
(36,178,c),
(36,0,l),
(196,1,o),
(251,2,o),
(321,2,cs),
(405,2,o),
(535,0,o),
(686,0,c),
(686,177,l),
(604,177,o),
(544,177,o),
(544,209,cs),
(544,224,o),
(562,253,o),
(611,306,cs),
(795,517,l),
(968,310,ls),
(1002,271,o),
(1042,225,o),
(1042,212,cs),
(1042,181,o),
(985,177,o),
(903,177,c),
(903,118,o),
(904,59,o),
(904,0,c),
(1028,1,o),
(1146,3,o),
(1284,3,cs),
(1407,3,o),
(1511,1,o),
(1620,0,c),
(1620,59,o),
(1620,119,o),
(1620,177,c),
(1484,177,o),
(1444,220,o),
(1362,313,cs),
(1013,686,l),
(1013,685,o),
(1367,1078,o),
(1375,1085,c),
(1419,1140,o),
(1474,1145,o),
(1586,1146,c),
(1588,1308,l),
(1467,1306,o),
(1371,1306,o),
(1268,1306,c),
(1196,1304,o),
(1064,1307,o),
(957,1308,c),
(957,1130,l),
(1043,1128,o),
(1089,1127,o),
(1089,1104,cs),
(1089,1099,o),
(1067,1080,o),
(1041,1047,cs),
(1008,999,o),
(850,819,o),
(851,818,cs),
(657,1030,ls),
(628,1060,o),
(600,1094,o),
(600,1104,cs),
(600,1128,o),
(631,1130,o),
(684,1130,cs),
(692,1130,o),
(717,1130,o),
(727,1130,c),
(727,1308,l),
(632,1307,o),
(455,1304,o),
(380,1307,c),
(246,1307,o),
(215,1306,o),
(46,1308,c)
);
}
);
};
layerId = "B409784F-46BD-401C-982B-E70BC129B834";
shapes = (
{
closed = 1;
nodes = (
(46,1249,o),
(46,1188,o),
(46,1130,c),
(160,1128,o),
(176,1126,o),
(288,1007,cs),
(621,646,l),
(280,291,ls),
(173,186,o),
(139,178,o),
(36,178,c),
(36,0,l),
(196,1,o),
(251,2,o),
(321,2,cs),
(405,2,o),
(535,0,o),
(686,0,c),
(686,177,l),
(604,177,o),
(544,177,o),
(544,209,cs),
(544,224,o),
(562,253,o),
(611,306,cs),
(795,517,l),
(968,310,ls),
(1002,271,o),
(1042,225,o),
(1042,212,cs),
(1042,181,o),
(985,177,o),
(903,177,c),
(903,118,o),
(904,59,o),
(904,0,c),
(1028,1,o),
(1146,3,o),
(1284,3,cs),
(1407,3,o),
(1511,1,o),
(1620,0,c),
(1620,59,o),
(1620,119,o),
(1620,177,c),
(1484,177,o),
(1444,220,o),
(1362,313,cs),
(1013,686,l),
(1013,685,o),
(1367,1078,o),
(1375,1085,c),
(1419,1140,o),
(1474,1145,o),
(1586,1146,c),
(1588,1308,l),
(1467,1306,o),
(1371,1306,o),
(1268,1306,c),
(1196,1304,o),
(1064,1307,o),
(957,1308,c),
(957,1130,l),
(1043,1128,o),
(1089,1127,o),
(1089,1104,cs),
(1089,1099,o),
(1067,1080,o),
(1041,1047,cs),
(1008,999,o),
(850,819,o),
(851,818,cs),
(657,1030,ls),
(628,1060,o),
(600,1094,o),
(600,1104,cs),
(600,1128,o),
(631,1130,o),
(684,1130,cs),
(692,1130,o),
(717,1130,o),
(727,1130,c),
(727,1308,l),
(632,1307,o),
(455,1304,o),
(380,1307,c),
(246,1307,o),
(215,1306,o),
(46,1308,c)
);
}
);
userData = {
com.typemytype.robofont.layerData = {
};
org.robofab.postScriptHintData = {
};
};
width = 1656;
}
);
unicode = 88;
},
{
glyphname = Y;
kernLeft = Y;
kernRight = Y;
lastChange = "2023-08-04 09:34:56 +0000";
layers = (
{
background = {
shapes = (
{
closed = 1;
nodes = (
(-7,1258,o),
(-6,1224,o),
(-6,1191,c),
(126,1191,o),
(129,1187,o),
(202,1073,cs),
(213,1056,o),
(530,567,o),
(541,550,c),
(541,161,ls),
(541,125,o),
(542,99,o),
(414,99,cs),
(361,99,l),
(361,0,l),
(434,0,o),
(526,2,o),
(628,2,c),
(743,0,o),
(819,0,o),
(902,0,c),
(902,99,l),
(848,99,ls),
(729,99,o),
(719,109,o),
(719,163,cs),
(719,548,l),
(730,565,o),
(998,978,o),
(1090,1113,cs),
(1142,1189,o),
(1144,1191,o),
(1265,1191,c),
(1265,1290,l),
(1185,1288,o),
(1121,1288,o),
(1058,1288,cs),
(1002,1288,o),
(795,1290,o),
(795,1290,c),
(795,1191,l),
(804.488,1191,o),
(813.494,1191,o),
(822.034,1190.984,cs),
(914.301,1190.806,o),
(952,1188.713,o),
(952,1164,cs),
(952,1145,o),
(934,1116,o),
(903,1067,cs),
(648,664,l),
(644,673,o),
(397,1064,o),
(392,1073,cs),
(366,1116,o),
(348,1146,o),
(346,1164,c),
(346,1190,o),
(383,1191,o),
(470,1191,cs),
(508,1191,l),
(508,1290,l),
(333,1290,o),
(241,1287,o),
(128,1287,cs),
(87,1287,o),
(32,1288,o),
(-7,1290,c)
);
}
);
};
layerId = m001;
shapes = (
{
closed = 1;
nodes = (
(-7,1258,o),
(-6,1224,o),
(-6,1191,c),
(126,1191,o),
(129,1187,o),
(202,1073,cs),
(213,1056,o),
(530,567,o),
(541,550,c),
(541,161,ls),
(541,125,o),
(542,99,o),
(414,99,cs),
(361,99,l),
(361,0,l),
(434,0,o),
(526,2,o),
(628,2,c),
(743,0,o),
(819,0,o),
(902,0,c),
(902,99,l),
(848,99,ls),
(729,99,o),
(719,109,o),
(719,163,cs),
(719,548,l),
(730,565,o),
(998,978,o),
(1090,1113,cs),
(1142,1189,o),
(1144,1191,o),
(1265,1191,c),
(1265,1290,l),
(1185,1288,o),
(1121,1288,o),
(1058,1288,cs),
(1002,1288,o),
(795,1290,o),
(795,1290,c),
(795,1191,l),
(804.488,1191,o),
(813.494,1191,o),
(822.034,1190.984,cs),
(914.301,1190.806,o),
(952,1188.713,o),
(952,1164,cs),
(952,1145,o),
(934,1116,o),
(903,1067,cs),
(648,664,l),
(644,673,o),
(397,1064,o),
(392,1073,cs),
(366,1116,o),
(348,1146,o),
(346,1164,c),
(346,1190,o),
(383,1191,o),
(470,1191,cs),
(508,1191,l),
(508,1290,l),
(333,1290,o),
(241,1287,o),
(128,1287,cs),
(87,1287,o),
(32,1288,o),
(-7,1290,c)
);
}
);
userData = {
org.robofab.postScriptHintData = {
};
};
width = 1259;
},
{
background = {
shapes = (
{
closed = 1;
nodes = (
(17,1249,o),
(18,1188,o),
(18,1130,c),
(123,1128,o),
(126,1119,o),
(189,1021,cs),
(246,931,o),
(441,623,o),
(499,534,c),
(499,268,ls),
(499,237,o),
(505,178,o),
(401,178,cs),
(353,178,l),
(353,0,l),
(405,0,o),
(571,2,o),
(650,2,c),
(784,1,o),
(869,0,o),
(968,0,c),
(968,178,l),
(919,178,ls),
(824,178,o),
(820,210,o),
(820,270,cs),
(820,532,l),
(879,622,o),
(1052,896,o),
(1152,1037,cs),
(1205,1117,o),
(1217,1130,o),
(1304,1130,c),
(1304,1308,l),
(1213,1306,o),
(1149,1306,o),
(1085,1306,cs),
(1027,1306,o),
(817,1308,o),
(817,1308,c),
(817,1130,l),
(823,1130,o),
(843,1129,o),
(848,1129,cs),
(903,1127,o),
(929,1120,o),
(934,1099,cs),
(931,1081,o),
(917,1055,o),
(897,1022,cs),
(700,695,l),
(676,744,o),
(541,970,o),
(516,1019,cs),
(504,1039,o),
(486,1080,o),
(478,1095,cs),
(478,1121,o),
(504,1130,o),
(569,1130,cs),
(600,1130,l),
(600,1308,l),
(421,1307,o),
(320,1305,o),
(198,1305,cs),
(149,1305,o),
(35,1307,o),
(17,1308,c)
);
}
);
};
layerId = "B409784F-46BD-401C-982B-E70BC129B834";
shapes = (
{
closed = 1;
nodes = (
(17,1249,o),
(18,1188,o),
(18,1130,c),
(123,1128,o),
(126,1119,o),
(189,1021,cs),
(246,931,o),
(441,623,o),
(499,534,c),
(499,268,ls),
(499,237,o),
(505,178,o),
(401,178,cs),
(353,178,l),
(353,0,l),
(405,0,o),
(571,2,o),
(650,2,c),
(784,1,o),
(869,0,o),
(968,0,c),
(968,178,l),
(919,178,ls),
(824,178,o),
(820,210,o),
(820,270,cs),
(820,532,l),
(879,622,o),
(1052,896,o),
(1152,1037,cs),
(1205,1117,o),
(1217,1130,o),
(1304,1130,c),
(1304,1308,l),
(1213,1306,o),
(1149,1306,o),
(1085,1306,cs),
(1027,1306,o),
(817,1308,o),
(817,1308,c),
(817,1130,l),
(823,1130,o),
(843,1129,o),
(848,1129,cs),
(903,1127,o),
(929,1120,o),
(934,1099,cs),
(931,1081,o),
(917,1055,o),
(897,1022,cs),
(700,695,l),
(676,744,o),
(541,970,o),
(516,1019,cs),
(504,1039,o),
(486,1080,o),
(478,1095,cs),
(478,1121,o),
(504,1130,o),
(569,1130,cs),
(600,1130,l),
(600,1308,l),
(421,1307,o),
(320,1305,o),
(198,1305,cs),
(149,1305,o),
(35,1307,o),
(17,1308,c)
);
}
);
userData = {
com.typemytype.robofont.layerData = {
};
org.robofab.postScriptHintData = {
};
};
width = 1321;
}
);
unicode = 89;
},
{
glyphname = Yacute;
kernLeft = Y;
kernRight = Y;
lastChange = "2023-08-04 09:35:09 +0000";
layers = (
{
background = {
shapes = (
{
closed = 1;
nodes = (
(-7,1258,o),
(-6,1224,o),
(-6,1191,c),
(126,1191,o),
(129,1187,o),
(202,1073,cs),
(213,1056,o),
(530,567,o),
(541,550,c),
(541,161,ls),
(541,125,o),
(542,99,o),
(414,99,cs),
(361,99,l),
(361,0,l),
(434,0,o),
(526,2,o),
(628,2,c),
(743,0,o),
(819,0,o),
(902,0,c),
(902,99,l),
(848,99,ls),
(729,99,o),
(719,109,o),
(719,163,cs),
(719,548,l),
(730,565,o),
(998,978,o),
(1090,1113,cs),
(1142,1189,o),
(1144,1191,o),
(1265,1191,c),
(1265,1290,l),
(1185,1288,o),
(1121,1288,o),
(1058,1288,cs),
(1002,1288,o),
(795,1290,o),
(795,1290,c),
(795,1191,l),
(804.488,1191,o),
(813.494,1191,o),
(822.034,1190.984,cs),
(914.301,1190.806,o),
(952,1188.713,o),
(952,1164,cs),
(952,1145,o),
(934,1116,o),
(903,1067,cs),
(648,664,l),
(644,673,o),
(397,1064,o),
(392,1073,cs),
(366,1116,o),
(348,1146,o),
(346,1164,c),
(346,1190,o),
(383,1191,o),
(470,1191,cs),
(508,1191,l),
(508,1290,l),
(333,1290,o),
(241,1287,o),
(128,1287,cs),
(87,1287,o),
(32,1288,o),
(-7,1290,c)
);
},
{
closed = 1;
nodes = (
(522,1424,l),
(805,1686,ls),
(816,1696,o),
(820,1705,o),
(820,1714,cs),
(820,1735,o),
(792,1749,o),
(758,1749,cs),
(709,1749,o),
(658,1709,o),
(625,1666,cs),
(438,1424,l)
);
}
);
};
layerId = m001;
shapes = (
{
alignment = -1;
ref = Y;
},
{
alignment = -1;
pos = (168,395);
ref = acute;
}
);
width = 1259;
},
{
background = {
shapes = (
{
closed = 1;
nodes = (
(17,1249,o),
(18,1188,o),
(18,1130,c),
(123,1128,o),
(126,1119,o),
(189,1021,cs),
(246,931,o),
(441,623,o),
(499,534,c),
(499,268,ls),
(499,237,o),
(505,178,o),
(401,178,cs),
(353,178,l),
(353,0,l),
(405,0,o),
(571,2,o),
(650,2,c),
(784,1,o),
(869,0,o),
(968,0,c),
(968,178,l),
(919,178,ls),
(824,178,o),
(820,210,o),
(820,270,cs),
(820,532,l),
(879,622,o),
(1052,896,o),
(1152,1037,cs),
(1205,1117,o),
(1217,1130,o),
(1304,1130,c),
(1304,1308,l),
(1213,1306,o),
(1149,1306,o),
(1085,1306,cs),
(1027,1306,o),
(817,1308,o),
(817,1308,c),
(817,1130,l),
(823,1130,o),
(843,1129,o),
(848,1129,cs),
(903,1127,o),
(929,1120,o),
(934,1099,cs),
(931,1081,o),
(917,1055,o),
(897,1022,cs),
(700,695,l),
(676,744,o),
(541,970,o),
(516,1019,cs),
(504,1039,o),
(486,1080,o),
(478,1095,cs),
(478,1121,o),
(504,1130,o),
(569,1130,cs),
(600,1130,l),
(600,1308,l),
(421,1307,o),
(320,1305,o),
(198,1305,cs),
(149,1305,o),
(35,1307,o),
(17,1308,c)
);
},
{
closed = 1;
nodes = (
(540,1452,l),
(902,1741,ls),
(919,1757,o),
(830,1809,o),
(748,1809,cs),
(697,1809,o),
(647,1783,o),
(617,1742,cs),
(401,1452,l)
);
}
);
};
layerId = "B409784F-46BD-401C-982B-E70BC129B834";
shapes = (
{
alignment = -1;
ref = Y;
},
{
alignment = -1;
pos = (159,404);
ref = acute;
}
);
width = 1320;
}
);
unicode = 221;
},
{
glyphname = Ydieresis;
kernLeft = Y;
kernRight = Y;
lastChange = "2023-08-04 09:35:09 +0000";
layers = (
{
background = {
shapes = (
{
closed = 1;
nodes = (
(-7,1258,o),
(-6,1224,o),
(-6,1191,c),
(126,1191,o),
(129,1187,o),
(202,1073,cs),
(213,1056,o),
(530,567,o),
(541,550,c),
(541,161,ls),
(541,125,o),
(542,99,o),
(414,99,cs),
(361,99,l),
(361,0,l),
(434,0,o),
(526,2,o),
(628,2,c),
(743,0,o),
(819,0,o),
(902,0,c),
(902,99,l),
(848,99,ls),
(729,99,o),
(719,109,o),
(719,163,cs),
(719,548,l),
(730,565,o),
(998,978,o),
(1090,1113,cs),
(1142,1189,o),
(1144,1191,o),
(1265,1191,c),
(1265,1290,l),
(1185,1288,o),
(1121,1288,o),
(1058,1288,cs),
(1002,1288,o),
(795,1290,o),
(795,1290,c),
(795,1191,l),
(804.488,1191,o),
(813.494,1191,o),
(822.034,1190.984,cs),
(914.301,1190.806,o),
(952,1188.713,o),
(952,1164,cs),
(952,1145,o),
(934,1116,o),
(903,1067,cs),
(648,664,l),
(644,673,o),
(397,1064,o),
(392,1073,cs),
(366,1116,o),
(348,1146,o),
(346,1164,c),
(346,1190,o),
(383,1191,o),
(470,1191,cs),
(508,1191,l),
(508,1290,l),
(333,1290,o),
(241,1287,o),
(128,1287,cs),
(87,1287,o),
(32,1288,o),
(-7,1290,c)
);
},
{
closed = 1;
nodes = (
(386,1669,o),
(350,1634,o),
(350,1581,cs),
(350,1528,o),
(386,1491,o),
(441,1491,cs),
(498,1491,o),
(533,1527,o),
(533,1580,cs),
(533,1635,o),
(498,1669,o),
(442,1669,cs)
);
},
{
closed = 1;
nodes = (
(759,1669,o),
(723,1634,o),
(723,1581,cs),
(723,1528,o),
(759,1491,o),
(814,1491,cs),
(871,1491,o),
(907,1527,o),
(907,1580,cs),
(907,1634,o),
(871,1669,o),
(815,1669,cs)
);
}
);
};
layerId = m001;
shapes = (
{
alignment = -1;
ref = Y;
},
{
alignment = -1;
pos = (202,395);
ref = dieresis;
}
);
userData = {
org.robofab.postScriptHintData = {
};
};
width = 1259;
},
{
background = {
shapes = (
{
closed = 1;
nodes = (
(17,1249,o),
(18,1188,o),
(18,1130,c),
(123,1128,o),
(126,1119,o),
(189,1021,cs),
(246,931,o),
(441,623,o),
(499,534,c),
(499,268,ls),
(499,237,o),
(505,178,o),
(401,178,cs),
(353,178,l),
(353,0,l),
(405,0,o),
(571,2,o),
(650,2,c),
(784,1,o),
(869,0,o),
(968,0,c),
(968,178,l),
(919,178,ls),
(824,178,o),
(820,210,o),
(820,270,cs),
(820,532,l),
(879,622,o),
(1052,896,o),
(1152,1037,cs),
(1205,1117,o),
(1217,1130,o),
(1304,1130,c),
(1304,1308,l),
(1213,1306,o),
(1149,1306,o),
(1085,1306,cs),
(1027,1306,o),
(817,1308,o),
(817,1308,c),
(817,1130,l),
(823,1130,o),
(843,1129,o),
(848,1129,cs),
(903,1127,o),
(929,1120,o),
(934,1099,cs),
(931,1081,o),
(917,1055,o),
(897,1022,cs),
(700,695,l),
(676,744,o),
(541,970,o),
(516,1019,cs),
(504,1039,o),
(486,1080,o),
(478,1095,cs),
(478,1121,o),
(504,1130,o),
(569,1130,cs),
(600,1130,l),
(600,1308,l),
(421,1307,o),
(320,1305,o),
(198,1305,cs),
(149,1305,o),
(35,1307,o),
(17,1308,c)
);
},
{
closed = 1;
nodes = (
(359,1759,o),
(302,1704,o),
(302,1631,cs),
(302,1557,o),
(357,1502,o),
(433,1502,cs),
(508,1502,o),
(563,1556,o),
(563,1631,cs),
(563,1705,o),
(507,1759,o),
(434,1759,cs)
);
},
{
closed = 1;
nodes = (
(816,1759,o),
(759,1703,o),
(759,1631,cs),
(759,1558,o),
(814,1502,o),
(890,1502,cs),
(965,1502,o),
(1019,1557,o),
(1019,1631,cs),
(1019,1704,o),
(964,1759,o),
(890,1759,cs)
);
}
);
};
layerId = "B409784F-46BD-401C-982B-E70BC129B834";
shapes = (
{
alignment = -1;
ref = Y;
},
{
alignment = -1;
pos = (234,400);
ref = dieresis;
}
);
userData = {
org.robofab.postScriptHintData = {
};
};
width = 1320;
}
);
unicode = 376;
},
{
glyphname = Z;
kernLeft = Z;
kernRight = Z;
lastChange = "2023-08-04 09:34:56 +0000";
layers = (
{
background = {
shapes = (
{
closed = 1;
nodes = (
(88,946,l),
(199,946,l),
(199,1111,ls),
(199,1178,o),
(218,1179,o),
(360,1179,cs),
(868,1179,l),
(59,134,l),
(59,0,l),
(1088,0,l),
(1088,361,l),
(975,361,l),
(974,154,o),
(972,110,o),
(907,110,cs),
(252,110,l),
(1061,1152,l),
(1061,1288,l),
(88,1288,l)
);
}
);
};
layerId = m001;
shapes = (
{
closed = 1;
nodes = (
(88,946,l),
(199,946,l),
(199,1111,ls),
(199,1178,o),
(218,1179,o),
(360,1179,cs),
(868,1179,l),
(59,134,l),
(59,0,l),
(1088,0,l),
(1088,361,l),
(975,361,l),
(974,154,o),
(972,110,o),
(907,110,cs),
(252,110,l),
(1061,1152,l),
(1061,1288,l),
(88,1288,l)
);
}
);
userData = {
org.robofab.postScriptHintData = {
};
};
width = 1147;
},
{
background = {
shapes = (
{
closed = 1;
nodes = (
(75,923,l),
(260,923,l),
(260,1029,ls),
(260,1127,o),
(280,1122,o),
(429,1122,cs),
(809,1122,l),
(52,204,l),
(52,0,l),
(1214,0,l),
(1214,401,l),
(1027,401,l),
(1026,238,o),
(1013,183,o),
(911,183,cs),
(427,183,l),
(1193,1111,l),
(1193,1306,l),
(75,1306,l)
);
}
);
};
layerId = "B409784F-46BD-401C-982B-E70BC129B834";
shapes = (
{
closed = 1;
nodes = (
(75,923,l),
(260,923,l),
(260,1029,ls),
(260,1127,o),
(280,1122,o),
(429,1122,cs),
(809,1122,l),
(52,204,l),
(52,0,l),
(1214,0,l),
(1214,401,l),
(1027,401,l),
(1026,238,o),
(1013,183,o),
(911,183,cs),
(427,183,l),
(1193,1111,l),
(1193,1306,l),
(75,1306,l)
);
}
);
userData = {
org.robofab.postScriptHintData = {
};
};
width = 1267;
}
);
unicode = 90;
},
{
glyphname = Zcaron;
kernLeft = Z;
kernRight = Z;
lastChange = "2023-08-04 09:35:09 +0000";
layers = (
{
background = {
shapes = (
{
closed = 1;
nodes = (
(500,1429,l),
(636,1429,l),
(875,1746,l),
(790,1746,l),
(569,1548,l),
(353,1746,l),
(270,1746,l)
);
},
{
closed = 1;
nodes = (
(88,946,l),
(199,946,l),
(199,1111,ls),
(199,1178,o),
(218,1179,o),
(360,1179,cs),
(868,1179,l),
(59,134,l),
(59,0,l),
(1088,0,l),
(1088,361,l),
(975,361,l),
(974,154,o),
(972,110,o),
(907,110,cs),
(252,110,l),
(1061,1152,l),
(1061,1288,l),
(88,1288,l)
);
}
);
};
layerId = m001;
shapes = (
{
alignment = -1;
pos = (146,395);
ref = caron;
},
{
alignment = -1;
ref = Z;
}
);
userData = {
org.robofab.postScriptHintData = {
};
};
width = 1147;
},
{
background = {
shapes = (
{
closed = 1;
nodes = (
(503,1454,l),
(760,1454,l),
(981,1791,l),
(828,1791,l),
(632,1624,l),
(437,1791,l),
(285,1791,l)
);
},
{
closed = 1;
nodes = (
(75,923,l),
(260,923,l),
(260,1029,ls),
(260,1127,o),
(280,1122,o),
(429,1122,cs),
(809,1122,l),
(52,204,l),
(52,0,l),
(1214,0,l),
(1214,401,l),
(1027,401,l),
(1026,238,o),
(1013,183,o),
(911,183,cs),
(427,183,l),
(1193,1111,l),
(1193,1306,l),
(75,1306,l)
);
}
);
};
layerId = "B409784F-46BD-401C-982B-E70BC129B834";
shapes = (
{
alignment = -1;
pos = (207,400);
ref = caron;
},
{
alignment = -1;
ref = Z;
}
);
userData = {
org.robofab.postScriptHintData = {
};
};
width = 1267;
}
);
unicode = 381;
},
{
glyphname = a;
kernLeft = a;
kernRight = a;
lastChange = "2023-08-04 09:34:56 +0000";
layers = (
{
background = {
shapes = (
{
closed = 1;
nodes = (
(903,823,o),
(791,922,o),
(508,922,cs),
(366,922,o),
(251,895,o),
(166,856,c),
(153,680,l),
(245,669,l),
(271,781,o),
(350,835,o),
(489,835,cs),
(655,835,o),
(735,768,o),
(735,648,cs),
(735,500,l),
(647,523,o),
(561,536,o),
(478,536,cs),
(234,536,o),
(91,423,o),
(91,252,cs),
(91,93,o),
(215,-21,o),
(406,-21,cs),
(552,-21,o),
(661,31,o),
(741,133,c),
(741,128,o),
(741,1,o),
(741,-4,c),
(802.969,-2.607,o),
(873.665,-1.215,o),
(946.335,-0.497,cs),
(978.035,-0.184,o),
(1010.11,1.665,o),
(1042,0,c),
(1042,89,l),
(997,89,ls),
(917,89,o),
(903,85,o),
(903,224,cs),
(903,603,ls)
);
},
{
closed = 1;
nodes = (
(584,452,o),
(655,439,o),
(735,417,c),
(735,319,ls),
(735,157,o),
(586,75,o),
(457,75,cs),
(339,75,o),
(257,147,o),
(257,257,cs),
(257,379,o),
(356,452,o),
(516,452,cs)
);
}
);
};
layerId = m001;
shapes = (
{
closed = 1;
nodes = (
(903,823,o),
(791,922,o),
(508,922,cs),
(366,922,o),
(251,895,o),
(166,856,c),
(153,680,l),
(245,669,l),
(271,781,o),
(350,835,o),
(489,835,cs),
(655,835,o),
(735,768,o),
(735,648,cs),
(735,500,l),
(647,523,o),
(561,536,o),
(478,536,cs),
(234,536,o),
(91,423,o),
(91,252,cs),
(91,93,o),
(215,-21,o),
(406,-21,cs),
(552,-21,o),
(661,31,o),
(741,133,c),
(741,128,o),
(741,1,o),
(741,-4,c),
(802.969,-2.607,o),
(873.665,-1.215,o),
(946.335,-0.497,cs),
(978.035,-0.184,o),
(1010.11,1.665,o),
(1042,0,c),
(1042,89,l),
(997,89,ls),
(917,89,o),
(903,85,o),
(903,224,cs),
(903,603,ls)
);
},
{
closed = 1;
nodes = (
(584,452,o),
(655,439,o),
(735,417,c),
(735,319,ls),
(735,157,o),
(586,75,o),
(457,75,cs),
(339,75,o),
(257,147,o),
(257,257,cs),
(257,379,o),
(356,452,o),
(516,452,cs)
);
}
);
userData = {
com.typemytype.robofont.layerData = {
b = {
anchors = (
);
components = (
);
contours = (
);
lib = {
};
name = a;
unicodes = (
);
width = 1093;
};
};
org.robofab.postScriptHintData = {
};
};
width = 1093;
},
{
background = {
shapes = (
{
closed = 1;
nodes = (
(1050,843,o),
(906,936,o),
(559,936,cs),
(339,936,o),
(192,889,o),
(153,871,c),
(147,671,l),
(312,656,l),
(335,752,o),
(406,801,o),
(529,801,cs),
(675,801,o),
(744,736,o),
(744,635,cs),
(744,520,l),
(667,540,o),
(577,550,o),
(491,550,cs),
(225,550,o),
(63,438,o),
(63,259,cs),
(63,104,o),
(181,-23,o),
(411,-23,cs),
(600,-23,o),
(700,34,o),
(758,127,c),
(788,-3,l),
(863,-1,o),
(904,0,o),
(979,1,cs),
(1011,1,o),
(1156,0,o),
(1176,0,c),
(1176,160,l),
(1128,160,ls),
(1060,160,o),
(1050,162,o),
(1050,272,cs),
(1050,601,l)
);
},
{
closed = 1;
nodes = (
(634,446,o),
(688,440,o),
(744,424,c),
(744,321,ls),
(744,195,o),
(657,123,o),
(527,123,cs),
(430,123,o),
(357,183,o),
(357,282,cs),
(357,385,o),
(439,446,o),
(578,446,cs)
);
}
);
};
layerId = "B409784F-46BD-401C-982B-E70BC129B834";
shapes = (
{
closed = 1;
nodes = (
(1050,843,o),
(906,936,o),
(559,936,cs),
(339,936,o),
(192,889,o),
(153,871,c),
(147,671,l),
(312,656,l),
(335,752,o),
(406,801,o),
(529,801,cs),
(675,801,o),
(744,736,o),
(744,635,cs),
(744,520,l),
(667,540,o),
(577,550,o),
(491,550,cs),
(225,550,o),
(63,438,o),
(63,259,cs),
(63,104,o),
(181,-23,o),
(411,-23,cs),
(600,-23,o),
(700,34,o),
(758,127,c),
(788,-3,l),
(863,-1,o),
(904,0,o),
(979,1,cs),
(1011,1,o),
(1156,0,o),
(1176,0,c),
(1176,160,l),
(1128,160,ls),
(1060,160,o),
(1050,162,o),
(1050,272,cs),
(1050,601,l)
);
},
{
closed = 1;
nodes = (
(634,446,o),
(688,440,o),
(744,424,c),
(744,321,ls),
(744,195,o),
(657,123,o),
(527,123,cs),
(430,123,o),
(357,183,o),
(357,282,cs),
(357,385,o),
(439,446,o),
(578,446,cs)
);
}
);
userData = {
org.robofab.postScriptHintData = {
};
};
width = 1203;
}
);
unicode = 97;
},
{
glyphname = aacute;
kernLeft = a;
kernRight = a;
lastChange = "2023-08-04 09:35:09 +0000";
layers = (
{
background = {
shapes = (
{
closed = 1;
nodes = (
(903,823,o),
(791,922,o),
(508,922,cs),
(366,922,o),
(251,895,o),
(166,856,c),
(153,680,l),
(245,669,l),
(271,781,o),
(350,835,o),
(489,835,cs),
(655,835,o),
(735,768,o),
(735,648,cs),
(735,500,l),
(647,523,o),
(561,536,o),
(478,536,cs),
(234,536,o),
(91,423,o),
(91,252,cs),
(91,93,o),
(215,-21,o),
(406,-21,cs),
(552,-21,o),
(661,31,o),
(741,133,c),
(741,128,o),
(741,1,o),
(741,-4,c),
(802.969,-2.607,o),
(873.665,-1.215,o),
(946.335,-0.497,cs),
(978.035,-0.184,o),
(1010.11,1.665,o),
(1042,0,c),
(1042,89,l),
(997,89,ls),
(917,89,o),
(903,85,o),
(903,224,cs),
(903,603,ls)
);
},
{
closed = 1;
nodes = (
(584,452,o),
(655,439,o),
(735,417,c),
(735,319,ls),
(735,157,o),
(586,75,o),
(457,75,cs),
(339,75,o),
(257,147,o),
(257,257,cs),
(257,379,o),
(356,452,o),
(516,452,cs)
);
},
{
closed = 1;
nodes = (
(421,1029,l),
(704,1291,ls),
(715,1301,o),
(719,1310,o),
(719,1319,cs),
(719,1340,o),
(691,1354,o),
(657,1354,cs),
(608,1354,o),
(557,1314,o),
(524,1271,cs),
(337,1029,l)
);
}
);
};
layerId = m001;
shapes = (
{
alignment = -1;
ref = a;
},
{
alignment = -1;
pos = (67,0);
ref = acute;
}
);
userData = {
org.robofab.postScriptHintData = {
};
};
width = 1060;
},
{
background = {
shapes = (
{
closed = 1;
nodes = (
(1050,843,o),
(906,936,o),
(559,936,cs),
(339,936,o),
(192,889,o),
(153,871,c),
(147,671,l),
(312,656,l),
(335,752,o),
(406,801,o),
(529,801,cs),
(675,801,o),
(744,736,o),
(744,635,cs),
(744,520,l),
(667,540,o),
(577,550,o),
(491,550,cs),
(225,550,o),
(63,438,o),
(63,259,cs),
(63,104,o),
(181,-23,o),
(411,-23,cs),
(600,-23,o),
(700,34,o),
(758,127,c),
(788,-3,l),
(863,-1,o),
(904,0,o),
(979,1,cs),
(1011,1,o),
(1156,0,o),
(1176,0,c),
(1176,160,l),
(1128,160,ls),
(1060,160,o),
(1050,162,o),
(1050,272,cs),
(1050,601,l)
);
},
{
closed = 1;
nodes = (
(634,446,o),
(688,440,o),
(744,424,c),
(744,321,ls),
(744,195,o),
(657,123,o),
(527,123,cs),
(430,123,o),
(357,183,o),
(357,282,cs),
(357,385,o),
(439,446,o),
(578,446,cs)
);
},
{
closed = 1;
nodes = (
(485,1048,l),
(847,1337,ls),
(864,1353,o),
(775,1405,o),
(693,1405,cs),
(642,1405,o),
(592,1379,o),
(562,1338,cs),
(346,1048,l)
);
}
);
};
layerId = "B409784F-46BD-401C-982B-E70BC129B834";
shapes = (
{
alignment = -1;
ref = a;
},
{
alignment = -1;
pos = (104,0);
ref = acute;
}
);
userData = {
org.robofab.postScriptHintData = {
};
};
width = 1203;
}
);
unicode = 225;
},
{
glyphname = acircumflex;
kernLeft = a;
kernRight = a;
lastChange = "2023-08-04 09:35:09 +0000";
layers = (
{
background = {
shapes = (
{
closed = 1;
nodes = (
(903,823,o),
(791,922,o),
(508,922,cs),
(366,922,o),
(251,895,o),
(166,856,c),
(153,680,l),
(245,669,l),
(271,781,o),
(350,835,o),
(489,835,cs),
(655,835,o),
(735,768,o),
(735,648,cs),
(735,500,l),
(647,523,o),
(561,536,o),
(478,536,cs),
(234,536,o),
(91,423,o),
(91,252,cs),
(91,93,o),
(215,-21,o),
(406,-21,cs),
(552,-21,o),
(661,31,o),
(741,133,c),
(741,128,o),
(741,1,o),
(741,-4,c),
(802.969,-2.607,o),
(873.665,-1.215,o),
(946.335,-0.497,cs),
(978.035,-0.184,o),
(1010.11,1.665,o),
(1042,0,c),
(1042,89,l),
(997,89,ls),
(917,89,o),
(903,85,o),
(903,224,cs),
(903,603,ls)
);
},
{
closed = 1;
nodes = (
(584,452,o),
(655,439,o),
(735,417,c),
(735,319,ls),
(735,157,o),
(586,75,o),
(457,75,cs),
(339,75,o),
(257,147,o),
(257,257,cs),
(257,379,o),
(356,452,o),
(516,452,cs)
);
},
{
closed = 1;
nodes = (
(227,1033,l),
(310,1033,l),
(526,1228,l),
(746,1033,l),
(832,1033,l),
(593,1350,l),
(457,1350,l)
);
}
);
};
layerId = m001;
shapes = (
{
alignment = -1;
ref = a;
},
{
alignment = -1;
pos = (103,0);
ref = circumflex;
}
);
userData = {
org.robofab.postScriptHintData = {
};
};
width = 1060;
},
{
background = {
shapes = (
{
closed = 1;
nodes = (
(1050,843,o),
(906,936,o),
(559,936,cs),
(339,936,o),
(192,889,o),
(153,871,c),
(147,671,l),
(312,656,l),
(335,752,o),
(406,801,o),
(529,801,cs),
(675,801,o),
(744,736,o),
(744,635,cs),
(744,520,l),
(667,540,o),
(577,550,o),
(491,550,cs),
(225,550,o),
(63,438,o),
(63,259,cs),
(63,104,o),
(181,-23,o),
(411,-23,cs),
(600,-23,o),
(700,34,o),
(758,127,c),
(788,-3,l),
(863,-1,o),
(904,0,o),
(979,1,cs),
(1011,1,o),
(1156,0,o),
(1176,0,c),
(1176,160,l),
(1128,160,ls),
(1060,160,o),
(1050,162,o),
(1050,272,cs),
(1050,601,l)
);
},
{
closed = 1;
nodes = (
(634,446,o),
(688,440,o),
(744,424,c),
(744,321,ls),
(744,195,o),
(657,123,o),
(527,123,cs),
(430,123,o),
(357,183,o),
(357,282,cs),
(357,385,o),
(439,446,o),
(578,446,cs)
);
},
{
closed = 1;
nodes = (
(253,1053,l),
(405,1053,l),
(601,1218,l),
(795,1053,l),
(949,1053,l),
(728,1390,l),
(472,1390,l)
);
}
);
};
layerId = "B409784F-46BD-401C-982B-E70BC129B834";
shapes = (
{
alignment = -1;
ref = a;
},
{
alignment = -1;
pos = (175,0);
ref = circumflex;
}
);
userData = {
org.robofab.postScriptHintData = {
};
};
width = 1203;
}
);
unicode = 226;
},
